<?xml version="1.0" encoding="UTF-8"?>
<svg id="Layer_2" data-name="Layer 2" xmlns="http://www.w3.org/2000/svg" viewBox="0 0 205.54 190.77">
  <defs>
    <style>
      .cls-1 {
        fill: #f26522;
      }

      .cls-2 {
        fill: #940f12;
      }

      .cls-3 {
        fill: #f9e3ad;
      }
    </style>
  </defs>
  <g id="Layer_1-2" data-name="Layer 1">
    <g>
      <g>
        <circle class="cls-3" cx="107.69" cy="95.4" r="89.37"/>
        <path class="cls-1" d="M107.72,190.77c-6.11,0-12.3-.59-18.52-1.82C37.61,178.76,3.94,128.5,14.13,76.91c4.94-24.99,19.31-46.56,40.48-60.74C75.77,1.99,101.18-3.1,126.18,1.84c51.59,10.19,85.26,60.46,75.07,112.04-8.97,45.37-48.93,76.89-93.52,76.89ZM107.51,12.01c-16.35,0-32.34,4.83-46.23,14.13-18.5,12.39-31.07,31.25-35.38,53.1-8.91,45.1,20.53,89.04,65.62,97.95,21.85,4.32,44.07-.13,62.56-12.53,18.5-12.39,31.07-31.25,35.38-53.1,4.32-21.85-.13-44.07-12.53-62.56-12.39-18.5-31.25-31.07-53.1-35.38-5.44-1.08-10.91-1.61-16.33-1.61Z"/>
      </g>
      <g>
        <path class="cls-2" d="M7.61,65.92c-2.38-.05-4.1,2.21-3.49,4.5,4.11,15.42,18.02,26.91,34.77,27.23s31.1-10.62,35.8-25.87c.7-2.27-.93-4.59-3.31-4.63l-63.78-1.23Z"/>
        <path class="cls-2" d="M39.6,101.66c-.26,0-.52,0-.78,0-18.06-.35-33.91-12.77-38.56-30.2-.62-2.33-.13-4.75,1.36-6.65,1.47-1.88,3.64-2.93,6.07-2.88l63.78,1.23c2.39.05,4.56,1.18,5.96,3.11,1.41,1.95,1.81,4.39,1.1,6.7-5.24,16.99-21.18,28.69-38.92,28.69ZM8.14,69.93c3.92,13.72,16.51,23.45,30.84,23.72,14.34.29,27.29-8.96,31.73-22.51l-62.57-1.21Z"/>
      </g>
      <g>
        <path class="cls-2" d="M102.8,67.68c-2.27-.04-3.96,2.02-3.54,4.25,3.17,16.71,17.68,29.49,35.36,29.83,17.68.34,32.67-11.87,36.48-28.45.51-2.21-1.11-4.34-3.37-4.38l-64.93-1.25Z"/>
        <path class="cls-2" d="M135.32,105.77c-.26,0-.52,0-.78,0-19.16-.37-35.65-14.29-39.21-33.09-.43-2.26.17-4.57,1.65-6.33,1.47-1.74,3.59-2.71,5.89-2.67h0l64.93,1.25c2.28.04,4.38,1.1,5.78,2.89,1.41,1.81,1.93,4.14,1.41,6.39-4.23,18.4-20.84,31.56-39.68,31.56ZM103.29,71.69c3.06,14.85,16.19,25.78,31.41,26.08.21,0,.42,0,.63,0,14.96,0,28.18-10.33,31.76-24.85l-63.79-1.23ZM102.72,71.68h0,0Z"/>
      </g>
      <path class="cls-2" d="M80.49,137.9c18.02,11.57,43.17,12.46,56.42-6.65,3.67-5.3-4.99-10.31-8.63-5.05-10.1,14.57-29.76,11.39-42.74,3.06-5.43-3.49-10.45,5.17-5.05,8.63h0Z"/>
      <path class="cls-2" d="M74.21,80.03c3.34-2.19,7.22-2.88,11.13-3.36,5.01-.61,8.6,1.04,12.88,3.45,5.62,3.16,10.66-5.48,5.05-8.63s-11.13-5.56-17.74-4.85c-5.68.61-11.51,1.58-16.36,4.76-5.36,3.52-.35,12.18,5.05,8.63h0Z"/>
      <path class="cls-2" d="M174.32,76.42c4.11-1.76,9.11-3.88,13.63-4.1s6.57,3.47,8.36,6.99c2.92,5.74,11.55.68,8.63-5.05-2.84-5.59-7.28-10.8-13.8-11.81-7.3-1.13-15.33,2.52-21.87,5.33-5.9,2.53-.81,11.14,5.05,8.63h0Z"/>
      <path class="cls-1" d="M128.39,65.03c-7.94,7.9-15.88,15.79-23.82,23.69-2.28,2.27,1.25,5.81,3.54,3.54,7.94-7.9,15.88-15.79,23.82-23.69,2.28-2.27-1.25-5.81-3.54-3.54h0Z"/>
      <path class="cls-1" d="M144.47,65.47c-10.19,10.19-20.37,20.37-30.56,30.56-2.28,2.28,1.26,5.81,3.54,3.54,10.19-10.19,20.37-20.37,30.56-30.56,2.28-2.28-1.26-5.81-3.54-3.54h0Z"/>
      <path class="cls-1" d="M32.16,63.2c-7.45,7.46-14.89,14.91-22.34,22.37-2.28,2.28,1.26,5.82,3.54,3.54,7.45-7.46,14.89-14.91,22.34-22.37,2.28-2.28-1.26-5.82-3.54-3.54h0Z"/>
      <path class="cls-1" d="M47.16,63.74c-10.19,10.14-20.37,20.28-30.56,30.41-2.28,2.27,1.25,5.81,3.54,3.54,10.19-10.14,20.37-20.28,30.56-30.41,2.28-2.27-1.25-5.81-3.54-3.54h0Z"/>
    </g>
  </g>
</svg>