<?xml version="1.0" encoding="UTF-8"?>
<svg id="Layer_2" data-name="Layer 2" xmlns="http://www.w3.org/2000/svg" viewBox="0 0 287.49 213.89">
  <defs>
    <style>
      .cls-1 {
        fill: #940f12;
      }

      .cls-1, .cls-2 {
        stroke: #940f12;
        stroke-linecap: round;
        stroke-linejoin: round;
        stroke-width: 6px;
      }

      .cls-3 {
        fill: #f26522;
      }

      .cls-4 {
        fill: #f9e3ad;
      }

      .cls-2 {
        fill: none;
      }
    </style>
  </defs>
  <g id="Animal_Posters" data-name="Animal Posters">
    <g>
      <path class="cls-4" d="M38.08,34.3c-8.51-3.16-17.77-4.3-26.79-3.29.92,2.27,2.44,4.25,3.93,6.19,2.9,3.77,5.8,7.53,8.83,11.2,1.06,1.28,2.17,2.58,3.63,3.39.71.39,1.6.82,1.64,1.63.04.69-.59,1.2-1.16,1.6-2.97,2.07-5.93,4.15-8.9,6.22,3.18,1.51,6.77,1.83,10.28,2.13,1.47.12,2.95.25,4.42.37.19.02.39.03.54-.09.16-.12.2-.35.22-.56.14-1.46.11-2.94.12-4.41.09-8.29,1.89-16.57,5.27-24.14"/>
      <path class="cls-4" d="M38.74,31.89c-8.74-3.21-18.2-4.38-27.46-3.38-2.02.22-2.94,1.93-2.16,3.76,1.27,3,3.41,5.51,5.38,8.07,2.21,2.87,4.43,5.73,6.71,8.53,1,1.23,1.98,2.52,3.18,3.58.62.55,1.29,1.06,2.01,1.48.22.13.58.44.82.47-.58-.09.22-1.76-.31-1.59-.68.22-1.46,1.02-2.05,1.44-.74.52-1.48,1.04-2.22,1.56-1.55,1.08-3.1,2.17-4.65,3.25-1.38.97-1.85,3.47,0,4.32,3.82,1.75,7.89,2.16,12.03,2.51,1.84.16,4.75,1,6.24-.49s1.06-4.32,1.07-6.24c.05-8.02,1.69-16.02,4.94-23.37.54-1.23.36-2.69-.9-3.42-1.06-.62-2.87-.34-3.42.9-2.05,4.64-3.62,9.44-4.53,14.43-.45,2.48-.78,5-.95,7.52-.08,1.23-.13,2.46-.14,3.7,0,.65,0,1.31-.01,1.96,0,.33-.01.65-.03.98-.01.26-.23.92.04.51l1.49-1.15c.29,0,.16-.01-.37-.04-.33-.03-.65-.06-.98-.08-.65-.06-1.31-.11-1.96-.17-1.21-.1-2.42-.2-3.62-.33-2.16-.24-4.39-.63-6.38-1.54v4.32c1.75-1.23,3.5-2.45,5.26-3.68,1.54-1.07,3.36-2.06,4.7-3.37,1.52-1.48,1.82-3.88.25-5.46-1.11-1.12-2.59-1.65-3.68-2.83-2.63-2.82-4.94-6-7.3-9.04s-4.84-5.82-6.3-9.26l-2.16,3.76c8.88-.96,17.75.13,26.13,3.2,1.27.47,2.74-.52,3.08-1.75.38-1.39-.47-2.61-1.75-3.08h0Z"/>
    </g>
    <g>
      <path class="cls-3" d="M62.8,103.71c-17.2-12.58-30.27-34.14-24.92-54.77,1.8-6.91,5.51-13.18,9.72-18.95,6.77-9.28,15.45-17.86,26.49-21.06,6.57-1.9,13.54-1.78,20.37-1.5,6.35.26,12.78.65,18.84,2.57,12.78,4.07,22.79,14.93,27.51,27.49,4.72,12.56,4.52,26.6,1.24,39.61,17.86,2.61,35.35,7.72,51.8,15.13,3.3-7.9,7.26-15.67,13.08-21.94,5.82-6.28,22.51-15.53,31.05-16.03,4.23-.25,17.51,10.11,6.23,14.51-8.54,3.33,15.64-5.36,24.65-3.71,4.61.85,9.96,2.27,11.67,6.63,1.49,3.79-.58,8.05-3.18,11.17s-5.85,5.88-7.34,9.67c4.54,2.85,9.68,6.85,9.12,12.19-.5,4.77-5.35,7.71-9.75,9.62-9.89,4.31-20.34,7.33-31,8.96-7.42,1.13-15.44,1.8-21.16,6.65-5.04,4.28-7.44,11.18-12.8,15.05,5.04-1.34,9.16-5.68,10.24-10.79-2.64,6.38-8,11.57-14.45,14.02,2.7,8.22,5.3,17.65.95,25.13-.96,1.65-2.21,3.1-3.13,4.77-1.28,2.33-1.85,4.97-2.75,7.47-2.75,7.62-8.49,13.71-14.08,19.57-1.94,2.04-4.11,4.19-6.89,4.6-3.1.46-6.02-1.36-8.62-3.1-7.98-5.33-16.35-11.11-20.32-19.85-1.87-4.12-2.64-8.66-4.48-12.79-4.62-10.32-16.45-16.9-27.66-15.39.76,1.75,2.58,3,4.49,3.07-3.05,5.1-9.67,7.77-15.4,6.19-2.32-.64-4.46-1.88-6.84-2.25-7.54-1.18-15.38,6.53-22.13,2.97-1.98-1.05-3.42-2.94-5.44-3.92-4.32-2.11-9.3.56-13.98,1.66-7.6,1.78-16.1-1.09-21.06-7.12-1.04-1.26.03-4.84-1.47-5.5-1.56-.69-5.31-.19-7.01,0-6.1.67-12.49,1.27-17.78-1.84-1.19-.7-2.38-1.54-2.95-2.8-.53-1.17-.44-2.53-.2-3.8,1.63-8.59,9.18-14.6,16.2-19.81,8.08-5.99,14.89-7.62,22.97-13.61,4.53-3.36,11.68-4.25,16.65-8.09"/>
      <path class="cls-3" d="M64.06,101.55c-11.15-8.2-20.49-20.12-23.77-33.74-1.62-6.71-1.5-13.71.61-20.3,2.36-7.36,6.88-14.08,11.76-20.01,4.56-5.54,9.88-10.58,16.31-13.87,7.35-3.76,15.53-4.05,23.62-3.78s16.25.56,23.6,3.9c6.15,2.8,11.48,7.2,15.59,12.54,9.53,12.39,11.74,28.82,9.17,43.93-.36,2.09-.8,4.15-1.31,6.21-.3,1.19.38,2.87,1.75,3.08,17.64,2.6,34.94,7.57,51.21,14.88,1.61.72,3,.1,3.67-1.49,3.07-7.31,6.76-14.61,12.14-20.52,3.8-4.18,8.83-7.18,13.83-9.86,2.72-1.46,5.51-2.8,8.41-3.88,1.32-.49,2.66-.93,4.02-1.29.57-.15,1.14-.28,1.71-.39.29-.06.58-.11.87-.15-.43.06.35-.04.51-.04s.33,0,.48-.02c.51-.05-.05-.02-.01,0,.4.15.85.23,1.26.38.44.16-.3-.16.14.06.22.11.45.22.67.33.5.27.99.56,1.46.88,1.48.99,3.09,2.52,3.99,4.13.05.09.1.19.14.29.17.33-.17-.53.03.07.07.22.13.45.2.67.16.51.08-.23.03.29,0,.09,0,.19,0,.28,0,.58.08-.32,0,0-.02.09-.04.19-.07.28-.19.57.17-.27,0,.04-.05.09-.1.18-.15.27-.23.39.14-.13-.05.1-.5.57-.52.58-1.17.96-1.32.79-4.4,1.2-4.69,3.09-.18,1.2.15,2.13,1.15,2.82.94.65,2.15.23,3.15-.04,1.19-.32,2.37-.66,3.56-.98,3.64-.98,7.31-1.88,11.02-2.55,2.09-.38,3.26-.56,5.36-.71.79-.05,1.59-.08,2.38-.06.38,0,.75.03,1.13.06.03,0,.67.08.24.02s.55.1.54.1c4.01.75,10.69,2.23,9.97,7.65-.42,3.12-2.63,5.67-4.67,7.91-2.47,2.71-4.82,5.35-6.22,8.78-.42,1.03.29,2.28,1.15,2.82,3.88,2.45,10.49,7.12,6.87,12.36-1.56,2.26-4.28,3.65-6.7,4.76-3.35,1.55-6.85,2.84-10.35,4.01-7.31,2.45-14.81,4.18-22.44,5.29-6.49.95-13.46,1.8-18.95,5.71-3.12,2.22-5.39,5.18-7.56,8.29-1.9,2.73-3.76,5.71-6.48,7.72-1,.74-1.56,1.9-1.02,3.12.49,1.12,1.72,1.79,2.95,1.45,5.89-1.65,10.64-6.54,11.99-12.53.27-1.21-.27-2.47-1.45-2.95-1.03-.42-2.63-.14-3.12,1.02-2.45,5.79-7.05,10.58-12.96,12.87-1.21.47-2.2,1.68-1.75,3.08,1.61,4.92,3.21,10.02,3.18,15.24-.01,2.34-.38,4.75-1.41,6.88-1.2,2.49-3.15,4.52-4.29,7.04s-1.74,5.28-2.79,7.85c-.96,2.36-2.29,4.59-3.74,6.68-2.92,4.22-6.53,8.01-10.13,11.65-1.5,1.51-3.28,3.22-5.57,3.1-2.49-.13-4.77-1.93-6.76-3.26-4.06-2.72-8.11-5.5-11.66-8.88-3.56-3.39-6.39-7.3-8.01-11.97-1.75-5.06-2.88-10.32-6.07-14.75-6.12-8.5-16.82-13.66-27.33-12.32-1.93.25-3.04,1.92-2.16,3.76,1.25,2.6,3.83,4.09,6.65,4.31l-2.16-3.76c-1.41,2.28-3.63,3.99-6.19,4.81-2.9.93-5.59.63-8.4-.45-1.7-.65-3.35-1.36-5.17-1.62-1.66-.24-3.25-.15-4.89.12-2.99.5-5.77,1.75-8.63,2.71-2.37.79-5.03,1.6-7.37.59-1.45-.63-2.59-1.87-3.83-2.82-1.54-1.19-3.24-1.99-5.18-2.26-3.79-.51-7.4.93-10.97,1.97-2.94.85-5.96,1.16-8.98.57s-5.89-1.8-8.33-3.68c-.51-.4-1-.84-1.47-1.29-.31-.3-.61-.61-.9-.93-.14-.15-.51-.66-.26-.17-.22-.43-.12-.53-.15-1.17s-.06-1.33-.16-1.99c-.52-3.61-3.82-4.08-6.9-3.92s-6.38.72-9.6.83c-3.46.12-7.04-.16-10.11-1.91-1.18-.67-2.29-1.35-2.29-2.82s.56-3.22,1.16-4.63c2.44-5.71,7.63-9.94,12.46-13.59,2.98-2.25,6.06-4.27,9.35-6.04s6.32-3.19,9.39-4.96,5.79-4.13,8.99-5.63c2.96-1.39,6.12-2.32,9.1-3.68,1.53-.7,2.98-1.52,4.33-2.53,1.08-.81,1.64-2.16.9-3.42-.62-1.06-2.34-1.72-3.42-.9-2.76,2.08-5.97,3.24-9.16,4.45-1.66.63-3.33,1.28-4.92,2.08s-3.03,1.93-4.53,2.94c-6.46,4.37-13.86,7.1-20.22,11.65-5.67,4.05-11.54,8.55-15.23,14.57-1.79,2.92-3.46,6.82-3.16,10.33.37,4.32,4.26,6.67,8.01,7.95s7.68,1.3,11.51,1.02c3.12-.23,6.51-1.08,9.64-.7-.02,0,.39.14.44.1l.12.04-.56-.34c-.09-.07-.19-.33-.25-.37.14.08.05.15.07.34.04.37.04.75.06,1.13.07,1.54.27,2.94,1.27,4.17,2.14,2.64,5.05,4.75,8.14,6.14s6.72,2.27,10.27,2.24c3.84-.03,7.3-1.32,10.94-2.33,1.61-.44,3.36-.87,5.03-.55s2.86,1.49,4.14,2.53c2.76,2.25,5.78,3.35,9.36,2.9,6.04-.76,11.88-5.41,18.06-3.29,1.76.6,3.44,1.44,5.27,1.83,1.63.35,3.33.47,4.99.28,3.48-.4,6.66-1.74,9.35-3.99,1.27-1.07,2.34-2.38,3.21-3.79,1.06-1.72-.35-3.62-2.16-3.76-1.12-.09-1.87-.88-2.33-1.83l-2.16,3.76c8.88-1.13,18.2,2.86,23.32,10.28,3.13,4.55,3.93,9.99,5.97,15.02s5.32,9.3,9.3,12.94,8.24,6.53,12.61,9.43c2.38,1.59,4.91,3.09,7.8,3.43s5.62-.81,7.92-2.65c1.99-1.59,3.69-3.57,5.43-5.43,1.92-2.05,3.78-4.16,5.5-6.38s3.3-4.49,4.6-6.96,2.24-5.23,3.12-7.97c.48-1.49,1.01-2.92,1.84-4.25s1.88-2.62,2.68-4.02c1.57-2.72,2.37-5.76,2.6-8.87.46-6.18-1.4-12.37-3.3-18.18l-1.75,3.08c7.07-2.74,12.97-8.14,15.95-15.17l-4.57-1.93c-.98,4.33-4.2,7.83-8.5,9.04l1.93,4.57c2.89-2.14,5.05-4.87,7.09-7.8,1.85-2.65,3.61-5.38,6.07-7.51,5.22-4.52,12.9-5.05,19.42-6.02,8.12-1.21,16.1-3.18,23.83-5.93,3.65-1.3,7.37-2.68,10.82-4.47,2.88-1.5,5.75-3.54,7.39-6.41,1.95-3.43,1.71-7.58-.38-10.89-2.09-3.31-5.38-5.68-8.64-7.74l1.15,2.82c1.17-2.86,3.61-5.07,5.63-7.33,2.2-2.46,4.22-5.21,5.07-8.45s.31-6.56-1.76-9.19c-1.72-2.17-4.23-3.46-6.81-4.34-4.11-1.4-8.24-1.77-12.53-1.26s-8.29,1.38-12.37,2.41c-1.77.45-3.54.92-5.3,1.41-.58.16-1.16.33-1.75.48-.17.05-.35.08-.52.13-.05.02-.11.01-.16.04.22-.1,1.37,0,1.76.27l1.15,2.82h0c-.21.36-.43.73-.64,1.1-.38.43-.64.48-.23.25.35-.2-.61.24-.25.1.17-.06.34-.14.5-.2,1.32-.53,2.64-1.03,3.8-1.88,2.41-1.77,3.63-4.45,2.91-7.42-.61-2.48-2.42-4.66-4.32-6.29s-4.07-3.09-6.48-3.79-5.02-.03-7.34.62c-3.26.91-6.42,2.24-9.48,3.69-5.98,2.85-11.98,6.36-16.87,10.88-7.01,6.48-11.36,15.65-14.99,24.31l3.67-1.49c-16.69-7.5-34.3-12.72-52.4-15.38l1.75,3.08c4.14-16.63,3.5-35.18-5.69-50.08-3.9-6.33-9.18-11.85-15.5-15.79-7.26-4.52-15.49-6.16-23.93-6.72-8.93-.59-18.44-1.13-27.06,1.69-7.58,2.48-14.13,7.32-19.59,13.05-10.99,11.53-20.14,26.74-18.27,43.21,1.75,15.37,10.89,29.23,22.5,39.1,1.49,1.27,3.04,2.47,4.61,3.63,1.09.8,2.79.18,3.42-.9.74-1.27.19-2.62-.9-3.42h0Z"/>
    </g>
    <g id="_91WJdc" data-name="91WJdc">
      <g>
        <path class="cls-2" d="M194.5,91.7c-14.62-10.9-31.01-15.91-49.28-14.75.77-4.06,2.6-7.7,3.21-11.74,2.46-16.17-1.57-30.45-12.22-42.78-9.85-11.41-22.61-17.93-37.44-19.17-18.98-1.59-35.62,4.25-48.86,18.55-10.91,11.78-15.06,25.78-13.44,41.48,1.2,11.65,6.45,21.51,14.58,29.97,3.08,3.21,6.77,5.57,10.03,8.49"/>
        <path class="cls-2" d="M133.06,164.23c-3.52.53-7-.69-9.91-1.9-10-4.17-19.5-9.32-27.21-17.31-7.48-7.74-13.27-16.16-14.45-27.23-.3-2.84-.11-5.65-.49-8.78-6.17-.66-11.86-3.25-17.43-6.14-.8-.42-1.36-.71-2.25-.35-10.7,4.31-21.53,8.22-31.45,14.35-6.85,4.23-13.43,8.75-18.99,14.47-3.24,3.33-6.36,6.97-7.61,11.93-1.27,5.06,2.06,9.33,7.44,10.73,5.21,1.35,10.49,1.07,15.91.65,11.97-.92,22.83-5.3,33.89-9.25"/>
        <path class="cls-2" d="M220,105.17c13.38-8.95,28.09-13.57,44.22-13.84,4.97-.08,9.64.22,13.96,3.13,4.38,2.95,5.19,6.16,2.75,10.81-3.94,7.52-10.72,11.68-17.9,15.14-10.27,4.96-20.97,8.53-32.62,8.73-2.92.05-5.91-.4-8.96.3-1.93,9.2-7.09,15.65-16.34,18.49"/>
        <path class="cls-2" d="M129.9,131.34c-1.65,4.2-1.05,8.63-.56,12.82,2.57,21.54,11.86,40.13,26.21,56.15,4.25,4.74,9.36,8.58,16.06,10.22,6.99,1.71,11.5-2.96,13.06-9.36,1.52-6.24.82-12.42.09-18.64"/>
        <path class="cls-2" d="M252.46,64.25c-1.77-6.47-5.69-10.91-12.37-12.33-5.1-1.08-10.1-.1-14.79,2.02-13.66,6.16-22.74,16.79-29.12,30.04-1.01,2.11-1.35,4.53-2.97,6.35"/>
        <path class="cls-2" d="M40.27,32.52c-10.53-4.31-21.36-6.43-33.2-4.4,3.56,11.83,11.92,19.43,21.78,26.19-5.81,2.97-11.85,5.4-16.22,10.92,7.51-.23,14.94-.01,22.34.65"/>
        <path class="cls-2" d="M272.98,91.34c1.97-2.73,4.82-4.63,6.9-7.23,2.31-2.88,4.53-6.18,4.62-9.83.15-5.91-3.83-9.69-10.19-10.89-6.88-1.3-13.68-.58-20.35,1.14-15.43,3.98-29.4,10.56-39.77,23.26-1.55,1.9-2.5,4.05-3.33,6.3"/>
        <path class="cls-2" d="M31.42,155.32c.19,6.82,6.38,11.87,13.66,11.5,7.18-.37,14.32-1.01,21.34-2.53,4.48-.97,8.71-2.89,13.22-3.81"/>
        <path class="cls-2" d="M98.71,160.29c-5.52,7.08-12.51,11.78-21.58,12.64-5.18.49-7.69-2.06-9.22-8.36"/>
        <path class="cls-2" d="M123.01,162.9c-5.44,5.59-11.9,9.32-19.83,9.05-3.96-.13-6.66-3.04-7.94-6.93"/>
        <path class="cls-2" d="M196.3,163.94c1.32,6.86,2.65,13.78.98,20.72-1.33,5.52-4,11.59-10.89,10.71"/>
        <path class="cls-2" d="M203.36,156.01c2.64-2.11,2.09-5.43,1.51-7.66-2.44-9.28-9.86-16.61-17.77-17.57"/>
        <path class="cls-2" d="M189.27,144.86c8.19,2.83,13.56,8.55,15.68,16.8,1.31,5.12-.14,11.33-6.58,12.53"/>
      </g>
    </g>
    <circle class="cls-1" cx="76.5" cy="51.3" r="11.52"/>
  </g>
</svg>