<?xml version="1.0" encoding="UTF-8"?>
<svg id="Layer_2" data-name="Layer 2" xmlns="http://www.w3.org/2000/svg" viewBox="0 0 139.79 140.2">
  <defs>
    <style>
      .cls-1 {
        fill: #bcbec0;
      }

      .cls-2 {
        fill: #231f20;
      }

      .cls-3 {
        fill: #a97c50;
      }
    </style>
  </defs>
  <g id="Layer_2-2" data-name="Layer 2">
    <g>
      <g>
        <path class="cls-3" d="M70.01,99.58C26.89,71.73,134.86,5.05,134.86,5.05c0,0-23.84,114.59-64.85,94.52"/>
        <path class="cls-2" d="M72.53,95.26c-15.69-10.4-3.19-28.01,6.43-38.84,13.42-15.09,29.75-27.64,46.33-39.06,3.98-2.74,7.99-5.45,12.09-7.99-2.45-1.88-4.9-3.76-7.34-5.65-2.51,12.01-5.93,23.89-9.81,35.51-5.93,17.74-13.22,38.3-27.24,51.39-5.88,5.49-12.98,8.16-20.45,4.63-5.79-2.73-10.87,5.88-5.05,8.63,19.75,9.33,35.53-6.45,45.1-22.41,11.02-18.37,17.88-39.41,23.4-60,1.34-5,2.63-10.03,3.69-15.09.85-4.07-3.43-8.07-7.34-5.65-12.79,7.91-25.03,16.89-36.68,26.38-9.08,7.4-17.88,15.29-25.49,24.22-6.33,7.44-12.74,16.11-14.7,25.9-2.23,11.18,2.72,20.5,12.02,26.66,5.38,3.57,10.39-5.09,5.05-8.63h0Z"/>
      </g>
      <g>
        <path class="cls-1" d="M57.83,97.72c-31.34-5.6-14.06,21.21-52.94,32.99,42.33,16.04,90.1-15.52,52.94-32.99"/>
        <path class="cls-2" d="M59.16,92.9c-11.57-1.94-21.14-.46-27.8,9.84-2.55,3.94-4.65,8.13-7.86,11.61-5.38,5.84-12.47,9.18-19.95,11.54-4.9,1.54-4.58,7.97,0,9.64,19.47,7.12,44.92,6.81,62.22-5.88,5.74-4.21,10.77-10.35,10.36-17.87-.48-8.92-8.45-14.8-15.79-18.38-5.76-2.81-10.84,5.81-5.05,8.63,4.14,2.02,11.32,5.53,10.86,11.19-.39,4.88-6.01,8.5-9.82,10.61-15.11,8.34-34.29,7.85-50.13,2.06v9.64c13.05-4.11,23.49-11,30.73-22.71,1.83-2.96,3.41-6.65,6.17-8.86,3.61-2.9,9.16-2.14,13.39-1.43,6.29,1.06,9-8.58,2.66-9.64h0Z"/>
      </g>
    </g>
  </g>
</svg>