<?xml version="1.0" encoding="UTF-8"?>
<svg id="Layer_2" data-name="Layer 2" xmlns="http://www.w3.org/2000/svg" viewBox="0 0 148.56 146.09">
  <defs>
    <style>
      .cls-1 {
        fill: #d1d3d4;
      }

      .cls-2 {
        fill: #231f20;
      }

      .cls-3 {
        fill: #939598;
      }
    </style>
  </defs>
  <g id="Layer_2-2" data-name="Layer 2">
    <g>
      <g>
        <path class="cls-1" d="M98.74,17.41L8.33,49.4c-10.6,25.06,10.5,76.57,26.67,85.16l91.56-29.21c-19.99-8.07-42.64-55.46-27.82-87.94"/>
        <path class="cls-2" d="M97.33,12.29c-16.07,5.68-32.13,11.37-48.2,17.05-10.32,3.65-20.64,7.3-30.96,10.95-3.09,1.09-6.19,2.17-9.27,3.28-3.38,1.22-5.17,2.65-6.44,6.36-4.74,13.83-1.88,30.09,2.14,43.72,4.08,13.84,10.27,28.27,20.02,39.11,2.9,3.22,7.22,7.74,11.92,6.87,1.92-.36,3.88-1.24,5.74-1.83,9.3-2.97,18.61-5.94,27.91-8.91,19.26-6.14,38.52-12.29,57.77-18.43,3.88-1.24,5.76-7.78,1.27-9.7-12.31-5.28-20.08-19.73-24.52-31.64-5.74-15.39-8.18-33.55-1.4-49.04,2.72-6.2-6.43-11.61-9.17-5.36-7.98,18.21-6.52,38.86.33,57.22,5.33,14.29,14.59,31.64,29.4,37.99l1.27-9.7c-26.72,8.53-53.44,17.05-80.16,25.58-3.8,1.21-7.6,2.42-11.4,3.64l4.09.54c-4.81-2.71-8.19-7.66-11.04-12.25-4.22-6.78-7.53-14.1-10.12-21.64-4.8-13.96-8.81-31.01-3.07-45.29l-3.71,3.71c26.39-9.34,52.77-18.67,79.16-28.01,3.75-1.33,7.51-2.66,11.26-3.98,6.4-2.26,3.64-12.52-2.82-10.24h0Z"/>
      </g>
      <path class="cls-3" d="M92.01,64.28c-.84.16-33.66,11.09-78.01,23.14,3.97,18.65,14.22,36.17,21.7,41.04l78.12-24.6c-8.38-7.49-16.25-22.14-21.81-39.58Z"/>
      <path class="cls-2" d="M97.72,22.45c4.45,1.45,7.94,6.1,10.48,9.78,4.33,6.27,7.69,13.22,10.25,20.39,5.63,15.76,8.43,33.49,3.67,49.83-1.91,6.57,8.33,9.38,10.24,2.82,5.52-18.96,2.34-39.99-4.66-58.14-4.91-12.74-12.99-30.32-27.15-34.92-6.51-2.12-9.3,8.13-2.82,10.24h0Z"/>
      <g>
        <path class="cls-2" d="M106.59,70.08s6.22.79,16.33,5.93c16.64,8.45,24.49,44.98,17.82,56.91-12.35,22.09-22.24-5.03-19.17-27.78,1.19-8.83.64-6.49-14.98-35.07"/>
        <path class="cls-2" d="M105.18,75.2c9.9,1.38,19.22,6.4,24.36,15.04,5.74,9.66,9.03,22.15,8.17,33.41-.26,3.36-1.89,11.04-5.83,12.03-1.27.32.41.26-.04.09-.61-.23-1.01-1.17-1.36-1.69-1.66-2.5-2.41-5.69-3.03-8.59-1.5-6.98-1.29-14.11-.46-21.16.28-2.39.42-4.63-.12-7.01-.73-3.2-2.46-6.21-4.02-9.06-3.84-6.98-7.84-13.88-11.67-20.87-3.28-5.99-12.46-.64-9.17,5.36,3.9,7.11,7.98,14.11,11.87,21.23.52.96,1.05,1.92,1.53,2.89.17.34.89,2.02.6,1.23.2.54.4,1.09.54,1.65.38,1.51.11-.66.12.86.02,5.54-1.15,10.94-.87,16.54.38,7.59,1.58,16.19,5.79,22.72,8.91,13.82,23.18,1.95,25.91-10.07,2.98-13.1-.69-28.13-6.23-40.05-6.24-13.42-18.37-22.72-33.26-24.79-6.68-.93-9.57,9.3-2.82,10.24h0Z"/>
      </g>
      <path class="cls-2" d="M64.08,55.86c-12.07-3.97-25.39-9.7-33.33-20.14-4-5.25-6.19-12.28-3.45-17.7s8.59-7.53,14.76-7.22c10.52.53,19.72,7.58,26.83,14.75,4.82,4.85,12.33-2.65,7.51-7.51C64.13,5.69,43.1-6.74,26.02,4.23c-14.62,9.39-12.13,27.91-2.17,39.74,9.45,11.24,23.78,17.64,37.41,22.12,6.5,2.14,9.29-8.11,2.82-10.24h0Z"/>
    </g>
  </g>
</svg>