<?xml version="1.0" encoding="UTF-8"?>
<svg id="Layer_2" data-name="Layer 2" xmlns="http://www.w3.org/2000/svg" viewBox="0 0 206.03 409.29">
  <defs>
    <style>
      .cls-1 {
        fill: #f26522;
      }

      .cls-2 {
        fill: #940f12;
      }

      .cls-3 {
        fill: #f9e3ad;
      }
    </style>
  </defs>
  <g id="Animal_Posters" data-name="Animal Posters">
    <g>
      <g>
        <path class="cls-1" d="M58.59,193.41c-7.75,51.9-3.74,105.52,11.63,155.69.6,1.97,1.21,4.14.37,6.02-.91,2.02-1.88,5.88-4.03,6.38-15.69,3.63-32.28-7.08-36.25-22.69-3.97-15.61.45-37.79,6.82-52.58-5.67-1.93-12.12.94-16.01,5.5-3.89,4.56-11.12,12.75-12.59,18.56-3.07,12.18.47,22.61,2.25,35.04,1.78,12.43,7.55,24.65,17.5,32.31,8.75,6.73,20.14,9.48,31.17,9.01,3.73-.16,7.53-.65,11.14.28s7.07,3.76,7.31,7.48c.08,1.28-.2,2.66.41,3.78,1.91,3.54,6.91-.61,10.85-1.44,4.83-1.02,10.43,3.79,14.32.77,2.29-1.78,2.52-5.5,5.02-6.97,2.44-1.43,5.94.01,8.19-1.72,2.94-2.27.61-7.09-2.43-9.23s-7.03-3.97-7.65-7.63c-.5-2.95,1.51-5.68,3.41-7.99,5.78-7.07,11.57-14.13,17.35-21.2,1.12-1.37,2.48-2.85,4.25-2.83,1.32.01,2.46.89,3.47,1.74,9.39,7.91,17.43,17.44,23.63,28.04,1.67,2.85,1.47,5.67,1.63,8.97.37,7.4-4.34,15.86.27,21.65,3.67-1.1,6.87-3.71,8.68-7.09,2.03,4.86,6.81,8.93,12.07,8.57s9.7-6.55,7.2-11.19c2.1,3.91,8.86.54,8.99-3.89s-3.32-8.03-6.24-11.36c-16.36-18.67-21.88-44.29-25.43-68.86-2.14-14.8-3.77-29.66-5.16-44.55-1.47-15.79-2.67-31.72-.99-47.5,2.5-23.44,11.25-45.72,16-68.81,4.52-21.95,5.41-44.65,2.6-66.88-1.89-14.97-4.78-32.22,5.35-43.4,3.46-3.81,8.64-8.02,6.86-12.85-1.69-4.62-8.09-4.81-12.26-7.44-2.43-1.53-4.13-3.99-6.4-5.75s-5.71-2.69-7.92-.85c-2.03,1.69-2.1,4.93-4.04,6.72-2.38,2.2-6.28,1.2-9.27,2.47-6.29,2.69-4.35,11.94-1.88,18.32,8.41,21.68,10.51,45.76,5.98,68.57-14.67-17.41-33.77-31.05-55-39.27-2.86,19.9-15.17,38.24-32.51,48.41-2.36,1.38-5.59,2.54-7.59.68-1.09-1.01-1.39-2.6-1.63-4.07-1.67-10.26-3.33-20.52-5-30.78-1.3-8-2.52-16.56.91-23.9,1.99-4.25,5.41-7.72,7.4-11.97s2.07-10.12-1.75-12.86c-1.76-1.27-4.02-1.61-5.97-2.57-6.61-3.25-11.11-13.53-17.94-10.78-4.31,1.74-5.19,7.8-9.13,10.27-1.95,1.22-4.43,1.4-6.29,2.76-3.12,2.29-3.22,7.08-1.58,10.59,1.63,3.51,4.55,6.23,6.8,9.38,6.67,9.35,7.07,21.63,7.21,33.12.13,10.97.27,21.93.4,32.9.04,3.41-.2,7.4-3.01,9.33-1.36.93-3.17,1.23-4.23,2.49-1.41,1.68-.86,4.19-.19,6.28,6.82,21.36,17.77,41.39,32.06,58.66"/>
        <path class="cls-1" d="M56.18,192.74c-2.89,19.44-4.22,39.09-3.88,58.74.34,19.64,2.31,39.26,5.84,58.58,1.76,9.63,3.92,19.19,6.48,28.64.63,2.34,1.29,4.68,1.98,7.01.63,2.13,1.57,4.35,1.86,6.56.22,1.61-.64,3.17-1.25,4.62-.25.59-.54,1.26-.93,1.79-.04.05-.34.4-.36.41.17-.13-.16.08-.17.08.47-.15-.58.07-.55.06-13.62,2.78-27.97-6.51-32.06-19.57-2.32-7.41-2.17-15.58-1.36-23.22.87-8.16,2.82-16.27,5.57-24,.59-1.67,1.23-3.33,1.92-4.96.65-1.51.19-3.13-1.49-3.67-5.86-1.88-12.1.34-16.58,4.26-1.83,1.61-3.36,3.61-4.92,5.48-1.88,2.25-3.72,4.54-5.42,6.94-1.48,2.08-2.84,4.25-3.85,6.61-1.23,2.88-1.72,6.04-2.01,9.15-.63,6.73.5,13.46,1.7,20.07,1.13,6.17,1.79,12.5,3.63,18.52,1.74,5.7,4.35,11.21,7.91,16s8.11,9.03,13.42,12.03,11.44,4.94,17.6,5.78c3.11.42,6.23.62,9.37.53,3.42-.09,7-.7,10.4-.04,2.28.44,4.63,1.54,5.83,3.63.6,1.04.56,2.04.57,3.2.01,1.64.35,3.22,1.46,4.48,4.02,4.56,9.53-1.42,13.93-1.34,2.39.05,4.68,1.18,7.01,1.63,2.75.53,5.54.32,7.69-1.66.95-.88,1.63-2.01,2.21-3.16.5-.99.95-2.33,1.81-3.04.63-.52,1.6-.53,2.43-.56,1.51-.05,3.08-.03,4.52-.57,2.74-1.03,4.36-3.62,4.02-6.53-.33-2.81-2-5.44-4.19-7.2-1.96-1.57-4.35-2.62-6.1-4.45-1.8-1.89-1.09-4.02.23-6.01,1.92-2.89,4.38-5.5,6.58-8.18,2.37-2.89,4.73-5.78,7.1-8.67,1.1-1.35,2.21-2.7,3.31-4.05,1.03-1.26,2.02-2.8,3.32-3.81.89-.69,1.45-.3,2.29.35,1.25.96,2.41,2.06,3.57,3.11,4.74,4.33,9.14,9.09,13.01,14.22,1.91,2.54,3.72,5.16,5.4,7.86.76,1.22,1.69,2.49,2.17,3.86.47,1.35.55,2.74.61,4.15.11,2.94.02,5.69-.5,8.59-.52,2.87-1.17,5.77-1.18,8.69-.02,2.82.65,5.66,2.38,7.93.66.87,1.68,1.51,2.82,1.15,4.32-1.36,7.98-4.27,10.18-8.24h-4.32c2.61,6.04,9.3,11.22,16.16,9.52,6.2-1.53,10.41-8.75,7.43-14.66l-4.32,2.52c1.92,3.3,5.88,3.57,9.01,1.9s4.99-5.02,4.54-8.58c-.56-4.54-3.72-8-6.62-11.3-2.75-3.13-5.21-6.47-7.4-10.01-9.04-14.6-13.27-31.58-16.13-48.34-3.36-19.66-5.4-39.59-7.12-59.46-.88-10.26-1.52-20.57-1.19-30.88.32-10.02,1.79-19.88,4.01-29.65,4.38-19.29,10.98-38.01,14.17-57.57,3.28-20.11,3.56-40.51.97-60.71-1.02-7.95-2.19-16.03-1.49-24.06.32-3.61,1.09-7.31,2.67-10.59,1.66-3.47,4.16-6,6.74-8.79,2.78-3.02,5.49-6.65,4.67-10.99-.73-3.84-4.01-5.92-7.37-7.27-1.44-.58-2.97-1.04-4.37-1.65-1.79-.77-3.18-1.9-4.55-3.27-3.03-3.04-6.46-6.24-11.12-5.59-2.24.31-4.05,1.64-5.18,3.58-.82,1.41-1.14,3.3-2.24,4.53s-3.09,1.1-4.54,1.26c-2,.23-4.02.58-5.72,1.76-6.09,4.24-4.38,13.04-2.3,19,1.49,4.27,3.1,8.47,4.31,12.83,1.27,4.58,2.28,9.24,3.02,13.93,1.46,9.32,1.78,18.84,1.06,28.23-.36,4.6-.99,9.16-1.88,13.68l4.18-1.1c-11.62-13.74-25.97-25.21-41.94-33.52-4.6-2.39-9.33-4.51-14.16-6.39-1.15-.45-2.89.5-3.08,1.75-1.74,11.84-6.73,23.15-14.38,32.37-3.73,4.5-8.03,8.56-12.83,11.89-2.11,1.46-4.71,3.6-7.34,3.94-1,.13-1.58-.17-1.92-1.15-.6-1.71-.7-3.67-.99-5.45-1.26-7.74-2.51-15.47-3.77-23.21-1.09-6.71-2.67-13.79-1.61-20.6.53-3.4,1.83-6.36,3.72-9.22s4.02-5.48,5.42-8.58c2.35-5.23,2.37-12.39-2.79-15.97-2.47-1.71-5.57-2.02-8.01-3.83-1.9-1.4-3.61-3.32-5.32-5.02-3.61-3.57-8.17-6.9-13.38-4.39-2.35,1.14-3.9,3.34-5.23,5.5-1.26,2.04-2.37,4.24-4.63,5.18-2.98,1.24-5.85,1.84-7.69,4.77-1.59,2.54-1.73,5.79-1.08,8.64.74,3.23,2.78,5.95,4.83,8.48,1.96,2.41,3.87,4.76,5.29,7.54,2.9,5.69,3.86,12.2,4.26,18.5.46,7.31.36,14.67.45,22,.05,3.82.09,7.64.14,11.46.05,3.68.26,7.39.08,11.07-.05,1.15-.17,2.38-.6,3.45-.47,1.17-1.27,1.77-2.39,2.3-1.26.59-2.54,1.13-3.49,2.2-1.25,1.41-1.72,3.27-1.58,5.12.25,3.33,1.72,6.64,2.84,9.75,1.15,3.2,2.41,6.35,3.74,9.48,5.42,12.78,12.35,24.93,20.6,36.1,2.02,2.73,4.11,5.41,6.27,8.02.86,1.04,2.64.89,3.54,0,1.03-1.03.86-2.49,0-3.54-8.7-10.55-16.13-22.14-22.13-34.42-2.96-6.05-5.55-12.26-7.77-18.61-.53-1.5-1.04-3.01-1.51-4.53-.32-1.02-1-2.71-.46-3.77.47-.92,1.95-1.22,2.81-1.66,1.4-.7,2.56-1.76,3.4-3.08,1.59-2.5,1.79-5.71,1.78-8.59-.02-3.94-.1-7.87-.14-11.81-.09-7.69-.17-15.39-.29-23.08-.1-6.55-.37-13.18-1.86-19.59-.75-3.22-1.85-6.38-3.36-9.33-1.48-2.9-3.49-5.4-5.54-7.91-1.82-2.21-3.8-4.65-4.21-7.59-.28-2,.13-4.2,1.97-5.28,1.31-.77,2.89-1.06,4.28-1.67s2.52-1.39,3.51-2.46c1.82-1.95,2.86-4.41,4.47-6.51.52-.68,1.17-1.34,1.96-1.73.34-.17.8-.32,1.29-.39-.39.05,1.17.11.7.02,1.09.2,1.51.45,2.49,1.11.77.52,1.63,1.3,2.44,2.07,1.77,1.69,3.41,3.52,5.28,5.1,1.02.86,2.09,1.69,3.25,2.33,1.44.8,3.02,1.26,4.56,1.84,5.34,2.02,4.11,8.35,1.79,12.33-1.72,2.96-3.95,5.58-5.63,8.57-1.74,3.1-2.69,6.45-3.12,9.96-.85,7.1.67,14.3,1.81,21.29,1.24,7.65,2.49,15.31,3.73,22.96.54,3.34.61,7.57,3.68,9.7,2.71,1.88,6.17.97,8.89-.39,5.28-2.64,10.16-6.7,14.35-10.83,8.66-8.54,15.12-19.38,18.46-31.08.8-2.8,1.4-5.64,1.82-8.52l-3.08,1.75c16.18,6.3,31.11,15.83,43.68,27.79,3.6,3.42,7,7.05,10.21,10.84,1.18,1.39,3.83.67,4.18-1.1,3.61-18.32,3.16-37.33-1.38-55.45-1.12-4.47-2.49-8.87-4.11-13.18-1.14-3.04-2.38-6.28-2.66-9.44-.07-.77-.1-1.54-.08-2.31s.05-1.08.27-1.89c.18-.68.19-.76.56-1.38.21-.35.64-.86.89-1.04,1.24-.93,2.82-1.03,4.3-1.19,2.02-.21,4.1-.45,5.81-1.65,1.82-1.27,2.64-3.09,3.48-5.06.46-1.08.95-2.42,2.24-2.63,3.63-.6,6.48,4.07,8.87,6.01,2.77,2.25,6.16,3.1,9.29,4.44,2.48,1.07,4.6,2.75,3.41,5.64-1.36,3.33-4.65,5.65-6.89,8.35-2.51,3.03-4.33,6.49-5.48,10.25-2.27,7.41-1.98,15.41-1.21,23.04.89,8.83,2.25,17.58,2.69,26.46.49,9.82.26,19.68-.66,29.47-.91,9.66-2.58,19.21-4.84,28.64-2.24,9.35-4.95,18.58-7.46,27.86s-4.77,18.42-6.17,27.83c-1.47,9.85-1.86,19.77-1.54,29.71.32,9.99,1.26,19.95,2.23,29.89.98,10.06,2.09,20.1,3.41,30.12,2.24,17.05,4.76,34.31,10.75,50.51,2.86,7.75,6.49,15.26,11.25,22.04,2.41,3.44,5.21,6.5,7.86,9.74,1.15,1.41,2.27,2.99,2.78,4.75.2.72.34,1.49.23,2.24.04-.3-.17.52-.22.63.1-.22-.3.47-.39.59-.53.72-1.46,1.31-2.4,1.56-.25.07-.64.07-.81.03-.46-.1-.15-.02-.04,0-.07-.02-.39-.26-.07,0-.36-.3-.24-.22-.38-.47-1.63-2.8-5.76-.33-4.32,2.52.74,1.46.34,3.1-.61,4.54-.98,1.5-2.65,2.69-4.46,2.9-4.47.51-8.24-3.55-9.88-7.35-.76-1.75-3.48-1.51-4.32,0-1.57,2.84-4.08,4.96-7.19,5.94l2.82,1.15c-3.3-4.32-1-10.29-.3-15.11.43-2.99.44-5.95.22-8.96-.1-1.38-.27-2.78-.72-4.09-.57-1.69-1.51-3.18-2.44-4.69-3.34-5.4-7.16-10.52-11.37-15.28-2.06-2.33-4.22-4.57-6.47-6.71-1.15-1.1-2.33-2.17-3.53-3.21s-2.38-2.18-3.79-2.88c-3.3-1.64-6.34-.02-8.53,2.56-2.34,2.75-4.58,5.59-6.87,8.39s-4.63,5.65-6.94,8.48c-2.16,2.64-4.65,5.22-6.38,8.17-1.62,2.74-2.19,5.93-.77,8.88,1.14,2.38,3.36,3.99,5.5,5.4,1.91,1.26,3.97,2.4,4.87,4.65.06.14.27.91.26.84.04.27.05.6,0,.87.06-.38-.21.38-.04.07-.36.64-1.24.78-2.08.82-2.9.15-5.78.15-7.85,2.52-.79.9-1.34,1.93-1.87,3-.45.92-.89,2.1-1.72,2.75-1.45,1.13-3.95.13-5.79-.41-2.56-.74-5.17-1.37-7.82-.76-2.37.54-4.45,1.92-6.78,2.56-.43.12-.72.18-.91.18.09,0-.16-.22,0,.04-.35-.57-.03.08-.04.03-.05-.41-.22-.73-.22-1.22,0-.88,0-1.7-.13-2.57-.98-6.33-7.66-9.22-13.36-9.5-3.32-.16-6.64.3-9.96.29-2.96,0-5.93-.23-8.84-.76-5.77-1.04-11.31-3.06-16.22-6.29-9.56-6.28-15.38-16.89-17.86-27.85-.68-3.01-1.04-6.07-1.57-9.1-.56-3.22-1.19-6.43-1.72-9.65-1.03-6.34-1.45-12.84.07-19.14,1.13-4.69,4.58-8.92,7.62-12.66,3.04-3.74,6.13-8.17,10.84-9.86,2.37-.85,4.75-1.03,7.17-.25-.5-1.22-1-2.45-1.49-3.67-3.34,7.81-5.74,16-7.18,24.37-1.47,8.56-2.07,17.34-.74,25.96,1.2,7.74,4.69,14.84,10.47,20.19,5.69,5.27,13.03,8.6,20.78,9.15,1.83.13,3.68.08,5.5-.15,2.01-.25,4.18-.43,5.7-1.9,1.37-1.33,2.08-3.21,2.76-4.95s1.42-3.42,1.16-5.7c-.28-2.43-1.18-4.77-1.87-7.1-.73-2.48-1.43-4.97-2.11-7.46-1.33-4.91-2.55-9.86-3.67-14.82-4.45-19.81-7.16-39.99-8.12-60.26-.97-20.34-.19-40.76,2.35-60.96.3-2.42.64-4.84,1-7.25.2-1.33-.33-2.69-1.75-3.08-1.18-.32-2.88.4-3.08,1.75h0Z"/>
      </g>
      <g id="At8ASf">
        <g>
          <path class="cls-2" d="M194.14,400.14c-1.7,0-3.49-.35-5.28-1.09-1.79-.73-2.65-2.77-1.92-4.56.73-1.79,2.77-2.65,4.56-1.92,2.84,1.16,5.15.53,6.49-1.77,2.37-4.06.91-11.54-6.47-17.41-12.63-10.05-16.58-25.51-20.39-40.46-.85-3.34-1.66-6.5-2.56-9.61-13.65-50.2-13.47-104.54.51-157.21.75-2.58,1.52-5.07,2.29-7.57,1.23-4.01,2.51-8.15,3.59-12.22,6.03-22.04,4.35-45.41,2.74-68-.29-4.12-.6-8.37-.85-12.54-.78-9.31,1.11-18.09,5.46-25.31.77-1.37,1.63-2.78,2.46-4.14,2.07-3.37,4.2-6.85,4.83-9.72.81-3.62-1.43-7.17-3.97-8.38-2.02-.97-3.89-.39-5.56,1.7-1.21,1.51-3.41,1.76-4.92.56-1.51-1.21-1.76-3.41-.56-4.92,3.7-4.63,9.08-6.04,14.06-3.66,5.87,2.81,9.22,9.78,7.79,16.22-.89,4.01-3.33,8-5.7,11.86-.84,1.38-1.64,2.67-2.35,3.94-.02.04-.04.07-.06.11-3.61,5.96-5.17,13.31-4.5,21.24.26,4.21.56,8.45.85,12.55,1.66,23.18,3.38,47.15-2.96,70.32-1.11,4.18-2.4,8.39-3.66,12.46-.76,2.46-1.52,4.92-2.24,7.39-13.64,51.4-13.83,104.48-.51,153.44.92,3.17,1.78,6.53,2.61,9.78,3.53,13.83,7.17,28.13,17.96,36.72,10.58,8.41,12.11,19.66,8.15,26.42-2.21,3.77-5.82,5.81-9.9,5.81Z"/>
          <path class="cls-2" d="M58.48,392.14c-11.09,0-21.83-3.4-31.26-10.06C11.19,370.75,1.03,351.57.05,330.77c-.47-11.35,2.24-22.62,7.85-32.62,9.83-17.79,20.59-20.7,24.76-21.12,6.03-.51,10.74,2.58,11.81,7.68.01.05.02.11.03.16,1.04,6.44-2.6,12.41-5.8,17.67-1.25,2.06-2.44,4.01-3.33,5.9-.02.04-.04.09-.07.13-7.51,14.33-3.73,34.21,8.27,43.41,13.04,10.56,29.44,4.29,39.95-6.57.02-.02.05-.05.07-.07,9.33-9.12,15.04-20.5,19.39-30.44.78-1.77,2.84-2.58,4.61-1.8,1.77.77,2.58,2.84,1.8,4.61-4.61,10.54-10.7,22.65-20.87,32.6-6.68,6.9-14.88,11.65-23.08,13.39-9.61,2.03-18.67-.12-26.2-6.22-14.44-11.07-19.12-34.93-10.17-52.09,1.05-2.21,2.37-4.39,3.66-6.49,2.81-4.6,5.46-8.96,4.88-12.83-.42-1.76-2.49-2.23-4.29-2.08-7.48.76-14.88,9.57-19.3,17.56-4.98,8.89-7.39,18.87-6.97,28.9.88,18.64,9.93,35.8,24.21,45.89,12.27,8.67,27.12,11,41.81,6.56,19.37-5.31,33.18-20.89,46.54-35.97,3.11-3.51,6.33-7.14,9.53-10.54,1.33-1.41,3.54-1.47,4.95-.15,1.41,1.33,1.47,3.54.15,4.95-3.13,3.32-6.17,6.75-9.39,10.38-14.04,15.84-28.55,32.21-49.84,38.05-5.51,1.67-11.06,2.49-16.52,2.49Z"/>
          <path class="cls-2" d="M70.68,361.31c-1.43,0-2.77-.88-3.29-2.3-10.61-28.92-16.33-62.79-17.49-103.53,0-2.93-.02-5.77-.04-8.62-.12-18.15-.24-36.92,4.42-54.93.48-1.87,2.4-3,4.27-2.51,1.87.48,3,2.39,2.51,4.27-4.43,17.12-4.31,35.43-4.2,53.13.02,2.86.04,5.71.04,8.56,1.13,39.88,6.72,73.03,17.06,101.22.67,1.81-.27,3.83-2.08,4.49-.4.15-.8.21-1.21.21Z"/>
          <path class="cls-2" d="M154.68,106.81c-.16,0-.31,0-.47-.03-1.92-.26-3.26-2.02-3-3.94,2.48-18.32,4.42-37.74-1.32-56-.9-2.38-2.23-4.72-3.63-7.2-2.97-5.25-6.33-11.21-5.54-18.33,0-.06.02-.13.03-.19.8-4.8,5.07-10.68,10.57-11.8,2.42-.5,7.06-.45,10.84,5.46,1.04,1.63.57,3.79-1.06,4.83-1.63,1.04-3.79.57-4.83-1.06-1.75-2.74-3.1-2.46-3.54-2.38-2.09.43-4.57,3.39-5.05,6.01-.5,4.84,2.02,9.29,4.69,14.01,1.49,2.63,3.02,5.35,4.12,8.27.02.06.04.12.06.17,6.21,19.66,4.2,39.99,1.61,59.13-.24,1.76-1.74,3.03-3.46,3.03Z"/>
          <path class="cls-2" d="M30.02,125.22c-.07,0-.14,0-.21,0-1.93-.11-3.4-1.77-3.29-3.7.62-10.63.87-23.57.76-38.47-.03-1.39-.04-2.86-.04-4.34-.02-5.44-.04-11.07-1.7-15.45-1.3-3.7-3.81-6.84-6.48-10.17-2.13-2.66-4.33-5.4-5.99-8.54-.02-.04-.04-.08-.06-.12-3.82-7.91-.54-16.42,4.48-20.4,4.57-3.63,10.23-3.6,14.78.07,1.5,1.21,1.74,3.42.53,4.92-1.21,1.5-3.42,1.74-4.92.53-2-1.61-4.03-1.63-6.04-.04-2.92,2.32-4.66,7.37-2.55,11.82,1.35,2.53,3.24,4.89,5.23,7.38,2.92,3.64,5.93,7.4,7.59,12.15,2.09,5.48,2.11,11.76,2.13,17.82,0,1.43,0,2.85.04,4.25.11,15.11-.14,28.21-.77,38.99-.11,1.86-1.65,3.3-3.49,3.3Z"/>
          <path class="cls-2" d="M61.71,118.21c-.9,0-1.79-.34-2.47-1.02-1.37-1.37-1.37-3.58,0-4.95,10-10.01,25.74-26.32,28.1-30.25,1.86-2.99,2.95-6.49,3.78-9.52.01-.05.03-.11.05-.16.23-.69.43-1.46.64-2.25,1.07-3.99,2.69-10.01,8.46-11.31.08-.02.17-.03.25-.05,5.02-.74,9.76,2.69,13.22,5.2l.69.5c3.55,2.66,6.89,5.2,10.19,7.72,2.55,1.94,5.07,3.87,7.64,5.8,10.73,7.74,18.74,15.13,25.16,23.21,1.2,1.51.95,3.72-.56,4.92-1.51,1.2-3.71.95-4.92-.56-6.01-7.56-13.58-14.53-23.83-21.93-2.64-1.99-5.17-3.92-7.73-5.87-3.29-2.5-6.6-5.03-10.08-7.63l-.66-.47c-2.3-1.66-5.77-4.15-7.96-3.96-1.45.45-2.24,2.99-3.12,6.26-.22.84-.46,1.7-.72,2.51-.96,3.5-2.25,7.57-4.54,11.25-3.53,5.87-26.51,28.93-29.12,31.54-.68.68-1.58,1.03-2.48,1.03Z"/>
          <path class="cls-2" d="M52.3,126.31c-.12,0-.25,0-.37-.02-8.93-.95-26.54-.1-26.72-.09-1.9.1-3.57-1.39-3.67-3.32-.09-1.93,1.39-3.57,3.32-3.67.71-.03,16.57-.8,26.28-.02l7.13-6.13c.04-5.86-1.67-16.35-3.05-22.28,0-.04-.02-.09-.03-.13l-.19-.97c-1.91-9.85-4.07-21.02-1.16-30.98,1.16-4.28,3.46-8.04,5.68-11.69,1.66-2.72,3.22-5.29,4.22-7.91.02-.04.03-.08.05-.12,1.04-2.44.38-5.89-1.49-7.86-1.63-1.71-3.19-1.13-3.7-.94-2.47.97-3.97,3.55-4.39,7.65-.2,1.92-1.91,3.33-3.84,3.12-1.92-.2-3.32-1.92-3.12-3.84.89-8.61,5.31-12.08,8.86-13.47,4.06-1.51,8.25-.51,11.27,2.65,3.76,3.94,4.97,10.39,2.9,15.36-1.23,3.2-3.02,6.15-4.76,9-2.06,3.38-4,6.57-4.92,9.95-2.45,8.4-.54,18.24,1.3,27.75l.17.9c1.55,6.64,3.61,19.34,3.15,25.72-.07.93-.5,1.79-1.21,2.4l-9.41,8.1c-.64.55-1.45.85-2.28.85Z"/>
          <path class="cls-2" d="M74.18,205.31c-.56,0-1.13-.14-1.66-.42-15.29-8.25-27.17-20-35.29-34.92-3.03-5.32-5.6-10.99-8.08-16.47-1.94-4.28-3.95-8.71-6.15-12.88-.41-.79-.89-1.65-1.41-2.57-2.89-5.12-6.16-10.92-3.69-15.3.88-1.55,2.81-3.42,7.04-3.54.03,0,.07,0,.1,0,1.89,0,3.44,1.5,3.5,3.4.05,1.93-1.47,3.54-3.4,3.6-.56.02-.92.08-1.12.14-.02,1.73,2.54,6.26,3.67,8.26.57,1.01,1.1,1.96,1.53,2.78,2.28,4.32,4.33,8.85,6.31,13.23,2.42,5.33,4.92,10.85,7.82,15.95,7.5,13.77,18.42,24.58,32.5,32.17,1.7.92,2.34,3.04,1.42,4.74-.63,1.17-1.84,1.84-3.08,1.84Z"/>
          <path class="cls-2" d="M161.63,407.43c-.56,0-1.12-.05-1.67-.14-3.08-.53-5.7-2.43-7.19-5.22-2.55-4.68-1.88-9.73-1.28-14.18.24-1.79.47-3.48.48-5.03,0-.06,0-.13,0-.19.26-4.36-1.26-8.9-4.67-13.87-.02-.03-.04-.06-.06-.09-8.85-13.78-18.36-27.79-18.46-27.93-1.09-1.6-.67-3.78.93-4.86,1.6-1.09,3.78-.67,4.86.93.1.14,9.64,14.2,18.53,28.04,4.22,6.17,6.19,12.26,5.86,18.11-.02,1.96-.28,3.92-.54,5.82-.5,3.72-.97,7.23.5,9.92.48.9,1.29,1.49,2.23,1.65.62.11,1.55.06,2.45-.75,2.15-1.92,3.05-5.12,4-8.51l.21-.76c.53-1.86,2.46-2.94,4.32-2.42,1.86.53,2.94,2.46,2.42,4.32l-.21.74c-1.12,4.02-2.4,8.57-6.06,11.83-1.85,1.68-4.21,2.59-6.65,2.59Z"/>
          <path class="cls-2" d="M114.67,396.12c-.62,0-1.26-.05-1.9-.16-5.07-.73-8.89-4.25-11.96-7.07-1.42-1.31-1.51-3.52-.21-4.95,1.31-1.42,3.52-1.51,4.95-.21,2.49,2.29,5.31,4.88,8.24,5.3.03,0,.07,0,.1.02,1.65.28,2.63-.38,3.16-.99.86-1,1.1-2.47.63-3.93-.02-.06-.04-.12-.05-.17-1.4-5.25-8.08-10.1-12.51-13.32-1.56-1.14-1.91-3.33-.77-4.89,1.14-1.56,3.33-1.91,4.89-.77,5.21,3.78,13.06,9.49,15.13,17.1,1.19,3.78.43,7.73-2.03,10.57-1.95,2.25-4.68,3.47-7.68,3.47Z"/>
          <path class="cls-2" d="M82.58,408.16c-3.28,0-6.39-1.61-8.48-4.41-3.41-4.27-4.14-10.59-4.42-16.78-.09-1.93,1.41-3.57,3.34-3.65.05,0,.11,0,.16,0,1.86,0,3.41,1.46,3.49,3.34.22,4.79.73,10.06,2.92,12.76.04.04.07.09.1.14.82,1.12,1.93,1.71,3.13,1.6,1.17-.1,2.19-.87,2.82-2.11.02-.05.05-.09.07-.14,1.29-2.31,1.62-5.53,1.94-8.63l.03-.32c.2-1.92,1.91-3.32,3.84-3.12,1.92.2,3.32,1.92,3.12,3.84l-.03.32c-.37,3.61-.8,7.71-2.76,11.26-1.72,3.38-4.88,5.58-8.45,5.88-.28.02-.56.04-.84.04Z"/>
          <path class="cls-2" d="M181.05,409.29c-.21,0-.42,0-.62-.02-2.44-.11-10.91-1.2-14.46-10.69-.68-1.81.24-3.83,2.05-4.5,1.82-.68,3.83.24,4.5,2.05,1.92,5.12,6.01,6.05,8.29,6.15,1.15.08,2.55-.53,3.73-1.58,1.3-1.16,2.15-2.67,2.21-3.94.07-1.21-.06-4.65-1.5-6.68-1.12-1.58-.74-3.76.84-4.88,1.58-1.12,3.76-.74,4.88.84,3.12,4.42,2.81,10.44,2.76,11.12-.15,3.1-1.8,6.32-4.54,8.76-2.42,2.16-5.36,3.37-8.15,3.37Z"/>
          <path class="cls-2" d="M99.75,406.98c-3.86,0-7.99-1.84-11.79-5.34-1.42-1.31-1.51-3.52-.2-4.95,1.31-1.42,3.53-1.51,4.95-.2,3.13,2.89,6.26,4.07,8.57,3.23,2.36-.85,4.05-3.81,4.63-8.12.26-1.92,2.03-3.27,3.93-3,1.92.26,3.26,2.02,3,3.93-.93,6.99-4.28,12.01-9.19,13.78-1.25.45-2.56.67-3.9.67Z"/>
          <path class="cls-2" d="M32.18,39.81c-1.54,0-2.95-1.02-3.38-2.58-1.52-5.57-2.6-11.51-.22-17.17,2.46-6.2,9.77-9.62,15.94-7.41,7.21,2.59,11.21,10.31,11.97,16.81.22,1.92-1.15,3.66-3.07,3.88-1.93.22-3.66-1.15-3.88-3.07-.49-4.21-3.01-9.47-7.38-11.03-2.62-.94-6,.71-7.09,3.47-1.5,3.56-.89,7.63.49,12.67.51,1.87-.59,3.79-2.46,4.3-.31.08-.62.12-.92.12Z"/>
          <path class="cls-2" d="M159.68,31.81c-1.82,0-3.35-1.4-3.49-3.25l-.11-1.42c-.63-8.28-1.5-19.62,7.18-25.56.03-.02.07-.04.1-.07,2.7-1.72,5.89-1.99,8.97-.76,3.65,1.46,6.54,4.77,7.56,8.67,1.93,6.36.49,12.86-.79,18.59-.42,1.89-2.29,3.1-4.18,2.68-1.89-.42-3.08-2.26-2.66-4.15,1.16-5.21,2.34-10.53.92-15.15-.02-.06-.03-.11-.05-.17-.43-1.72-1.83-3.35-3.39-3.97-1.38-.55-2.25-.07-2.58.14-5.3,3.68-4.67,11.93-4.11,19.21l.11,1.45c.14,1.93-1.31,3.61-3.24,3.75-.09,0-.17,0-.26,0Z"/>
          <path class="cls-2" d="M113.98,163.35c-1.51,0-2.95-.3-4.13-.75-2.73-1.02-4.58-2.84-5.08-5-1.13-4.85,4.8-8.47,6.75-9.67,2.31-1.41,5.8-3.54,8.96-1.62h0c1.87,1.13,3.01,3.43,3.13,6.33.12,2.86-.88,6.73-4.01,8.99-1.74,1.25-3.73,1.72-5.62,1.72ZM112.25,156.04c.95.36,2.38.54,3.26-.09.82-.59,1.11-1.89,1.11-2.89-.52.28-1.07.62-1.45.85-1.51.92-2.4,1.63-2.92,2.12Z"/>
        </g>
      </g>
      <g>
        <circle class="cls-3" cx="72.14" cy="154.79" r="20.28"/>
        <path class="cls-2" d="M72.14,178.57c-13.11,0-23.78-10.67-23.78-23.78s10.67-23.78,23.78-23.78,23.78,10.67,23.78,23.78-10.67,23.78-23.78,23.78ZM72.14,138.01c-9.25,0-16.78,7.53-16.78,16.78s7.53,16.78,16.78,16.78,16.78-7.53,16.78-16.78-7.53-16.78-16.78-16.78Z"/>
      </g>
      <g>
        <circle class="cls-3" cx="125.3" cy="115.98" r="20.28"/>
        <path class="cls-2" d="M125.3,139.76c-13.11,0-23.78-10.67-23.78-23.78s10.67-23.78,23.78-23.78,23.78,10.67,23.78,23.78-10.67,23.78-23.78,23.78ZM125.3,99.2c-9.25,0-16.78,7.53-16.78,16.78s7.53,16.78,16.78,16.78,16.78-7.53,16.78-16.78-7.53-16.78-16.78-16.78Z"/>
      </g>
      <g>
        <circle class="cls-2" cx="72.14" cy="155.09" r="6.03"/>
        <path class="cls-2" d="M72.14,164.62c-5.25,0-9.53-4.27-9.53-9.53s4.27-9.53,9.53-9.53,9.53,4.27,9.53,9.53-4.27,9.53-9.53,9.53ZM72.14,152.56c-1.39,0-2.53,1.13-2.53,2.53s1.13,2.53,2.53,2.53,2.53-1.13,2.53-2.53-1.13-2.53-2.53-2.53Z"/>
      </g>
      <g>
        <circle class="cls-2" cx="125.3" cy="115.98" r="6.03"/>
        <path class="cls-2" d="M125.3,125.5c-5.25,0-9.53-4.27-9.53-9.53s4.27-9.53,9.53-9.53,9.53,4.27,9.53,9.53-4.27,9.53-9.53,9.53ZM125.3,113.45c-1.39,0-2.53,1.13-2.53,2.53s1.13,2.53,2.53,2.53,2.53-1.13,2.53-2.53-1.13-2.53-2.53-2.53Z"/>
      </g>
    </g>
  </g>
</svg>