<?xml version="1.0" encoding="UTF-8"?>
<svg id="Layer_2" data-name="Layer 2" xmlns="http://www.w3.org/2000/svg" viewBox="0 0 135.14 146.94">
  <defs>
    <style>
      .cls-1 {
        fill: #d1d3d4;
      }

      .cls-2 {
        stroke: #000;
        stroke-miterlimit: 10;
        stroke-width: 4px;
      }

      .cls-3 {
        fill: #939598;
      }
    </style>
  </defs>
  <g id="Animal_Posters" data-name="Animal Posters">
    <g id="Layer_1-2" data-name="Layer 1">
      <g>
        <g>
          <path class="cls-3" d="M121.16,24.62c1.15.58,2.38,1.24,2.97,2.4s2.78,2.97,1.49,3.13c-.44.06-3.61-.12-4.03,0-.74.22-1.03,1.08-1.21,1.83-8.18,32.94-12.78,66.77-13.7,100.69-.06,2.37-.38,5.19-2.48,6.28-.77.4-1.65.48-2.51.52-7.65.4-15.28-1.61-22.93-1.3-4.3.17-8.53,1.07-12.81,1.54-5.71.63-11.48.5-17.23.36-5.52-.13-11.04-.26-16.55-.39-1.27-.03-2.69-.12-3.58-1.03-.68-.69-.89-1.7-1.08-2.65-1.08-5.62-2.16-11.24-3.24-16.85-.92-4.77-1.84-9.56-2.15-14.42-.41-6.31.22-12.66-.26-18.96-.6-8.07-2.98-15.88-4.71-23.79-.61-2.8-1.14-5.65-1.05-8.52.1-3.02.89-5.98,1.11-8.99s-.24-6.28-2.25-8.53c-1.99-2.22-5.48-3.58-5.73-6.55-.15-1.82,1.14-3.52,2.75-4.4s3.48-1.1,5.3-1.31c7.55-.83,15.12-1.53,22.71-1.77,2.47-.08,5.21-.22,6.95-1.98s1.07-5.62-1.4-5.65c4.4-3.88,10.3-5.71,16.14-6.19s11.71.31,17.52,1.08c1.88.25,3.78.51,5.53,1.24,2.81,1.17,4.26,6.5,6.92,7.96,4.67,2.58,11.94,3.62,17.81,1.75,5.32-1.7,9.5.46,14.53,2.87"/>
          <path class="cls-3" d="M119.9,26.78c1.06.54,1.66.94,2.32,1.91.33.48.71.93,1.08,1.39.25.31,0,.14.27.34.33.25,0-.17.05.07v-1.33l.16-.38.9-.9c1.31-.75,1.08-.13.67-.22-.14-.03-.33,0-.47,0-.38,0-.75-.02-1.13-.03-.88-.02-1.86-.12-2.72.1-2.94.75-3.26,4.44-3.85,6.89-1.47,6.13-2.83,12.29-4.05,18.47-2.43,12.27-4.37,24.63-5.84,37.05s-2.46,25.1-2.93,37.69c-.09,2.42.17,5.12-.45,7.49-.17.65-.37,1.22-.94,1.48-1.17.54-3.12.25-4.36.22-6.15-.13-12.23-1.4-18.39-1.38s-12.41,1.61-18.66,1.92-12.6.02-18.9-.13c-3.16-.07-6.33-.15-9.49-.22-.63-.01-2.26.21-2.76-.29-.56-.56-.6-2.29-.74-3.02-1.2-6.25-2.44-12.5-3.6-18.75s-1.64-12.34-1.55-18.67c.08-6.3-.06-12.44-1.2-18.66s-2.82-11.9-4.03-17.9c-.61-3.03-.85-6.03-.42-9.1.4-2.86,1.06-5.72.9-8.63-.15-2.58-.8-5.13-2.37-7.22-1.42-1.88-3.56-2.91-5.08-4.67-.37-.43-.64-.79-.58-1.32.12-.96,1.09-1.67,1.9-2.03,2.49-1.09,5.69-1,8.34-1.27,6.25-.63,12.5-1.02,18.78-1.31,2.7-.12,5.43-.52,7.56-2.32,1.79-1.52,2.46-4.01,1.93-6.27s-2.33-3.86-4.69-4.01l1.77,4.27c4.02-3.47,9.4-5.08,14.61-5.47,3.33-.25,6.67-.1,9.99.22,3.07.29,6.19.6,9.22,1.19.94.18,2.33.45,2.95.92.57.43,1.11,1.25,1.58,1.98,1.13,1.74,2.16,3.68,3.8,5,1.95,1.56,4.64,2.4,7.04,2.96,2.69.62,5.5.89,8.25.68,1.68-.13,3.37-.39,4.99-.86,1.46-.42,2.79-.71,4.32-.61,3.06.2,5.95,1.81,8.66,3.11,1.22.58,2.7.33,3.42-.9.64-1.09.33-2.83-.9-3.42-2.8-1.34-5.66-2.84-8.74-3.46-1.48-.3-2.98-.44-4.49-.3-1.59.15-3.03.64-4.57,1-2.61.62-5.43.67-8.08.23-1.28-.21-2.54-.52-3.77-.93-.49-.16-.98-.34-1.45-.55-.21-.1-.43-.2-.64-.3-.11-.06-.98-.54-.73-.36-1.52-1.13-2.36-3.25-3.52-4.85-1.67-2.3-3.59-3.48-6.39-4.08-3.27-.7-6.68-1.01-10.01-1.36s-6.82-.56-10.23-.37c-6.87.4-13.61,2.43-18.88,6.99-1.76,1.52-.22,4.14,1.77,4.27-.12,0-.61-.03-.11,0-.1,0-.2-.17-.24-.23.38.54-.06-.34.16.31.02.05.1.47.05.11.07.52,0,.73-.07.93.12-.29-.04.1-.06.13-.15.25-.05.19-.43.42-2.09,1.27-4.97.94-7.31,1.05-6.68.3-13.34.92-19.99,1.65-3.03.33-6.19.74-8.51,2.93-2.13,2.02-2.91,5.05-1.65,7.75,1,2.16,3.04,3.37,4.78,4.86s2.54,3.51,2.62,5.87c.1,3.03-.68,6-1.01,9-.37,3.33.08,6.65.75,9.91,1.29,6.3,3.11,12.49,4.19,18.83s.77,13.01.79,19.57,1.06,13.01,2.3,19.46c.65,3.37,1.3,6.74,1.95,10.11.29,1.52.59,3.05.88,4.57s.45,3.02,1,4.41c1.21,3.09,4.07,3.69,7.07,3.77,3.41.08,6.82.16,10.22.24,6.54.15,13.1.47,19.64.07s12.99-2.07,19.59-1.84,12.86,1.62,19.35,1.32c3.2-.15,5.74-1.32,6.95-4.43.95-2.44.78-5.23.87-7.79.44-13.16,1.43-26.31,2.97-39.39,1.53-13.02,3.64-25.97,6.27-38.81,1.29-6.31,2.57-12.7,4.28-18.91l.09-.32c.16-.41.14-.43-.05-.07l-1.03.38h.15c.34.05.77-.02,1.12-.01.82.01,1.65.09,2.47.04,1.32-.08,2.52-.76,2.88-2.11s-.42-2.53-1.24-3.57c-.6-.76-.93-1.46-1.66-2.31-.83-.97-1.97-1.63-3.09-2.2-2.86-1.46-5.39,2.85-2.52,4.32h0Z"/>
        </g>
        <path class="cls-1" d="M66.98,22.39s.29,16.73-.09,25.7c-.25,5.97-1.17,11.88-1.38,17.85-.24,6.79.43,13.57.73,20.36.25,5.69.23,11.39.22,17.09-.03,11.9-.07,23.79-.1,35.69,0,.22,0,.46-.13.63-.13.18-.35.23-.56.27-10.23,1.97-20.71,2.24-31.01.79-2.41-.34-4.82-.78-7.18-1.43-.61-.17-1.24-.37-1.66-.9-.44-.55-.54-1.33-.63-2.06-2.21-18.87-4.41-37.73-6.62-56.6C16.32,60.58.22,19.42,16.61,21.91c16.79.16,33.58.32,50.37.48"/>
        <g id="RgbpBi.tif">
          <g>
            <path class="cls-2" d="M132.85,26.81c.23,1.15.29,2.33.29,3.51.02,2.91-.21,6.09-3.37,6.66-1.88.51-4.38-.12-5.38,1.49-.32.55-.4,1.24-.49,1.89-.22,2.18-.34,4.99-.57,7.3-1.65,11.4-2.54,22.73-3.54,34.3-.35,3.17-1.18,6.23-1.46,9.41-.24,2.87-.26,5.79-.55,8.66-.3,2.72-.95,5.29-1.3,8.04-.2,1.69-.33,3.43-.48,5.13-.47,6.09-1.14,12.05-1.71,18.1-.45,3.93-.18,8.75-3.64,11.44-1.86,1.39-3.56,2.07-5.58,2.2-7.08-.03-48.58.05-63.14,0-4.74,0-8.47,0-10.52,0-1.74.13-3.54-.33-5.16-1.14-3.41-1.55-4.21-4.45-4.55-7.82-.29-2.62-.72-5.11-.99-7.78-.34-4.07-.59-8.16-1.42-12.17-.69-3.8-.59-7.74-.95-11.57-.27-2.66-.89-5.17-1.19-7.81-.32-3.13-.36-6.36-.64-9.46-1.69-12.08-2.52-24.48-4.12-36.44-.51-3.31-.81-6.45-1.05-9.82-.24-3.44-1.72-3.52-5.01-3.78-1.29-.16-2.63-.62-3.33-1.76-.79-1.29-.97-2.92-.97-4.42.08-4.88,1.53-9,5.45-11.69,3.74-2.45,8.08-2.98,12.49-2.82,5.76-.03,14.64.07,20.68-.05,2.03-.15,1.57-2.62,1.94-4.07.23-1.45.76-2.86,1.68-4.03,2.87-3.64,7.48-5.6,12.04-5.91,5.59-.49,13.43-.43,19.5-.18,7.18.12,14.94,2.33,16.93,9.96.52,1.6.13,3.91,1.99,4.21,6.25.17,16.99.01,22.04.06,6.99-.27,14.6,3.07,16.08,10.33v.07ZM87.33,12.29c-1.43-4.51-6.91-5.66-11.18-5.71-6.56-.19-14.54-.53-21.02.33-3.84.55-7.26,3.42-7.6,7.26-.1,1.23-.06,2.22,1.11,2.26,4.06.02,16.49,0,22.68,0,5.63,0,9.56,0,13.86,0,1.25,0,1.98.09,2.32-.53.51-1.1.2-2.41-.13-3.56l-.02-.06ZM127.3,26.65c-.73-2.83-3.84-4.8-6.3-5.59-9.1-.63-95.39-.04-104.49-.24-2.41.02-5.66,1.34-7.41,3.53-1.12,1.36-1.43,3.08-1.54,4.82-.06,1.33-.02,2.52.05,3.11.08.45.11.56.44.58,21.14,0,77.98,0,103.04,0,8.75-.1,14.44.2,16.26-.11.22-.25.26-1.03.28-1.46.04-1.16.11-3.05-.31-4.58l-.02-.06ZM16.6,37.78c0,2.61.38,6.43.56,9.43.18,2.79.69,5.05,1.05,7.68.37,2.68.45,5.5.66,8.24.24,2.82.94,5.49,1.23,8.29.26,2.88.31,5.88.55,8.77.25,2.55.79,4.92,1.06,7.42,1.53,16.05,3.34,31.94,4.93,48.01.42,2.82,2.29,5.14,5.29,4.9,7.92,0,53.77,0,71.96,0,2.49.15,4.01-1.86,4.57-4.37.4-2,.4-4.09.55-6.12.21-3.65,1.22-6.87,1.4-10.55.17-2.5.23-5.03.45-7.52.26-2.59.88-5.01,1.18-7.58.33-3.18.36-6.45.64-9.6.29-3.33.94-6.64,1.28-9.99.99-9.55,1.75-19.01,3.11-28.36.77-5,.99-11.62,1.42-16.51.06-.66.08-1.32.1-1.94,0-.47-.08-.63-.24-.69-7.61-.12-76.83,0-101.37-.03-.28.03-.36.14-.4.49v.02Z"/>
            <path class="cls-2" d="M66.12,50.84c-.63.09-.95.25-.92.8,0,1.79,0,6.9,0,13.68,0,16.88,0,40.67,0,57.36,0,1.61,0,2.8,0,3.48-.02.36.22.62.6.69.89.21,2.81.21,3.65-.02.32-.08.54-.28.54-.61-.14-6.98.31-68.03-.16-75.12-.64-.51-2.48-.38-3.68-.29h-.04Z"/>
            <path class="cls-2" d="M97.83,51.13c-.63.01-.97.13-1.02.69-.22,1.77-.85,6.85-1.68,13.59-2.07,16.76-4.99,40.38-7.04,56.95-.2,1.6-.35,2.78-.42,3.46-.06.36.14.64.51.75.85.32,2.77.54,3.63.41.33-.05.57-.21.61-.54.72-6.95,8.65-67.5,9.07-74.59-.57-.58-2.41-.66-3.61-.71h-.04Z"/>
            <path class="cls-2" d="M37.73,51.13c.63.01.97.13,1.02.69.22,1.77.85,6.85,1.68,13.59,2.07,16.76,4.99,40.38,7.04,56.95.2,1.6.35,2.78.42,3.46.06.36-.14.64-.51.75-.85.32-2.77.54-3.63.41-.33-.05-.57-.21-.61-.54-.72-6.95-8.65-67.5-9.07-74.59.57-.58,2.41-.66,3.61-.71h.04Z"/>
          </g>
        </g>
      </g>
    </g>
  </g>
</svg>