<?xml version="1.0" encoding="UTF-8"?>
<svg id="Layer_2" data-name="Layer 2" xmlns="http://www.w3.org/2000/svg" viewBox="0 0 387.85 155.62">
  <defs>
    <style>
      .cls-1 {
        fill: #87c8cb;
      }

      .cls-2 {
        fill: #fff5da;
      }
    </style>
  </defs>
  <g id="Layer_1-2" data-name="Layer 1">
    <g>
      <path class="cls-2" d="M150.1,147.82l203.1.23c13.03.02,23.74-10.25,28.04-22.24,12.07-33.65-45.71-58.95-62.81-34.54-5.77,8.23,6.73,13.72,14.39,11.83,37.91-9.34,15.06-67.62-27.52-74.86-61.06-10.38-90.33,18.83-87.27,44.24,1.15,9.58,19.58,8.12,20.95-3.06,3.44-28.11-34.32-82.6-122.16-58.39C49.55,29.58,42.66,80.48,58.94,98.16c13.71,14.89,34.31-2.01,14.3-13.59-25.19-14.58-69.42,1.43-68.19,37.99.59,17.48,20.83,28.63,38.9,28.14l106.15-2.88"/>
      <path class="cls-1" d="M150.1,152.82c28.87.03,57.74.06,86.62.1,36.99.04,73.99.08,110.98.12,3.71,0,7.42.14,11.09-.53,14.95-2.76,26.88-17.16,28.8-31.93,3.13-24.12-21.82-41.43-43.22-43.75-10.41-1.13-21.78,1.48-28.68,9.86-10.81,13.13,5.68,24.09,18.47,21.24,10.37-2.31,19.08-9.87,21.84-20.24s-.25-22.2-5.35-31.69c-5.94-11.06-15.39-20.53-26.47-26.44-14-7.46-31.14-8.91-46.75-8.4-24.06.78-52.35,9.83-62,34.21-3.15,7.95-5.36,21.35,3.48,26.49,10.5,6.1,24.12-1.58,25.17-13.23,1.52-16.96-8.67-34.04-20.62-45.21C204.43,5.61,177.95-1.01,152.43.12c-30.94,1.37-65.93,11.26-87.79,34.41-13.27,14.05-22.25,35.04-16.34,54.39,2.95,9.65,10.26,18.9,20.94,19.95,13.29,1.31,22.74-12.59,13.24-23.32-8.28-9.36-23.29-12.21-35.19-11.13-12.51,1.14-24.75,6.08-33.85,14.89C4.02,98.43-1.31,111.95.28,125.08c1.81,14.99,15.32,25.07,29.05,28.81,6.91,1.88,13.77,1.84,20.82,1.65l25.53-.69c20.8-.56,41.6-1.13,62.4-1.69,4-.11,8.01-.22,12.01-.33,6.42-.17,6.45-10.18,0-10-29.48.8-58.95,1.6-88.43,2.4-13.93.38-28.24,2.15-40.66-5.81-11-7.05-13.29-19.24-8.67-31.02,3.79-9.65,12.2-16.86,21.68-20.69,9.59-3.87,20.61-4.75,30.51-1.57,3.71,1.19,12.32,4.47,12.04,9.29-.25,4.15-6.63,3.89-9.23,2.79-13.73-5.79-12.01-26.89-7.54-38.3,8.38-21.37,29.82-34.72,50.67-41.72,25.74-8.64,55.15-12.04,81.17-2.67,16.34,5.89,30.83,17.55,38.39,33.37,2.64,5.52,4.26,11.5,4.15,17.46-.07,3.55-1.2,6.08-4.87,7.13-3.32.95-6.26.38-6.48-3.25-1.11-18.67,16.83-31.17,32.77-35.79,13.78-4,28.51-4.05,42.66-2.24,12.1,1.55,23.03,5.57,32.12,13.94,10.91,10.04,25.29,33.77,11.21,47.05-3.06,2.89-7.72,5.17-11.96,5.28-1.97.05-5.27-.43-6.73-1.94-1.55-1.61-.42-2.54.98-4.08,5.64-6.2,15.23-6.75,22.95-5.21,17.56,3.52,37.74,19.6,28.72,39.32-4.22,9.22-12.47,16.31-22.88,16.49-2.86.05-5.73,0-8.59,0-32.48-.04-64.95-.07-97.43-.11-30.47-.03-60.93-.07-91.4-.1h-5.16c-6.43-.01-6.44,9.99,0,9.99h0Z"/>
    </g>
  </g>
</svg>