<?xml version="1.0" encoding="UTF-8"?>
<svg id="Layer_2" data-name="Layer 2" xmlns="http://www.w3.org/2000/svg" viewBox="0 0 376.95 156.6">
  <defs>
    <style>
      .cls-1 {
        fill: #87c8cb;
      }

      .cls-2 {
        fill: #fff5da;
      }
    </style>
  </defs>
  <g id="Layer_1-2" data-name="Layer 1">
    <g>
      <path class="cls-2" d="M203.38,148.51l-161.49.23c-14.89.02-28.66-7.68-33.57-19.67s-5.18-30.61,4.45-46.59c15.91-26.41,58.61-28,67.71-6.53,2.85,6.73-2.22,12.56-7.64,11.95-19.42-2.19-9.31-64.01,26.15-76.11C132.85.23,176.85,24.18,173.35,49.59c-1.32,9.58-19.07,12.15-20.63.97-3.93-28.11,45.88-53.05,89.17-43.53,25.97,5.71,55.69,24.12,52.98,60.87-1.4,18.98-39.69,7.17-8.32-12.29,26.78-16.61,100.79,9.82,82.56,67.65-5.36,17.01-23.8,28.63-44.45,28.14l-121.28-2.88"/>
      <path class="cls-1" d="M203.38,143.51c-22.28.03-44.57.06-66.85.09-29.5.04-58.99.08-88.49.12-13.81.02-29.56-2.52-35.34-17.13-9.25-23.41,3.65-51.98,27.96-58.8,8.45-2.37,18.36-2.66,26.4,1.32,3.43,1.7,6.57,4.22,8.31,7.7,1.1,2.2,1.44,5.44-1.58,6.13-1.03.24-1.88-.51-2.19-.75-3.49-2.79-3.69-10.67-3.4-15.61.48-8.43,2.96-16.96,6.64-24.53,4.02-8.27,9.65-16.2,17.4-21.35,9.55-6.35,21.6-7.79,32.8-6.5s23.12,5.72,32.05,13.03c3.82,3.13,7.32,6.88,9.48,11.36,1.41,2.93,3.16,8.19,1.47,11.34-1.35,2.52-5.79,3.81-8.37,2.62-3.21-1.49-2.35-6.56-1.67-9.36,2.35-9.76,11.15-16.89,19.43-21.7,21.87-12.69,49.9-14.99,73.67-6.67,21.82,7.64,39.25,24.99,38.93,49.25-.04,3.03.11,6.36-2.95,7.85-1.73.84-4.29.75-5.87.05-1.93-.86-2.32-1.48-1.7-3.18,1.5-4.17,7.12-7.59,10.73-9.56,12.63-6.88,30.22-3.31,42.74,1.91,15.52,6.46,29.39,18.75,33.08,35.7,2.09,9.57.86,21.18-3.8,29.85-5.94,11.04-17.96,17.77-30.17,19.34-9.33,1.2-19.34.07-28.68-.16-31.11-.74-62.21-1.48-93.32-2.22-2.24-.05-4.48-.11-6.72-.16-6.44-.15-6.43,9.85,0,10,31.3.74,62.6,1.49,93.9,2.23,12.26.29,25.4,1.81,37.6-.07,14.04-2.16,27.57-9.94,35.05-22.24,6.38-10.48,8.19-24.24,6.33-36.24-3.3-21.26-20.15-37.1-39.28-45.13-15.92-6.68-37.33-10.19-52.95-.78-7.8,4.7-19.39,14.67-12.98,24.81,4.29,6.79,14.73,8.1,21.37,4.33,10.55-5.99,8.34-21.76,5.88-31.59-3.21-12.86-11.22-23.72-21.69-31.66C253.86-.09,222.57-3.7,195.44,3.5c-13.39,3.55-26.91,9.8-36.75,19.77-7.37,7.47-13.45,18.82-10.6,29.63,3.01,11.39,18.13,12.67,25.91,5.44,8.24-7.66,4.11-21.41-1.56-29.3C156.7,7.12,122.69-1.65,97.67,6.96c-21.19,7.29-34.42,29.37-38.33,50.53-1.59,8.62-2.33,18.59,1.61,26.73s13.92,12.08,21.09,5.37c10.24-9.58.13-23.81-9.51-28.89s-21.69-5.58-32.35-3.1C11.03,64.39-4.76,94.46,1.27,123.04c3.13,14.85,14.16,25.53,28.81,29.23,5.24,1.32,10.52,1.47,15.87,1.46l42.3-.06c35.97-.05,71.94-.1,107.91-.15,2.4,0,4.81,0,7.21-.01,6.43,0,6.45-10.01,0-10h0Z"/>
    </g>
  </g>
</svg>