<?xml version="1.0" encoding="UTF-8"?>
<svg id="Layer_2" data-name="Layer 2" xmlns="http://www.w3.org/2000/svg" viewBox="0 0 303.19 141.6">
  <defs>
    <style>
      .cls-1 {
        fill: #87c8cb;
      }

      .cls-2 {
        fill: #fff5da;
      }
    </style>
  </defs>
  <g id="Layer_1-2" data-name="Layer 1">
    <g>
      <path class="cls-2" d="M198.13,135.92c-70.89.71-81.36,1.25-152.22-.37-2.97-.07-63.26-16.07-32.33-64.75,6.6-10.38,32.93-27.11,57.9-7.05,21.91,17.61-13.98,35.46-17.21,3.35-2.23-22.17,19.57-71.73,106.13-60.47,67.38,8.76,58.85,55.93,58.14,59.46-3.07,15.34-24.61,18.61-22.94,1.77,1.01-10.17,24.21-38.52,72.95-9.87,34.05,20.01,43.66,63.31,2.55,77.09-3.77,1.27-72.96.83-72.96.83"/>
      <path class="cls-1" d="M198.13,130.92c-38.38.39-76.74.99-115.12.37-11.91-.19-24.24-1.47-36.11-.72-2.87.18.95.32-.44.04-.48-.1-.97-.2-1.45-.34-1.52-.43-3.04-.87-4.53-1.38-8.89-3.07-17.87-7.95-24.11-15.21-9.22-10.72-7.42-24.35-1-36.07,8.75-15.99,29.6-23.04,46.07-14.49,4.32,2.24,13.42,7.85,11.93,13.38-.65,2.38-3.86,3.91-6.6,3.22-9.14-2.31-8.18-17.31-6.74-23.66,5.3-23.44,26.57-37.92,48.85-43.15,19.59-4.59,41.31-3.86,60.89.39,14.2,3.08,29.26,9.2,37.64,21.74,4.79,7.17,6.9,15.22,6.83,23.39-.01,1.33-.1,2.64-.19,3.96-.04.51-.11,1.02-.17,1.52.22-1.78.05-.21-.05.21-1.07,4.51-3.89,9.67-9.21,9.98-2.06.12-3.22-.46-3.89-2.4-.9-2.61-.42-3.45.56-5.81,1.1-2.67,4.56-6.66,7.58-8.92,13.3-9.96,31.44-6.86,45.62-.63,16.54,7.27,32.79,19.5,37.58,37.81,4.03,15.41-4.13,28.44-18.32,34.6-1.38.6-2.82,1.18-4.28,1.58.51-.14.71-.03-.55.03-1.99.09-3.98.21-5.97.27-6.19.19-12.39.24-18.58.29-12.96.1-25.93.08-38.89.03-2.45,0-4.9-.02-7.35-.04-6.44-.04-6.44,9.96,0,10,11.01.07,22.01.09,33.02.06,12.87-.03,26.14.68,38.96-.72,8.14-.89,16.91-6.55,22.56-12.25,6.19-6.24,9.83-14.42,10.43-23.17,1.28-18.84-11.09-36.12-25.56-46.86-17.06-12.66-42.28-22.39-63.4-14.91-10.44,3.7-22.47,12.83-23.54,24.8-.75,8.36,4.29,16.02,13.13,16.25,8.37.22,15.85-6.04,18.71-13.6,2.61-6.88,2.16-15.25.89-22.33C216.37,9.32,170.94.3,137.82,0c-32.21-.29-68.99,10.44-83.48,42.06-4.69,10.23-7.12,22.34-3.49,33.3,2.2,6.62,6.79,12.54,13.88,14.12,6,1.34,12.69-1.03,16.23-6.11,12.14-17.42-17.01-32.34-30.32-33.77-10.77-1.16-21.96,2.07-30.81,8.25-8.04,5.61-13.04,13.23-16.66,22.27-5.97,14.93-3.6,30.78,7.74,42.37,8.03,8.21,19.05,13.86,30.01,17.02,6.95,2,14.5,1.24,21.65,1.39,11.73.24,23.47.45,35.2.58,20.14.21,40.27.07,60.4-.14,13.31-.14,26.63-.3,39.94-.43,6.43-.06,6.45-10.06,0-10h0Z"/>
    </g>
  </g>
</svg>