<?xml version="1.0" encoding="UTF-8"?>
<svg id="Layer_2" data-name="Layer 2" xmlns="http://www.w3.org/2000/svg" viewBox="0 0 253.17 142.06">
  <defs>
    <style>
      .cls-1 {
        fill: #87c8cb;
      }

      .cls-2 {
        fill: #fff5da;
      }
    </style>
  </defs>
  <g id="Layer_1-2" data-name="Layer 1">
    <g>
      <path class="cls-2" d="M90.02,136.37c56.11.71,64.4,1.25,120.49-.37,2.35-.07,55.71-10.11,31.23-58.78-5.22-10.38-38.14-38.38-57.39-19.12-17.25,17.25,14.41,34.28,19.55,9.47,4.5-21.73-11.95-72.26-80.47-61-53.34,8.76-50.9,60.92-50.34,64.45,2.91,18.31,20.47,14.23,20.51.72.03-10.2-31.89-34.83-70.46-6.18C-3.82,85.54-.27,121.75,32.27,135.53c2.99,1.27,57.75.83,57.75.83"/>
      <path class="cls-1" d="M90.02,141.37c20.65.26,41.3.69,61.96.69,9.01,0,18.01-.1,27.02-.27,10.53-.2,21.33.15,31.82-.82,19.5-1.79,40.12-16.63,42.15-36.92,1.52-15.22-5.54-30.92-16.73-40.97s-29.51-20.92-45.56-14.89c-13.27,4.98-23.61,23.09-9.55,33.39,4.91,3.59,11.57,4.54,17.14,1.94,6.36-2.96,9.64-9.55,10.73-16.2,3.9-23.63-10.51-48.61-31.32-59.4C161.07-.7,141.86-1.29,123.7,1.48c-17,2.59-32.67,10.34-43.02,24.35-7.22,9.77-11.02,21.65-12.34,33.64-.97,8.81-.92,19.23,6.45,25.51,11.51,9.81,27.67-4.12,23-17.36-4.63-13.12-22.16-19.4-34.63-20.35C26.68,44.49-16.45,83.5,6.36,120.35c4.82,7.78,12.03,13.95,20.19,18.03,4.62,2.3,8.45,2.59,13.52,2.75,13.45.44,26.93.34,40.39.29,3.19-.01,6.37-.03,9.56-.05,6.43-.05,6.45-10.05,0-10-18.33.14-36.78.58-55.09-.48-.32-.02-2.09-.34-1.2-.09,1.18.32-1.96-.95-1.52-.74-3.75-1.73-7.33-4.03-10.41-6.77-5.25-4.67-9.14-10.61-10.82-17.47-3.59-14.7,4.48-28.72,16.25-37.11,13.9-9.9,32.16-15.52,48.52-8.29,4.24,1.87,8.69,4.64,11.44,8.46.32.45,1.18,2.01,1.14,1.89.4,1.03.27.41.26.95-.05,2.25-.77,4.79-2.85,5.99-4.97,2.89-7.23-4.59-7.83-8.04.41,2.35.03-.05.02-.71-.02-1.33-.04-2.65,0-3.98.27-8.19,2.01-16.54,5.45-24.06,12.48-27.33,46.22-35.11,73.71-29.63,21.58,4.31,38.52,20.19,41.99,42.24.98,6.22,1.87,19.22-6.05,21.31-3.1.82-6.96-.98-8.29-3.93-2.19-4.86,3.07-9.94,6.8-12.13,12.01-7.05,27.82,2.82,36.83,10.68,9.38,8.18,15.42,20.02,14.74,32.75-.92,17.18-18,25.36-32.64,28.79-.27.06-.56.1-.83.14,3.19-.46-2.71-.03-3.01-.02-5.5.16-10.99.3-16.49.43-8.45.2-16.9.37-25.36.45-14.88.15-29.76-.01-44.64-.22-10.04-.14-20.08-.28-30.12-.41-6.44-.08-6.44,9.92,0,10h0Z"/>
    </g>
  </g>
</svg>