<?xml version="1.0" encoding="UTF-8"?>
<svg id="Layer_2" data-name="Layer 2" xmlns="http://www.w3.org/2000/svg" viewBox="0 0 330.86 156.48">
  <defs>
    <style>
      .cls-1 {
        fill: #87c8cb;
      }

      .cls-2 {
        fill: #fff5da;
      }
    </style>
  </defs>
  <g id="Layer_1-2" data-name="Layer 1">
    <g>
      <path class="cls-2" d="M203.04,148.28l-172.76,3.28c-11.09.22-20.37-9.89-24.23-21.82-10.84-33.46,43.01-66.76,52.83-35.47,2.19,6.96-5.49,13.81-12.04,12.04-32.41-8.77-13.97-67.39,22.12-75.26,51.76-11.3,80.21,10.51,78.05,35.97-.82,9.6-18.01,14.74-21.57-2.08-5.84-27.65,28.41-76.81,103.55-53.91,57.54,17.53,61.88,64.57,48.34,82.49-11.41,15.09-29.63-1.24-12.8-13.12,21.17-14.95,61.87,3.88,61.45,40.46-.2,17.49-17.23,28.94-32.61,28.72l-90.34-1.29"/>
      <path class="cls-1" d="M203.04,143.28c-20.43.39-40.86.78-61.29,1.16-31.27.59-62.55,1.19-93.82,1.78-6.22.12-12.75.83-18.97.31-11.26-.95-19.08-14.83-19.34-25.12-.22-8.73,4.1-16.9,10.03-23.07,5.35-5.56,12.62-10.46,20.44-11.46,5.8-.74,14.56,2.67,14.17,9.97-.34,6.3-7.69,4.63-11.12,2.5-2.78-1.73-4.89-4.24-6.21-7.24-3.01-6.85-2.08-14.99-.04-21.96,2.5-8.55,7.2-16.54,13.47-22.87,7.37-7.44,15.88-10.85,26.06-12.62,19.39-3.37,46.73-3.47,60.2,13.81,3.49,4.47,7.43,13.14,5.27,18.95-.85,2.28-3.71,3.78-6.07,3.48-3.93-.5-5.3-5.24-5.79-8.55-1.82-12.36,5.08-25.39,13.68-34.02,13.58-13.63,32.98-18.75,51.8-18.18,24.03.73,51.17,8.77,68.24,26.48,10.45,10.83,17.13,26.49,14.47,41.69-.97,5.53-3.63,14.04-9.64,15.95-2.97.94-6.27-.73-5.77-4.1.66-4.4,6.74-7.44,10.55-8.66,17.23-5.5,36.5,6.31,43.91,21.75,4.6,9.59,5.84,22.33-1.28,31-5.63,6.86-14.4,10.31-23.13,10.29-27.16-.05-54.33-.77-81.49-1.16-2.78-.04-5.56-.08-8.34-.12-6.44-.09-6.44,9.91,0,10,29.34.42,58.68.84,88.02,1.25,8.58.12,16.96-1.66,24.22-6.46,12.1-8,17.13-20.82,15.16-34.97-3.18-22.9-23.02-41.25-46.09-42.78-10.56-.7-23.23,3.1-29.14,12.52-6.35,10.1,1.19,22.82,13.19,21.62,9.83-.98,15.87-10.58,18.46-19.25,2.44-8.19,2.35-17.05.57-25.36-4.91-22.99-23.49-39.93-44.39-48.96C217.84,0,186.6-4.54,160.47,5.86c-17.63,7.02-32.75,20.91-38.53,39.32-2.34,7.43-3.15,16.12-.62,23.62,3.37,10.01,14.09,15.52,23.61,9.66,8.58-5.28,8.33-16.51,5.47-25.06-3.12-9.31-9.91-16.77-18.31-21.7-11.07-6.5-24.29-8.73-36.98-8.7-13.55.03-28.98,1.55-40.86,8.61-17.61,10.46-30.86,32.85-29.05,53.64.81,9.31,4.97,18.12,13.25,22.97,5.02,2.94,10.91,4.5,16.45,2.06,6.11-2.69,10.38-9.27,9.1-16.03-1.82-9.57-9.9-16.52-19.43-17.37s-19.26,3.82-26.66,9.63c-19.42,15.27-25.19,43.12-6.49,61.75,9.58,9.54,20.76,8.27,32.88,8.04,16.56-.31,33.12-.63,49.67-.94,34.23-.65,68.46-1.3,102.7-1.95,2.12-.04,4.25-.08,6.37-.12,6.43-.12,6.45-10.12,0-10h0Z"/>
    </g>
  </g>
</svg>