<?xml version="1.0" encoding="UTF-8"?>
<svg id="Layer_2" data-name="Layer 2" xmlns="http://www.w3.org/2000/svg" viewBox="0 0 281.95 156.38">
  <defs>
    <style>
      .cls-1 {
        fill: #87c8cb;
      }

      .cls-2 {
        fill: #fff5da;
      }
    </style>
  </defs>
  <g id="Layer_1-2" data-name="Layer 1">
    <g>
      <path class="cls-2" d="M130.44,148.5l120.24.23c11.09.02,21.34-7.68,25-19.67,10.27-33.65-44.07-72.7-62.02-50.88-10.24,12.45,2.89,18.07,9.16,14.52,29.3-16.56,17.12-60.03-9.29-72.12-25.21-11.55-65.23,5.57-62.62,30.99.98,9.58,20.57,10.24,21.73-.94,2.93-28.11-38.65-53.12-70.88-43.61-19.34,5.71-45.08,24.6-43.06,61.35,1.04,18.98,36.07,6.79,12.71-12.67C51.47,39.09-6.54,65.41,7.04,123.24c3.99,17.01,17.72,28.63,33.09,28.14l90.3-2.88"/>
      <path class="cls-1" d="M130.44,153.5c26.1.05,52.2.1,78.3.15,12.93.02,25.86.05,38.78.07,5.29,0,10.34-.44,15.27-2.66,10.88-4.89,17.86-15.83,18.99-27.54,1.93-19.89-13.01-38.36-28.88-48.44-14.21-9.03-37.42-13.87-46.35,4.91-4.5,9.45,1.98,19.05,12.42,18.74,9.54-.28,18.32-10.32,22.05-18.33,8.77-18.86,1.43-42.6-13.42-56.26-16.47-15.16-41.25-15.29-60.44-5.21-8.72,4.58-16.5,11.79-19.85,21.24-3.09,8.73-1.93,19.16,7.8,22.61,8.24,2.92,19.62-.14,22.07-9.43,2.61-9.87-2.01-20.93-7.96-28.63C154.86,6.14,128.51-3.17,105.59.97c-19.84,3.59-38.21,18.01-46.4,36.37-5.77,12.95-12.73,50.44,12.88,45.11,7.01-1.46,12.72-7.4,12.31-14.8-.48-8.58-8.45-16.33-15.99-19.49-13.97-5.85-31.02-.44-42.75,7.96C9.46,67.7.13,86.1,0,105.98c-.08,12.41,2.57,25.66,10.32,35.62,7.22,9.27,17.99,14.92,29.81,14.78,27.11-.31,54.25-1.73,81.35-2.6,2.98-.1,5.97-.19,8.95-.29,6.42-.2,6.45-10.21,0-10-22.1.71-44.2,1.41-66.3,2.12-7.99.26-16,.68-24,.77-22.92.25-31.1-24.32-30.04-43.48.85-15.35,8.64-29.9,21.35-38.68,8.91-6.15,22-11.29,32.76-7.03,3.95,1.57,11.15,7.01,10.18,11.88-.66,3.34-6.08,4.89-8.76,3.09-1.81-1.22-1.93-3.36-2-5.41-.2-5.92.34-11.81,1.88-17.53,2.46-9.13,7.39-17.28,14.21-23.81,12.53-12,29.97-17.81,47.13-14.49s37.76,14.77,40.7,33.36c.42,2.64.97,6.47-1.35,8.34-1.98,1.6-5.72,1.66-8,.68-6.29-2.71-.09-13.71,2.73-17.03,10.94-12.94,32.33-17.74,48.07-12.17,15.57,5.51,25.93,22.99,25.83,39.11-.05,7.92-2.89,15.48-8.7,20.96-2.09,1.97-5.16,4.95-8.32,4.56-4.34-.55-2.79-4.15-.83-6.72,8.67-11.41,26.61-1.92,35.17,4.68,11.61,8.95,23.12,24.55,19,40.04-2.53,9.5-10.46,16.77-20.47,17-1.92.04-3.85,0-5.77-.01-11.11-.02-22.21-.04-33.32-.06-25.41-.05-50.83-.1-76.24-.14-1.63,0-3.26,0-4.9,0-6.44-.01-6.44,9.99,0,10h0Z"/>
    </g>
  </g>
</svg>