<?xml version="1.0" encoding="UTF-8"?>
<svg id="Layer_2" data-name="Layer 2" xmlns="http://www.w3.org/2000/svg" viewBox="0 0 378.74 601.25" preserveAspectRatio="xMidYMid meet">
  <defs>
    <style>
      .cls-1 {
        fill: #940f12;
      }

      .cls-1, .cls-2, .cls-3 {
        stroke: #940f12;
        stroke-linecap: round;
        stroke-linejoin: round;
        stroke-width: 7px;
      }

      .cls-4 {
        fill: #f26522;
      }

      .cls-5 {
        fill: #daefec;
        stroke: #244551;
        stroke-miterlimit: 10;
        stroke-width: 10px;
      }

      .cls-2 {
        fill: #f9e3ad;
      }

      .cls-3 {
        fill: none;
      }

      .cls-6 {
        fill: #244551;
        font-family: DeliusUnicase-Bold, 'Delius Unicase';
        font-size: 37px;
        font-weight: 700;
      }
    </style>
  </defs>
  <g id="Animal_Posters">
    <g>
      <rect class="cls-5" x="5" y="5" width="368.74" height="591.25" rx="21.83" ry="21.83"/>
      <text class="cls-6" transform="translate(31.74 71.6)"><tspan x="0" y="0">HANG IN THERE!</tspan></text>
      <g>
        <path class="cls-4" d="M142.64,342.84c-7.75,51.9-3.74,105.52,11.63,155.69.6,1.97,1.21,4.14.37,6.02-.91,2.02-1.88,5.88-4.03,6.38-15.69,3.63-32.28-7.08-36.25-22.69-3.97-15.61.45-37.79,6.82-52.58-5.67-1.93-12.12.94-16.01,5.5s-11.12,12.75-12.59,18.56c-3.07,12.18.47,22.61,2.25,35.04s7.55,24.65,17.5,32.31c8.75,6.73,20.14,9.48,31.17,9.01,3.73-.16,7.53-.65,11.14.28s7.07,3.76,7.31,7.48c.08,1.28-.2,2.66.41,3.78,1.91,3.54,6.91-.61,10.85-1.44,4.83-1.02,10.43,3.79,14.32.77,2.29-1.78,2.52-5.5,5.02-6.97,2.44-1.43,5.94.01,8.19-1.72,2.94-2.27.61-7.09-2.43-9.23s-7.03-3.97-7.65-7.63c-.5-2.95,1.51-5.68,3.41-7.99,5.78-7.07,11.57-14.13,17.35-21.2,1.12-1.37,2.48-2.85,4.25-2.83,1.32.01,2.46.89,3.47,1.74,9.39,7.91,17.43,17.44,23.63,28.04,1.67,2.85,1.47,5.67,1.63,8.97.37,7.4-4.34,15.86.27,21.65,3.67-1.1,6.87-3.71,8.68-7.09,2.03,4.86,6.81,8.93,12.07,8.57s9.7-6.55,7.2-11.19c2.1,3.91,8.86.54,8.99-3.89s-3.32-8.03-6.24-11.36c-16.36-18.67-21.88-44.29-25.43-68.86-2.14-14.8-3.77-29.66-5.16-44.55-1.47-15.79-2.67-31.72-.99-47.5,2.5-23.44,11.25-45.72,16-68.81,4.52-21.95,5.41-44.65,2.6-66.88-1.89-14.97-4.78-32.22,5.35-43.4,3.46-3.81,8.64-8.02,6.86-12.85-1.69-4.62-8.09-4.81-12.26-7.44-2.43-1.53-4.13-3.99-6.4-5.75s-5.71-2.69-7.92-.85c-2.03,1.69-2.1,4.93-4.04,6.72-2.38,2.2-6.28,1.2-9.27,2.47-6.29,2.69-4.35,11.94-1.88,18.32,8.41,21.68,10.51,45.76,5.98,68.57-14.67-17.41-33.77-31.05-55-39.27-2.86,19.9-15.17,38.24-32.51,48.41-2.36,1.38-5.59,2.54-7.59.68-1.09-1.01-1.39-2.6-1.63-4.07-1.67-10.26-3.33-20.52-5-30.78-1.3-8-2.52-16.56.91-23.9,1.99-4.25,5.41-7.72,7.4-11.97s2.07-10.12-1.75-12.86c-1.76-1.27-4.02-1.61-5.97-2.57-6.61-3.25-11.11-13.53-17.94-10.78-4.31,1.74-5.19,7.8-9.13,10.27-1.95,1.22-4.43,1.4-6.29,2.76-3.12,2.29-3.22,7.08-1.58,10.59s4.55,6.23,6.8,9.38c6.67,9.35,7.07,21.63,7.21,33.12.13,10.97.27,21.93.4,32.9.04,3.41-.2,7.4-3.01,9.33-1.36.93-3.17,1.23-4.23,2.49-1.41,1.68-.86,4.19-.19,6.28,6.82,21.36,17.77,41.39,32.06,58.66"/>
        <path class="cls-4" d="M140.23,342.18c-2.89,19.44-4.22,39.09-3.88,58.74.34,19.64,2.31,39.26,5.84,58.58,1.76,9.63,3.92,19.19,6.48,28.64.63,2.34,1.29,4.68,1.98,7.01.63,2.13,1.57,4.35,1.86,6.56.22,1.61-.64,3.17-1.25,4.62-.25.59-.54,1.26-.93,1.79-.04.05-.34.4-.36.41.17-.13-.16.08-.17.08.47-.15-.58.07-.55.06-13.62,2.78-27.97-6.51-32.06-19.57-2.32-7.41-2.17-15.58-1.36-23.22.87-8.16,2.82-16.27,5.57-24,.59-1.67,1.23-3.33,1.92-4.96.65-1.51.19-3.13-1.49-3.67-5.86-1.88-12.1.34-16.58,4.26-1.83,1.61-3.36,3.61-4.92,5.48-1.88,2.25-3.72,4.54-5.42,6.94-1.48,2.08-2.84,4.25-3.85,6.61-1.23,2.88-1.72,6.04-2.01,9.15-.63,6.73.5,13.46,1.7,20.07,1.13,6.17,1.79,12.5,3.63,18.52,1.74,5.7,4.35,11.21,7.91,16,3.63,4.88,8.11,9.03,13.42,12.03s11.44,4.94,17.6,5.78c3.11.42,6.23.62,9.37.53,3.42-.09,7-.7,10.4-.04,2.28.44,4.63,1.54,5.83,3.63.6,1.04.56,2.04.57,3.2.01,1.64.35,3.22,1.46,4.48,4.02,4.56,9.53-1.42,13.93-1.34,2.39.05,4.68,1.18,7.01,1.63,2.75.53,5.54.32,7.69-1.66.95-.88,1.63-2.01,2.21-3.16.5-.99.95-2.33,1.81-3.04.63-.52,1.6-.53,2.43-.56,1.51-.05,3.08-.03,4.52-.57,2.74-1.03,4.36-3.62,4.02-6.53s-2-5.44-4.19-7.2c-1.96-1.57-4.35-2.62-6.1-4.45s-1.09-4.02.23-6.01c1.92-2.89,4.38-5.5,6.58-8.18,2.37-2.89,4.73-5.78,7.1-8.67,1.1-1.35,2.21-2.7,3.31-4.05,1.03-1.26,2.02-2.8,3.32-3.81.89-.69,1.45-.3,2.29.35,1.25.96,2.41,2.06,3.57,3.11,4.74,4.33,9.14,9.09,13.01,14.22,1.91,2.54,3.72,5.16,5.4,7.86.76,1.22,1.69,2.49,2.17,3.86s.55,2.74.61,4.15c.11,2.94.02,5.69-.5,8.59s-1.17,5.77-1.18,8.69.65,5.66,2.38,7.93c.66.87,1.68,1.51,2.82,1.15,4.32-1.36,7.98-4.27,10.18-8.24h-4.32c2.61,6.04,9.3,11.22,16.16,9.52,6.2-1.53,10.41-8.75,7.43-14.66l-4.32,2.52c1.92,3.3,5.88,3.57,9.01,1.9s4.99-5.02,4.54-8.58c-.56-4.54-3.72-8-6.62-11.3-2.75-3.13-5.21-6.47-7.4-10.01-9.04-14.6-13.27-31.58-16.13-48.34-3.36-19.66-5.4-39.59-7.12-59.46-.88-10.26-1.52-20.57-1.19-30.88s1.79-19.88,4.01-29.65c4.38-19.29,10.98-38.01,14.17-57.57,3.28-20.11,3.56-40.51.97-60.71-1.02-7.95-2.19-16.03-1.49-24.06.32-3.61,1.09-7.31,2.67-10.59,1.66-3.47,4.16-6,6.74-8.79,2.78-3.02,5.49-6.65,4.67-10.99-.73-3.84-4.01-5.92-7.37-7.27-1.44-.58-2.97-1.04-4.37-1.65-1.79-.77-3.18-1.9-4.55-3.27-3.03-3.04-6.46-6.24-11.12-5.59-2.24.31-4.05,1.64-5.18,3.58-.82,1.41-1.14,3.3-2.24,4.53s-3.09,1.1-4.54,1.26c-2,.23-4.02.58-5.72,1.76-6.09,4.24-4.38,13.04-2.3,19,1.49,4.27,3.1,8.47,4.31,12.83,1.27,4.58,2.28,9.24,3.02,13.93,1.46,9.32,1.78,18.84,1.06,28.23-.36,4.6-.99,9.16-1.88,13.68l4.18-1.1c-11.62-13.74-25.97-25.21-41.94-33.52-4.6-2.39-9.33-4.51-14.16-6.39-1.15-.45-2.89.5-3.08,1.75-1.74,11.84-6.73,23.15-14.38,32.37-3.73,4.5-8.03,8.56-12.83,11.89-2.11,1.46-4.71,3.6-7.34,3.94-1,.13-1.58-.17-1.92-1.15-.6-1.71-.7-3.67-.99-5.45-1.26-7.74-2.51-15.47-3.77-23.21-1.09-6.71-2.67-13.79-1.61-20.6.53-3.4,1.83-6.36,3.72-9.22s4.02-5.48,5.42-8.58c2.35-5.23,2.37-12.39-2.79-15.97-2.47-1.71-5.57-2.02-8.01-3.83-1.9-1.4-3.61-3.32-5.32-5.02-3.61-3.57-8.17-6.9-13.38-4.39-2.35,1.14-3.9,3.34-5.23,5.5-1.26,2.04-2.37,4.24-4.63,5.18-2.98,1.24-5.85,1.84-7.69,4.77-1.59,2.54-1.73,5.79-1.08,8.64.74,3.23,2.78,5.95,4.83,8.48s3.87,4.76,5.29,7.54c2.9,5.69,3.86,12.2,4.26,18.5.46,7.31.36,14.67.45,22,.05,3.82.09,7.64.14,11.46s.26,7.39.08,11.07c-.05,1.15-.17,2.38-.6,3.45-.47,1.17-1.27,1.77-2.39,2.3-1.26.59-2.54,1.13-3.49,2.2-1.25,1.41-1.72,3.27-1.58,5.12.25,3.33,1.72,6.64,2.84,9.75s2.41,6.35,3.74,9.48c5.42,12.78,12.35,24.93,20.6,36.1,2.02,2.73,4.11,5.41,6.27,8.02.86,1.04,2.64.89,3.54,0,1.03-1.03.86-2.49,0-3.54-8.7-10.55-16.13-22.14-22.13-34.42-2.96-6.05-5.55-12.26-7.77-18.61-.53-1.5-1.04-3.01-1.51-4.53-.32-1.02-1-2.71-.46-3.77.47-.92,1.95-1.22,2.81-1.66,1.4-.7,2.56-1.76,3.4-3.08,1.59-2.5,1.79-5.71,1.78-8.59-.02-3.94-.1-7.87-.14-11.81-.09-7.69-.17-15.39-.29-23.08-.1-6.55-.37-13.18-1.86-19.59-.75-3.22-1.85-6.38-3.36-9.33s-3.49-5.4-5.54-7.91c-1.82-2.21-3.8-4.65-4.21-7.59-.28-2,.13-4.2,1.97-5.28,1.31-.77,2.89-1.06,4.28-1.67s2.52-1.39,3.51-2.46c1.82-1.95,2.86-4.41,4.47-6.51.52-.68,1.17-1.34,1.96-1.73.34-.17.8-.32,1.29-.39-.39.05,1.17.11.7.02,1.09.2,1.51.45,2.49,1.11.77.52,1.63,1.3,2.44,2.07,1.77,1.69,3.41,3.52,5.28,5.1,1.02.86,2.09,1.69,3.25,2.33,1.44.8,3.02,1.26,4.56,1.84,5.34,2.02,4.11,8.35,1.79,12.33-1.72,2.96-3.95,5.58-5.63,8.57s-2.69,6.45-3.12,9.96c-.85,7.1.67,14.3,1.81,21.29,1.24,7.65,2.49,15.31,3.73,22.96.54,3.34.61,7.57,3.68,9.7,2.71,1.88,6.17.97,8.89-.39,5.28-2.64,10.16-6.7,14.35-10.83,8.66-8.54,15.12-19.38,18.46-31.08.8-2.8,1.4-5.64,1.82-8.52l-3.08,1.75c16.18,6.3,31.11,15.83,43.68,27.79,3.6,3.42,7,7.05,10.21,10.84,1.18,1.39,3.83.67,4.18-1.1,3.61-18.32,3.16-37.33-1.38-55.45-1.12-4.47-2.49-8.87-4.11-13.18-1.14-3.04-2.38-6.28-2.66-9.44-.07-.77-.1-1.54-.08-2.31s.05-1.08.27-1.89c.18-.68.19-.76.56-1.38.21-.35.64-.86.89-1.04,1.24-.93,2.82-1.03,4.3-1.19,2.02-.21,4.1-.45,5.81-1.65,1.82-1.27,2.64-3.09,3.48-5.06.46-1.08.95-2.42,2.24-2.63,3.63-.6,6.48,4.07,8.87,6.01,2.77,2.25,6.16,3.1,9.29,4.44,2.48,1.07,4.6,2.75,3.41,5.64-1.36,3.33-4.65,5.65-6.89,8.35-2.51,3.03-4.33,6.49-5.48,10.25-2.27,7.41-1.98,15.41-1.21,23.04.89,8.83,2.25,17.58,2.69,26.46.49,9.82.26,19.68-.66,29.47-.91,9.66-2.58,19.21-4.84,28.64-2.24,9.35-4.95,18.58-7.46,27.86s-4.77,18.42-6.17,27.83-1.86,19.77-1.54,29.71c.32,9.99,1.26,19.95,2.23,29.89.98,10.06,2.09,20.1,3.41,30.12,2.24,17.05,4.76,34.31,10.75,50.51,2.86,7.75,6.49,15.26,11.25,22.04,2.41,3.44,5.21,6.5,7.86,9.74,1.15,1.41,2.27,2.99,2.78,4.75.2.72.34,1.49.23,2.24.04-.3-.17.52-.22.63.1-.22-.3.47-.39.59-.53.72-1.46,1.31-2.4,1.56-.25.07-.64.07-.81.03-.46-.1-.15-.02-.04,0-.07-.02-.39-.26-.07,0-.36-.3-.24-.22-.38-.47-1.63-2.8-5.76-.33-4.32,2.52.74,1.46.34,3.1-.61,4.54s-2.65,2.69-4.46,2.9c-4.47.51-8.24-3.55-9.88-7.35-.76-1.75-3.48-1.51-4.32,0-1.57,2.84-4.08,4.96-7.19,5.94l2.82,1.15c-3.3-4.32-1-10.29-.3-15.11.43-2.99.44-5.95.22-8.96-.1-1.38-.27-2.78-.72-4.09-.57-1.69-1.51-3.18-2.44-4.69-3.34-5.4-7.16-10.52-11.37-15.28-2.06-2.33-4.22-4.57-6.47-6.71-1.15-1.1-2.33-2.17-3.53-3.21s-2.38-2.18-3.79-2.88c-3.3-1.64-6.34-.02-8.53,2.56-2.34,2.75-4.58,5.59-6.87,8.39s-4.63,5.65-6.94,8.48c-2.16,2.64-4.65,5.22-6.38,8.17-1.62,2.74-2.19,5.93-.77,8.88,1.14,2.38,3.36,3.99,5.5,5.4,1.91,1.26,3.97,2.4,4.87,4.65.06.14.27.91.26.84.04.27.05.6,0,.87.06-.38-.21.38-.04.07-.36.64-1.24.78-2.08.82-2.9.15-5.78.15-7.85,2.52-.79.9-1.34,1.93-1.87,3-.45.92-.89,2.1-1.72,2.75-1.45,1.13-3.95.13-5.79-.41-2.56-.74-5.17-1.37-7.82-.76-2.37.54-4.45,1.92-6.78,2.56-.43.12-.72.18-.91.18.09,0-.16-.22,0,.04-.35-.57-.03.08-.04.03-.05-.41-.22-.73-.22-1.22,0-.88,0-1.7-.13-2.57-.98-6.33-7.66-9.22-13.36-9.5-3.32-.16-6.64.3-9.96.29-2.96,0-5.93-.23-8.84-.76-5.77-1.04-11.31-3.06-16.22-6.29-9.56-6.28-15.38-16.89-17.86-27.85-.68-3.01-1.04-6.07-1.57-9.1-.56-3.22-1.19-6.43-1.72-9.65-1.03-6.34-1.45-12.84.07-19.14,1.13-4.69,4.58-8.92,7.62-12.66s6.13-8.17,10.84-9.86c2.37-.85,4.75-1.03,7.17-.25l-1.49-3.67c-3.34,7.81-5.74,16-7.18,24.37s-2.07,17.34-.74,25.96c1.2,7.74,4.69,14.84,10.47,20.19s13.03,8.6,20.78,9.15c1.83.13,3.68.08,5.5-.15,2.01-.25,4.18-.43,5.7-1.9,1.37-1.33,2.08-3.21,2.76-4.95s1.42-3.42,1.16-5.7c-.28-2.43-1.18-4.77-1.87-7.1-.73-2.48-1.43-4.97-2.11-7.46-1.33-4.91-2.55-9.86-3.67-14.82-4.45-19.81-7.16-39.99-8.12-60.26-.97-20.34-.19-40.76,2.35-60.96.3-2.42.64-4.84,1-7.25.2-1.33-.33-2.69-1.75-3.08-1.18-.32-2.88.4-3.08,1.75h0Z"/>
      </g>
      <g id="At8ASf">
        <g>
          <path class="cls-3" d="M261.39,167.18c6.9-8.66,17.73.49,15.69,9.62-1.05,4.75-5,10.03-7.69,14.86-4.25,7.03-5.68,15.19-5,23.34,1.65,27.17,5.3,54.98-1.99,81.66-1.76,6.64-3.95,13.19-5.88,19.79-13.44,50.63-14.33,104.61-.53,155.34,4.95,17.05,7.38,36.87,21.77,48.31,15.28,12.15,8.49,30.05-3.53,25.16"/>
          <path class="cls-3" d="M190.23,465.75c-5.08,11.61-11.01,22.61-20.15,31.54-11.83,12.24-30.16,18.6-44.59,6.92-13.59-10.42-17.33-32.37-9.24-47.81,3.32-7.04,10.03-14.21,8.85-21.53-.69-3.3-3.87-5.27-8.03-4.92-9.37.95-17.53,11.15-22.06,19.35-5.23,9.33-7.85,20.04-7.41,30.74,1.72,36.56,33.39,66.88,70.52,55.66,24.98-6.85,40.74-29.57,57.61-47.46"/>
          <path class="cls-3" d="M141.73,342.25c-5.26,20.33-4.27,41.7-4.27,62.57.98,34.64,5.29,69.77,17.27,102.43"/>
          <path class="cls-3" d="M108.73,111c-1.18,20.91-1.44,41.84-.5,62.75"/>
          <path class="cls-3" d="M146.73,108.63c.62,5.87.59,11.72.54,17.61.08,16.32.75,32.71-.54,49.02"/>
          <path class="cls-3" d="M238.73,252.75c2.52-18.61,4.52-38.61-1.48-57.61-3-8-10-15-9-24,1-6,9.24-14.05,15.01-5.03"/>
          <path class="cls-3" d="M235.23,108.63c-1.5,21.49-.28,32.12-.5,53.62"/>
          <path class="cls-3" d="M114.12,176.27c-8.65-6.97-18.88,5.78-13.91,16.09,3.53,6.68,10.1,11.82,12.65,19.1,2.37,6.23,1.8,13.94,1.97,21,.09,12.44-.05,26.3-.77,38.7"/>
          <path class="cls-3" d="M273.08,105.94c.2,2.92-.12,9.51-.07,12.43-1.04,18.73.06,27.78-.12,46.53"/>
          <path class="cls-3" d="M238.73,252.75c-6.98-8.79-15.49-16.07-24.53-22.59-5.9-4.44-11.58-8.84-17.77-13.47-3.19-2.29-7.48-5.65-11.36-5.08-4.56,1.03-5.24,7.21-6.54,11.22-.99,3.62-2.19,7.25-4.15,10.4-3.44,5.72-28.62,30.92-28.62,30.92h0"/>
          <path class="cls-3" d="M127.23,111c-1.31,17.58.66,35.21-1,52.75"/>
          <path class="cls-3" d="M253.17,103.43c1.22,19.59-.22,29.46.06,49.07"/>
          <path class="cls-3" d="M134.77,186.9c.44-4.23,2.06-8.77,6.66-10.57,7.27-2.69,12.42,6.89,9.63,13.45-2.5,6.57-7.93,12.39-9.81,19.33-2.76,9.46-.49,20.37,1.43,30.31,1.56,6.66,3.51,18.89,3.09,24.74l-9.41,8.1c-9.31-.99-27.26-.1-27.26-.1"/>
          <path class="cls-3" d="M109.09,272.15c-9.33.26-1.72,10.87,1.06,16.28,5.05,9.59,8.83,19.88,14.21,29.31,7.87,14.46,19.41,25.71,33.88,33.52"/>
          <path class="cls-3" d="M215.73,488.25s9.53,14.03,18.51,28.01c3.27,4.77,5.63,10.21,5.28,16.06-.04,5.72-2.54,12.18.38,17.53,1.96,3.66,6.82,4.79,10.1,1.82,3.09-2.75,4.12-6.99,5.23-10.92"/>
          <path class="cls-3" d="M191.23,517.25c5.36,3.9,12.17,9.01,13.83,15.25,1.68,5.22-2.06,10.4-7.71,9.44-3.95-.56-7.16-3.45-10.13-6.19"/>
          <path class="cls-3" d="M157.23,536.25c.23,5.13.78,11.2,3.7,14.8,3.25,4.44,9.41,3.96,11.9-1.01,1.69-3.03,2.03-6.76,2.4-10.3"/>
          <path class="cls-3" d="M272.16,537.5c2.49,3.53,2.13,8.86,2.13,8.86-.22,4.53-5.14,9.14-9.59,8.85-3.6-.16-8.98-1.91-11.41-8.42"/>
          <path class="cls-3" d="M193.42,541.5c-1.56,11.69-10.27,15.09-19.04,7"/>
          <path class="cls-3" d="M116.23,185.75c-1.33-4.87-2.37-10.12-.37-14.88,1.75-4.42,7.06-7.08,11.53-5.47,5.53,1.99,8.99,8.08,9.68,13.92"/>
          <path class="cls-3" d="M243.73,177.75c-.58-7.99-1.9-18.74,5.56-23.84,4.46-2.83,10.04.99,11.29,5.9,1.7,5.52.38,11.41-.85,16.94"/>
          <path class="cls-3" d="M202.73,298.75c-1.35-.81-3.56.53-5.33,1.61-1.04.63-5.73,3.49-5.17,5.89.54,2.32,6.05,4.37,9.38,1.98,3.33-2.4,3.09-8.29,1.12-9.48Z"/>
        </g>
      </g>
      <circle class="cls-2" cx="156.19" cy="304.23" r="20.28"/>
      <circle class="cls-2" cx="209.35" cy="265.42" r="20.28"/>
      <circle class="cls-1" cx="156.19" cy="304.53" r="6.03"/>
      <circle class="cls-1" cx="209.35" cy="265.42" r="6.03"/>
    </g>
  </g>
</svg>