<?xml version="1.0" encoding="UTF-8"?>
<svg id="Layer_2" data-name="Layer 2" xmlns="http://www.w3.org/2000/svg" viewBox="0 0 144.92 117.39">
  <defs>
    <style>
      .cls-1 {
        fill: #231f20;
      }

      .cls-2 {
        fill: #f595aa;
      }

      .cls-3 {
        fill: #de668c;
      }
    </style>
  </defs>
  <g id="Layer_2-2" data-name="Layer 2">
    <g>
      <path class="cls-1" d="M4.83,116.96h80.05c6.43,0,6.45-10,0-10H4.83c-6.43,0-6.45,10,0,10h0Z"/>
      <g>
        <polyline class="cls-3" points="91.07 5.11 25.16 77.27 47.57 99.61 60.32 112.34 86.39 111.96 139.96 53.55 91.07 5.11"/>
        <path class="cls-1" d="M87.54,1.58c-19.22,21.04-38.45,42.09-57.67,63.13-2.75,3.01-5.49,6.02-8.24,9.02-1.82,1.99-1.99,5.09,0,7.07,7.46,7.44,14.92,14.88,22.37,22.32,3.9,3.89,7.73,7.87,11.71,11.68,3.61,3.46,8.15,2.49,12.86,2.42,5.81-.08,11.99.41,17.77-.26,3.36-.39,5.11-3.13,7.24-5.46,9.17-9.99,18.33-19.99,27.5-29.98,7.47-8.15,14.94-16.29,22.41-24.44,1.82-1.98,1.99-5.1,0-7.07C127.2,33.87,110.9,17.73,94.61,1.58c-4.58-4.53-11.65,2.53-7.07,7.07,16.29,16.15,32.59,32.29,48.88,48.44v-7.07c-17.86,19.47-35.71,38.94-53.57,58.41l3.54-1.46c-8.69.13-17.38.25-26.07.38l3.54,1.46c-11.72-11.69-23.44-23.38-35.15-35.07v7.07c19.22-21.04,38.45-42.09,57.67-63.13,2.75-3.01,5.49-6.02,8.24-9.02,4.33-4.74-2.72-11.84-7.07-7.07h0Z"/>
      </g>
      <polyline class="cls-2" points="91.15 11.55 31.35 75.59 41.68 86.29 47.05 91.86 65.2 86.56 113.75 34.67 91.15 11.55"/>
    </g>
  </g>
</svg>