<?xml version="1.0" encoding="UTF-8"?>
<svg id="Layer_2" data-name="Layer 2" xmlns="http://www.w3.org/2000/svg" viewBox="0 0 148.68 117.46">
  <defs>
    <style>
      .cls-1 {
        fill: #244551;
      }

      .cls-2 {
        fill: #daefec;
      }

      .cls-3 {
        fill: #6c9bb5;
      }
    </style>
  </defs>
  <g id="Layer_1-2" data-name="Layer 1">
    <g>
      <path class="cls-2" d="M141.8,52.19c3.24,4.74,3.13,10.85-.28,15.47-10.91,14.79-37.47,45.83-67.84,45.29-31.64-.57-57.92-35.24-67.4-49.49-2.43-3.66-2.35-8.33.21-11.9C16.47,37.65,43.97,3.94,75.62,4.51s55.81,32.52,66.18,47.69Z"/>
      <path class="cls-1" d="M74.47,117.46c-.29,0-.58,0-.88,0-33.63-.6-60.9-36.22-71.07-51.5-3.48-5.23-3.36-11.91.3-17.02C13.44,34.15,41.57,0,74.83,0c.29,0,.58,0,.87,0,14.28.26,28.91,6.8,43.46,19.46,11.64,10.12,20.75,22,26.35,30.18h0c4.35,6.36,4.21,14.48-.37,20.68-5.88,7.98-15.42,19.52-27.41,29.22-14.7,11.88-29.24,17.9-43.26,17.9ZM74.83,9c-12.34,0-25.46,5.74-39.01,17.06-11.92,9.97-21.2,21.9-25.67,28.12-1.48,2.07-1.53,4.67-.12,6.79,4.24,6.38,13.09,18.64,24.65,29.03,13.38,12.03,26.53,18.24,39.08,18.46,28.63.5,54.38-30.22,64.14-43.46,2.27-3.08,2.34-7.11.18-10.26-9.29-13.58-33.97-45.22-62.54-45.73-.24,0-.47,0-.71,0Z"/>
    </g>
    <g>
      <circle class="cls-3" cx="74.33" cy="58.72" r="26.16"/>
      <path class="cls-1" d="M74.34,89.38c-.19,0-.37,0-.56,0-16.9-.3-30.41-14.3-30.1-31.2.15-8.19,3.47-15.83,9.37-21.51,5.89-5.69,13.68-8.71,21.83-8.59,8.19.15,15.83,3.47,21.51,9.37,5.69,5.89,8.74,13.65,8.59,21.83l-4.5-.08,4.5.08c-.3,16.71-13.99,30.11-30.64,30.11ZM74.32,37.07c-5.64,0-10.96,2.15-15.03,6.07-4.16,4.02-6.51,9.41-6.62,15.2-.1,5.78,2.05,11.26,6.07,15.43s9.41,6.51,15.2,6.62c11.93.19,21.83-9.33,22.04-21.27.1-5.78-2.05-11.26-6.07-15.42s-9.41-6.51-15.2-6.62c-.13,0-.27,0-.4,0Z"/>
    </g>
  </g>
</svg>