<?xml version="1.0" encoding="UTF-8"?>
<svg id="Layer_2" data-name="Layer 2" xmlns="http://www.w3.org/2000/svg" viewBox="0 0 151.62 154.3">
  <defs>
    <style>
      .cls-1 {
        fill: #244551;
      }

      .cls-2 {
        fill: #7dcfd8;
      }
    </style>
  </defs>
  <g id="Layer_1-2" data-name="Layer 1">
    <g>
      <path class="cls-1" d="M120.59,47.36c-29.03-5.25-58.05-10.51-87.08-15.76-4.12-.75-8.24-1.49-12.36-2.24l2.99,7.34c6.34-12.77,16.06-26.7,31.88-26.73,4.51-.01,9.37,1.44,13.88,2.3,19.74,3.77,39.47,7.54,59.21,11.3,5.39,1.03,10.79,2.06,16.18,3.09l-3.67-4.82c-.51,7.49-7.12,14.2-13.85,19.05-10.23,7.36-21.79,12.84-33.1,18.32-25.8,12.51-53.48,24.72-73.53,45.9C10.08,116.8,2.27,131.15.07,147.19c-.43,3.13,1.23,6.36,4.82,6.33,39.05-.32,78.1-.65,117.15-.97,5.47-.05,10.93-.09,16.4-.14,3.26-.03,5.67-3.17,4.82-6.33-4-14.88-14.64-27.44-29.31-32.58-7.69-2.69-15.35-2.14-23.24-1.44l-59.42,5.27c-6.04.54-12.07,1.07-18.11,1.61-6.36.56-6.42,10.57,0,10,28.07-2.49,56.13-5.38,84.22-7.47,17.48-1.3,31.77,10.72,36.22,27.28,1.61-2.11,3.21-4.22,4.82-6.33-39.05.32-78.1.65-117.15.97-5.47.05-10.93.09-16.4.14,1.61,2.11,3.21,4.22,4.82,6.33,4.1-29.87,27.88-48.96,52.58-63.01,23.37-13.29,50.03-22.06,71.7-38.17,8.96-6.66,16.83-15.16,17.62-26.81.14-2.03-1.64-4.43-3.67-4.82-15.46-2.95-30.91-5.9-46.37-8.85l-30.4-5.8C65.55,1.3,59.79-.31,54.02.05,35.41,1.24,23.24,16.08,15.5,31.66c-1.31,2.64-.4,6.73,2.99,7.34,29.03,5.25,58.05,10.51,87.08,15.76,4.12.75,8.24,1.49,12.36,2.24,6.29,1.14,8.99-8.5,2.66-9.64h0Z"/>
      <g>
        <path class="cls-2" d="M58.76,5.08c-18.13-1.35-30.3,11.39-38.94,29.11l99.44,18c15.66-8.92,26.7-18.24,27.36-30.33L58.76,5.08Z"/>
        <path class="cls-1" d="M58.76.08C37.95-1.07,24.06,14.42,15.5,31.66c-1.31,2.64-.4,6.73,2.99,7.34,15.92,2.88,31.84,5.76,47.76,8.64,11.16,2.02,22.33,4.04,33.49,6.06,5.91,1.07,11.9,2.55,17.88,3.24,3.23.37,5.26-1.04,7.98-2.69,4.69-2.85,9.27-5.97,13.41-9.59,6.92-6.04,11.84-13.54,12.62-22.82.17-2.02-1.66-4.44-3.67-4.82-25.59-4.89-51.18-9.77-76.77-14.66-3.7-.71-7.39-1.41-11.09-2.12-6.29-1.2-8.98,8.44-2.66,9.64,25.59,4.89,51.18,9.77,76.77,14.66,3.7.71,7.39,1.41,11.09,2.12l-3.67-4.82c-1.05,12.54-15.23,20.45-24.88,26.02l3.85-.5c-29.02-5.25-58.05-10.51-87.07-15.76-4.12-.75-8.24-1.49-12.36-2.24l2.99,7.34c7.01-14.12,17.33-27.59,34.62-26.64,6.43.35,6.41-9.65,0-10Z"/>
      </g>
      <g>
        <path class="cls-2" d="M102.79,117.1c-1.79-.11-3.59-.02-5.37.13l-84.22,7.47c-4.2,7.34-7.12,15.48-8.31,24.59l133.55-1.11c-.07-.27-.14-.54-.22-.83-4.9-17.38-19.18-29.26-35.42-30.25Z"/>
        <path class="cls-1" d="M102.79,112.1c-13.23-.36-26.91,2.04-40.06,3.21-15.75,1.4-31.5,2.79-47.24,4.19-2.63.23-4.8.32-6.61,2.68-5.22,6.81-7.63,17.52-8.81,25.78-.45,3.13,1.24,6.36,4.82,6.33,39.05-.32,78.1-.65,117.15-.97,5.47-.05,10.93-.09,16.4-.14,3.26-.03,5.67-3.17,4.82-6.33-5.09-18.96-20.71-33.17-40.47-34.75-6.42-.51-6.38,9.49,0,10,15.29,1.22,26.95,13,30.83,27.41l4.82-6.33c-39.05.32-78.1.65-117.15.97-5.47.05-10.93.09-16.4.14l4.82,6.33c1.19-8.33,3.7-16.04,7.8-23.4l-4.32,2.48c25.02-2.22,50.05-4.44,75.07-6.66,4.81-.43,9.69-1.08,14.52-.95,6.44.18,6.43-9.82,0-10Z"/>
      </g>
    </g>
  </g>
</svg>