<?xml version="1.0" encoding="UTF-8"?>
<svg id="Layer_2" data-name="Layer 2" xmlns="http://www.w3.org/2000/svg" viewBox="0 0 124.77 147.99">
  <defs>
    <style>
      .cls-1 {
        fill: #244551;
      }

      .cls-2 {
        fill: #daefec;
      }
    </style>
  </defs>
  <g id="Layer_1-2" data-name="Layer 1">
    <g>
      <path class="cls-2" d="M73.35,143.16s.33-76.95,4.49-104.69c-24.32-1.58-48.63-3.79-72.88-6.64.16-.73.33-1.51.51-2.34C10.14,8.48,32.71,1.49,57.3,6.49l62.45,8.48-3.76,28.27-38.14-4.76"/>
      <path class="cls-1" d="M78.35,143.16c.06-13.79.31-27.58.67-41.36.54-20.58.65-41.6,3.64-62,.49-3.34-1.28-6.1-4.82-6.33-24.35-1.6-48.64-3.81-72.88-6.64l4.82,6.33c2.56-11.77,9.61-19.17,21.44-22,8.89-2.12,17.61-.9,26.49.38,15.01,2.15,30.06,4.08,45.09,6.12,5.2.71,10.41,1.41,15.61,2.12l-3.67-4.82c-1.25,9.42-2.51,18.85-3.76,28.27l5-5c-12.71-1.59-25.43-3.18-38.14-4.76-6.37-.8-6.31,9.21,0,10,12.71,1.59,25.43,3.18,38.14,4.76,2.92.37,4.68-2.61,5-5,1.25-9.42,2.51-18.85,3.76-28.27.25-1.91-1.72-4.56-3.67-4.82-14.11-1.92-28.23-3.83-42.34-5.75C61.67,2.08,42.95-2.85,26.11,2.19,12.2,6.35,3.2,16.44.14,30.51c-.75,3.46,1.51,5.94,4.82,6.33,24.23,2.82,48.53,5.04,72.88,6.64l-4.82-6.33c-3.07,20.94-3.4,42.36-3.97,63.49-.38,14.17-.64,28.35-.7,42.53-.03,6.44,9.97,6.44,10,0h0Z"/>
    </g>
  </g>
</svg>