<?xml version="1.0" encoding="UTF-8"?>
<svg id="Layer_2" data-name="Layer 2" xmlns="http://www.w3.org/2000/svg" viewBox="0 0 93.29 149.82">
  <defs>
    <style>
      .cls-1 {
        fill: #f26522;
      }

      .cls-2 {
        fill: #940f12;
      }
    </style>
  </defs>
  <g id="Layer_1-2" data-name="Layer 1">
    <g>
      <path class="cls-1" d="M45.33,88.67c18.73,41.94,7.54,53.86-3.56,55.95-10.2,1.92-12.32-5.07-13.89-14.78-.63-3.89-3.23-25.6-14.7-33.06-8.09-5.26-8.19-26.51-6.72-35.78.57-3.59.68-9.5.45-13.11-.36-5.63-.7-10.47-1.67-16.15-.73-4.28.06-8.76,2.52-12.45,3.57-5.35,22.79-7.37,22.79-7.37,22.74-10.86,39.17-5.9,39.17-5.9,9.61.87,15.28,10.32,12.78,19.46,0,0,13.8,13.78-.39,31.41-.19.24.26.4.48.86,5.78,12.41.33,22.97-3.22,25.51-8.35,5.96-34.04,5.4-34.04,5.4"/>
      <path class="cls-2" d="M41.01,91.2c5.05,11.46,12.37,27.6,8.54,40.49-.83,2.79-2.47,5.09-4.23,6.26s-6.36,3.25-9,1.45c-3.57-2.44-3.48-10.12-4.12-14.04-.93-5.63-2.27-11.19-4.4-16.49-2.53-6.3-5.93-11.45-11.19-15.76-4.51-3.68-5.26-10.25-5.67-15.78-.46-6.2.14-12.16.76-18.3.9-8.86-.07-17.97-1.34-26.74-.53-3.61-.8-8.47,2.48-10.85,2.17-1.57,5.39-2.15,7.93-2.76,4.2-1.01,8.35-1.09,12.31-2.43,8.44-2.85,15.94-6.08,25.03-6.33,3.48-.09,6.76.23,10.16.89,7.64,1.5,10.01,5.93,9.43,13.35-.35,4.43,2.75,5.99,4.35,9.6,1.41,3.18,1.85,6.71,1.18,10.14-.47,2.38-1.48,4.59-2.73,6.66-1.38,2.28-3.6,4.13-3.27,7.01.21,1.81,1.38,3.28,1.92,5.01.83,2.65,1.2,5.44.91,8.22s-1.34,6.66-3.68,8.52c-4.41,3.51-12.92,3.58-18.25,3.97-4.25.31-8.52.47-12.78.38-6.44-.13-6.44,9.87,0,10,10.01.2,21.04-.12,30.59-3.32,5.67-1.9,9.54-5.07,11.93-10.62,1.61-3.73,2.42-7.87,2.25-11.94-.09-2.06-.39-4.18-.86-6.18-.45-1.88-2.11-5.26-2.31-6.04l-.5,3.85c8.47-11.09,9.92-26.93-.39-37.47l1.29,4.86c2.87-12.43-4.18-23.25-16.58-25.69-9.91-1.95-19.94-1.32-29.67,1.46-3.89,1.11-7.5,2.78-11.27,4.2.54-.2.79,0,0,.23-.92.28-2,.26-2.95.39-4.86.7-9.8,1.58-14.41,3.3C6.81,12.8,3.13,15.78,1.14,21.64c-2.71,7.97.21,17.17.71,25.34.75,12.32-2.13,24.23-.19,36.58.83,5.27,2.36,11.06,6.08,15.08,1.6,1.73,3.7,2.85,5.32,4.56,2.12,2.24,3.67,5.05,4.9,7.86,4.02,9.13,3.68,19.14,7,28.36,3.58,9.93,13.25,12.63,22.55,8.62,23.75-10.23,9.2-45.85,2.13-61.89-2.59-5.88-11.21-.79-8.63,5.05h0Z"/>
    </g>
    <path class="cls-2" d="M52.73,66.26c-4.06.99-10.34,2.42-11.37-3-.82-4.36,1.1-5.75,5.98-6.93,4.59-1.11,9.45-1.03,14.12-.46,3.63.44,8.35.6,11.47,2.67,5.58,3.7,8.52,11.86,5.47,17.85-2.91,5.72,5.71,10.79,8.63,5.05,5.44-10.7,1.65-22.95-7.51-30.36-4.81-3.89-11.47-4.44-17.41-5.15-6.96-.83-14.45-.66-21.05,1.92-8.18,3.19-11.5,10.68-9.11,19.03,3.05,10.69,14.29,11.26,23.45,9.03,6.25-1.52,3.6-11.16-2.66-9.64h0Z"/>
    <path class="cls-2" d="M44.27,46.58c-7.63-.7-4.6-6.94-.66-9.44,4.42-2.81,9.94-4.1,15.08-4.79s10.49-.83,15.59-.05c2.11.32,4.33.8,6.28,1.65.38.16,1.63.9,1.45.79.76.49.76,1.02.6.54,2.03,6.07,11.69,3.47,9.64-2.66-2.21-6.62-9.44-9.03-15.73-10.03-8.34-1.32-17.02-.88-25.25,1.01-7.07,1.62-15.21,4.72-19.37,11.08-6.61,10.09,1.32,20.91,12.37,21.92,6.41.59,6.37-9.42,0-10h0Z"/>
    <path class="cls-2" d="M41.28,27.27c-8.9-1.3-2.79-14.78,3.97-15.46,6.34-.63,6.41-10.64,0-10-9.23.92-16.32,7.37-17.91,16.61-1.4,8.13,2.35,17.19,11.28,18.49,6.29.92,9.01-8.72,2.66-9.64h0Z"/>
  </g>
</svg>