<?xml version="1.0" encoding="UTF-8"?>
<svg id="Layer_2" data-name="Layer 2" xmlns="http://www.w3.org/2000/svg" viewBox="0 0 150.6 142.17">
  <defs>
    <style>
      .cls-1 {
        fill: #244551;
      }

      .cls-2 {
        fill: #daefec;
      }
    </style>
  </defs>
  <g id="Layer_1-2" data-name="Layer 1">
    <g>
      <path class="cls-2" d="M5.02,70.89c5.04,77.2,91.45,85.84,130.14,25.97,3.05-4.72-19.46-8.81-15.45-8.51,28.34,2.15,33.83,35.34,15.45,8.51C75.22,178.97,1.32,118.09,5.02,70.89,13.19-33.45,147.33,7.51,124.13,49.55L5.02,70.89"/>
      <path class="cls-1" d="M.02,70.89c2.24,31.26,19.4,60.67,51.5,68.29,29.72,7.05,60.82-6.29,80.05-29.14,4.38-5.2,13.1-13.57,5.83-19.81-2.61-2.24-6.19-3.41-9.4-4.46-1.59-.52-3.2-.97-4.81-1.42-.97-.27-3.13-1.47-1.44-.29v8.63c-2.33,1.46-3.11.45-.21.87,1.35.2,2.69.52,4,.9,2,.58,3.9,1.37,5.72,2.4,2.95,1.66,5.73,3.84,7.78,6.56.68.9,1.07,2.26,1.81,3.04-.3-.32.14.07.02.08-.5.04,4.71-6.95,5.65-3.93-.04-.13-1.56-1.33-2.2-2.01-1.81-1.93-3.34-4.09-4.85-6.26-2.28-3.28-6.33-3.12-8.63,0-19.1,25.86-50.2,47.61-83.01,33.32-21.21-9.24-39.2-31.99-37.87-55.91,1.3-23.29,11.9-46.56,34.07-56.45,16.94-7.55,37.48-6.64,54.48.25,7.41,3,15.29,7.9,19.57,13.87s4.94,11.65,1.73,17.62l2.99-2.3c-34.79,6.23-69.59,12.47-104.38,18.7-4.91.88-9.82,1.76-14.73,2.64-6.32,1.13-3.64,10.77,2.66,9.64,29.89-5.36,59.78-10.71,89.67-16.07l21.85-3.91c3.13-.56,7.98-.52,10.19-3.15,8.11-9.66,2.54-24.61-4.87-32.58C103.13-1.58,65.15-5.06,39.33,6.5,4.01,22.33-10.27,71.27,8.31,104.46c9.87,17.63,27.28,31.65,47.12,36.15,25.29,5.74,49.69-4.99,67.86-22.4,5.99-5.75,11.26-12.16,16.19-18.83h-8.63c3.01,4.33,7.87,12.72,14.05,12.88s6.65-6.41,4.7-10.63c-2.39-5.15-6.88-9.36-11.59-12.39-3.32-2.14-7.09-3.75-10.92-4.73-2.84-.72-7.62-2.19-10.38-.46-3.35,2.09-3.09,6.49,0,8.63s8.29,2.32,11.85,3.87c.52.23,1.72,1.22,2.25,1.16.7-.07.71,2.72.22-1.54-.39-3.4-.05-1.38-1.19-.32-2.58,2.38-4.48,6.19-6.85,8.87-8.74,9.87-19.74,17.87-32.22,22.29-22.19,7.87-47.8,4.25-64.2-13.53-10.66-11.56-15.44-27.18-16.54-42.6-.46-6.38-10.46-6.43-10,0H.02Z"/>
    </g>
  </g>
</svg>