<?xml version="1.0" encoding="UTF-8"?>
<svg id="Layer_2" data-name="Layer 2" xmlns="http://www.w3.org/2000/svg" viewBox="0 0 145.2 135.59">
  <defs>
    <style>
      .cls-1 {
        fill: #244551;
      }

      .cls-2 {
        fill: #7dcfd8;
      }

      .cls-3 {
        fill: #daefec;
      }

      .cls-4 {
        fill: #fff;
      }
    </style>
  </defs>
  <g id="Layer_1-2" data-name="Layer 1">
    <g>
      <path class="cls-2" d="M9.46,103.97C-.33-49.4,159-4.17,130.79,101.4l-19.22-.31C121.46-6.23,15.94,2.66,30.1,103.57l-20.64.4"/>
      <path class="cls-1" d="M14.46,103.97c-1.99-32.76,2.96-81.32,40.9-92.2,26.44-7.59,54.16,9,66.31,32.74,8.8,17.2,9.13,37.16,4.3,55.57l4.82-3.67c-6.41-.1-12.81-.21-19.22-.31l5,5c2.39-27.2-1.51-65.59-30.13-78.52-22.52-10.17-45.42,4.55-55.03,25.27-8.28,17.84-8.74,37.87-6.13,57.06,1.61-2.11,3.21-4.22,4.82-6.33-6.88.13-13.76.27-20.64.4-6.43.12-6.45,10.12,0,10,6.88-.13,13.76-.27,20.64-.4,3.59-.07,5.26-3.12,4.82-6.33-3.14-23.17-.99-55.59,21.72-68.95,17.07-10.05,34.86.08,43.17,16.66,7.81,15.59,8.26,34.14,6.77,51.14-.24,2.73,2.49,4.96,5,5,6.41.1,12.81.21,19.22.31,2.17.04,4.27-1.58,4.82-3.67,9.23-35.18-1.22-74.58-34.02-93.61C88.46,1.5,72.99-1.74,57.97.91c-15.87,2.8-29.27,12.81-38.11,26.05C5.01,49.18,2.89,78.07,4.46,103.97c.39,6.39,10.39,6.44,10,0h0Z"/>
    </g>
    <g>
      <path class="cls-3" d="M27.98,103.56C12.19,2.83,126.15-7.14,115.87,101.1l-18.71-.24c3.79-74.25-58.82-65.43-48.41,2.34l-20.77.36"/>
      <path class="cls-1" d="M32.8,102.23c-3.66-24.12-.51-56,23.34-69.15,18.08-9.97,37.87-.68,47.23,16.65,8.38,15.53,9.05,34.18,7.5,51.36l5-5c-6.24-.08-12.47-.16-18.71-.24l5,5c.83-18.29-1.35-45.93-20.65-54.99-15.7-7.37-29.64,5.32-35.06,19.36-4.81,12.46-4.44,26.31-2.53,39.3,1.61-2.11,3.21-4.22,4.82-6.33-6.92.12-13.85.24-20.77.36-6.43.11-6.45,10.11,0,10,6.92-.12,13.85-.24,20.77-.36,3.56-.06,5.29-3.13,4.82-6.33-2.08-14.17-2.38-35.64,10.61-45.34,3.8-2.84,7.95-3.61,12.08-2.08,5.09,1.89,8.87,7.2,11.17,12.23,4.81,10.55,5.25,22.79,4.74,34.17-.12,2.73,2.39,4.97,5,5,6.24.08,12.47.16,18.71.24,2.88.04,4.76-2.33,5-5,2.59-28.64-2.88-66.8-33.25-79.14-23.35-9.49-47.75,4.62-58.22,26.01-8.66,17.69-9.16,37.78-6.25,56.92.96,6.34,10.6,3.65,9.64-2.66h0Z"/>
    </g>
    <g>
      <path class="cls-4" d="M127.54,119.92c14.97,6.64,19.14-18.28-1.09-16.08,5.67-16.4-30.43-15.35-26.21.39-11.92-.29-15.26,21.28,3.16,16.96,5.89,16.02,23.37,8.9,24.14-1.27"/>
      <path class="cls-1" d="M126.21,124.74c8.52,3.46,18.34-1.19,18.96-10.88.68-10.59-9.33-15.8-18.72-15.02l4.82,6.33c7.43-24.03-41.52-24.29-35.85.39,1.61-2.11,3.21-4.22,4.82-6.33-8.2.15-15.01,7-14.79,15.33.28,10.54,10.57,13.26,19.28,11.45l-6.15-3.49c3.35,8.3,10.2,14.59,19.7,12.75,7.73-1.5,13.32-7.62,14.26-15.35.78-6.37-9.23-6.32-10,0-.35,2.83-3.49,4.99-6.05,5.53-4.07.86-6.84-2.04-8.27-5.59-1.06-2.63-3.24-4.1-6.15-3.49-2.68.56-6.78,1.06-6.62-2.48.12-2.57,2.25-4.61,4.79-4.65,3.35-.06,5.55-3.14,4.82-6.33-1.7-7.41,19.19-8.89,16.56-.39-.9,2.91,1.61,6.6,4.82,6.33s9.11-.05,8.76,4.39c-.26,3.28-3.44,3.05-6.35,1.87-5.96-2.42-8.55,7.25-2.66,9.64h0Z"/>
    </g>
    <g>
      <path class="cls-4" d="M16.77,115.87c-15.2,6.1-17.17-18.8,2.97-15.88-6.13-12.36,31.57-16.04,24.87,1.18,11.92.14,14.73,22.85-3.52,17.87-6.46,15.8-23.91,7.02-24.31-3.17"/>
      <path class="cls-1" d="M15.44,111.05c-3.11,1.14-5.93,1.01-5.43-2.24.66-4.24,6.22-4.24,9.72-3.82,4.19.5,5.66-4.52,4.32-7.52-.24-.54.15-.24.04-.13-.04.03.94-.85,1.59-1.21,2.1-1.16,4.69-1.59,7.08-1.65,2.22-.05,4.91.08,6.78,1.4,1.16.82,1.05,1.69.24,3.96-1.15,3.23,1.81,6.16,4.82,6.33,2.67.15,4.61,2.93,4.55,5.51-.09,3.81-3.79,3.27-6.74,2.54-1.96-.48-4.74.27-5.65,2.3-1.7,3.8-4.22,7.14-8.78,5.86-2.83-.79-5.95-3.4-6.22-6.51-.55-6.36-10.55-6.42-10,0,.66,7.64,6.14,14.07,13.56,16.15,8.75,2.45,16.52-2.51,20.07-10.46l-5.65,2.3c8.89,2.18,19.02-.89,19.39-11.5.3-8.49-6.06-15.73-14.53-16.2,1.61,2.11,3.21,4.22,4.82,6.33,9.1-25.61-43.93-22.25-34.01.02l4.32-7.52C10.4,93.87-.06,98.84,0,109.43c.06,9.75,9.59,14.38,18.1,11.26,5.99-2.2,3.4-11.87-2.66-9.64h0Z"/>
    </g>
  </g>
</svg>