<?xml version="1.0" encoding="UTF-8"?>
<svg id="Layer_2" data-name="Layer 2" xmlns="http://www.w3.org/2000/svg" viewBox="0 0 134.02 154.21">
  <defs>
    <style>
      .cls-1 {
        fill: #244551;
      }

      .cls-2 {
        fill: #daefec;
      }
    </style>
  </defs>
  <g id="Layer_1-2" data-name="Layer 1">
    <g>
      <path class="cls-2" d="M33.29,148.97c32.58-40.35,63.44-76.13,96.02-116.48-6.27,8-17.34,19.48-23.61,27.48-4.83-9.72-10.42-20.19-20.41-24.43-8.15-3.46-17.48-1.98-26.22-3.36-14.5-2.3-27.27-13.25-31.75-27.23C21.03,10.76,5.53,25.12,5,26.99c-.57,2.01,10.48,31.78,22.51,36.29,7.7,2.89,16.25,1.38,24.48,1.29,8.23-.09,17.61,2.05,21.56,9.27,3.16,5.78,1.79,12.9,2.89,19.39"/>
      <path class="cls-1" d="M36.83,152.5c31.63-39.14,64.39-77.34,96.02-116.48l-7.07-7.07c-7.51,9.46-16.1,18.02-23.61,27.48l7.85,1.01c-3.6-7.21-7.48-14.62-13.4-20.22-6.8-6.43-15.06-8.63-24.22-9.14s-17.34-.74-25.3-5.69c-6.98-4.33-12.31-11.01-14.97-18.78C30.9.02,26.64-1.23,23.78,1.42,16.99,7.69,9.99,13.87,3.71,20.66,1.84,22.67-.02,24.61,0,27.52c.02,2.71,1.33,5.62,2.28,8.09,3.34,8.71,7.56,17.32,13.52,24.54,7.79,9.44,18.32,10.25,29.97,9.67,6.66-.33,14.52-.98,20.3,3.09,6.49,4.58,4.57,14.74,5.54,21.66.88,6.35,10.52,3.65,9.64-2.66-1.16-8.34.31-16.94-5.68-23.82-4.53-5.2-11.34-7.46-18-8.21-8.41-.95-17.08,1.4-25.38-.43-5.33-1.17-8.52-4.95-11.46-9.34-3.1-4.63-5.7-9.68-7.86-14.81-.83-1.98-1.61-3.99-2.25-6.04-.16-.52-.24-1.22-.5-1.7-.55-1.04-.03-.58-.13-.4-2.53,4.3.95.41,2.02-.7,1.81-1.86,3.67-3.67,5.54-5.47,4.39-4.22,8.85-8.36,13.32-12.5l-8.36-2.21c5.23,15.3,18.39,27.71,34.55,30.6,9.45,1.69,20.46-.58,28.96,4.67,7.48,4.62,11.6,13.36,15.38,20.95,1.33,2.66,5.91,3.46,7.85,1.01,7.51-9.46,16.1-18.02,23.61-27.48,3.95-4.97-3.01-12.1-7.07-7.07-31.63,39.14-64.39,77.34-96.02,116.48-4.01,4.96,3.02,12.08,7.07,7.07h0Z"/>
    </g>
  </g>
</svg>