<?xml version="1.0" encoding="UTF-8"?>
<svg id="Layer_2" data-name="Layer 2" xmlns="http://www.w3.org/2000/svg" viewBox="0 0 95.56 142.38">
  <defs>
    <style>
      .cls-1 {
        fill: #244551;
      }

      .cls-2 {
        fill: #87c8cb;
      }

      .cls-3 {
        fill: #daefec;
      }
    </style>
  </defs>
  <g id="Layer_1-2" data-name="Layer 1">
    <g>
      <g>
        <path class="cls-2" d="M14.55,137.61C10.22,96.4,4.48,15.51,5.17,15.07,62.72-21.1,112,49.24,43.96,79.36c1.9,3.89,46.81,30.09,46.68,30.67,0,0-22.59,13.65-23.4,13.37-.62-.21-54.75-33.61-54.75-33.61"/>
        <path class="cls-1" d="M19.55,137.61c-3.97-38.05-7.04-76.31-9.14-114.51-.11-2-.11-4.03-.28-6.03-.03-.41.14-1.17-.02-1.54v-.15c.11-1.33-.31-.23-1.25,3.3.49.19,4.05-2.29,4.67-2.6,8.3-4.24,17.57-6.62,26.92-5.98,13.46.91,26.86,9.35,30.57,22.82,5.57,20.19-13.47,34.86-29.59,42.14-2.46,1.11-3.04,4.7-1.79,6.84,1.83,3.13,5.68,5.26,8.57,7.24,5.09,3.49,10.32,6.77,15.56,10.03,5.21,3.25,10.45,6.45,15.68,9.66,1.95,1.2,3.91,2.39,5.85,3.62.54.34,1.09.82,1.68,1.07,1.62.71-.05.3-.66-.96l1.79-6.84c-5.45,3.29-10.92,6.56-16.45,9.73-1.39.8-2.79,1.6-4.21,2.36-3.94,2.1,1.27-.5,2.19,1.23-.43-.81-2.93-1.76-3.69-2.22-12.95-7.88-25.84-15.85-38.74-23.8-4.07-2.51-8.14-5.02-12.21-7.53-5.49-3.39-10.52,5.26-5.05,8.63,10.88,6.71,21.76,13.41,32.64,20.11,6.25,3.84,12.49,7.69,18.76,11.5,1.08.66,2.17,1.48,3.33,2,3.18,1.4,5.63-.09,8.42-1.6,6.8-3.7,13.42-7.75,20.05-11.76,2.44-1.47,2.99-4.38,1.79-6.84s-5.37-4.19-7.51-5.51c-5.03-3.11-10.07-6.17-15.1-9.28-5.36-3.32-10.71-6.65-15.96-10.13-2.12-1.4-4.26-2.8-6.29-4.34-.49-.37-.6-.54-1.27-1.01-.85-.6-.97-1.14-.54-.4l-1.79,6.84c17.81-8.05,35.89-23.15,35.47-44.48-.33-16.97-12.56-30.84-28.06-36.44C44.84-.51,34.87-.69,25.5,1.25c-5.5,1.14-10.82,3.14-15.86,5.6C5.8,8.73.57,10.58.12,15.37s.38,9.51.66,14.06c.62,9.92,1.32,19.84,2.05,29.75,1.93,26.16,3.98,52.33,6.71,78.42.66,6.34,10.67,6.4,10,0h0Z"/>
      </g>
      <g>
        <path class="cls-3" d="M28.65,29.2l1.55,28.43c28.25-2.01,18.67-35.49-1.55-28.43"/>
        <path class="cls-1" d="M23.65,29.2c.52,9.48,1.03,18.95,1.55,28.43.14,2.51,2.19,5.25,5,5,12.68-1.14,24.83-9.38,22.28-23.59-2.13-11.85-13.92-18.27-25.16-14.66-6.1,1.96-3.49,11.62,2.66,9.64,5.75-1.85,11.69.52,12.73,6.97,1.22,7.59-6.06,11.06-12.51,11.64l5,5c-.52-9.48-1.03-18.95-1.55-28.43-.35-6.4-10.35-6.44-10,0h0Z"/>
      </g>
    </g>
  </g>
</svg>