<?xml version="1.0" encoding="UTF-8"?>
<svg id="Layer_2" data-name="Layer 2" xmlns="http://www.w3.org/2000/svg" viewBox="0 0 249.29 333.99">
  <defs>
    <style>
      .cls-1 {
        fill: #244551;
      }

      .cls-2 {
        fill: #f26522;
      }

      .cls-3 {
        fill: #87c8cb;
      }

      .cls-4 {
        fill: #940f12;
      }

      .cls-5 {
        fill: #f9e3ad;
      }
    </style>
  </defs>
  <g id="Animal_Posters" data-name="Animal Posters">
    <g>
      <path class="cls-5" d="M71.33,298.71c-4.1-.46-8.24,2.93-8.59,7.05-.35,4.11,3.15,8.16,7.27,8.4,4.51.26,8.23-3.28,11.32-6.57-.38,4.08-1.66,8.12-1.25,12.19.4,4.08,3.27,8.39,7.37,8.47,2.31.05,4.48-1.29,5.98-3.06,1.5-1.76,2.44-3.93,3.34-6.06,2.94,2.18,6.27,3.83,9.78,4.86,1.29.38,2.8.64,3.9-.14.95-.68,1.27-1.93,1.52-3.07.87-4.04,1.52-8.75-1.2-11.86-1.81-2.07-4.65-2.83-7.32-3.48-10.37-2.55-20.74-5.11-31.11-7.66"/>
      <path class="cls-5" d="M71.33,296.21c-3.92-.34-7.84,1.93-9.79,5.31-2.1,3.64-1.52,8.02,1.06,11.25,2.57,3.21,6.71,4.57,10.69,3.53s7.09-4.06,9.82-6.95c-1.42-.59-2.85-1.18-4.27-1.77-.42,4.17-1.71,8.31-1.21,12.53.38,3.24,1.84,6.49,4.42,8.57,2.92,2.34,6.67,2.63,9.97.87,3.56-1.9,5.41-5.61,6.92-9.16l-3.42.9c2.11,1.54,4.36,2.8,6.77,3.81s4.96,2.09,7.5,1.64,4-2.69,4.56-5.13c.51-2.25.93-4.61.88-6.93s-.55-4.57-1.83-6.45c-1.46-2.13-3.61-3.41-5.99-4.27s-4.74-1.3-7.11-1.88c-2.79-.69-5.58-1.38-8.38-2.06-6.3-1.55-12.6-3.1-18.9-4.66-3.12-.77-4.46,4.05-1.33,4.82,9.49,2.34,18.98,4.68,28.48,7.01,3.12.77,7.95,1.2,9.49,4.53.69,1.49.64,3.27.5,4.87-.08.87-.23,1.73-.4,2.59-.13.67-.19,1.79-.59,2.36-.36.52-.79.34-1.41.19-1.17-.28-2.33-.69-3.44-1.15-2.23-.92-4.33-2.18-6.28-3.6-1-.73-2.93-.26-3.42.9-1.07,2.52-2.2,5.54-4.62,7.07-1.92,1.21-3.86.96-5.39-.69-4.07-4.36-1.28-11.56-.76-16.67.22-2.19-2.86-3.25-4.27-1.77-3.02,3.19-8.44,8.59-12.74,4.21-1.47-1.5-2.1-3.74-1.14-5.68,1.06-2.15,3.29-3.34,5.64-3.14,1.35.12,2.5-1.23,2.5-2.5,0-1.45-1.15-2.38-2.5-2.5h0Z"/>
    </g>
    <g>
      <path class="cls-5" d="M178.64,298.71c4.1-.46,8.24,2.93,8.59,7.05.35,4.11-3.15,8.16-7.27,8.4-4.51.26-8.23-3.28-11.32-6.57.38,4.08,1.66,8.12,1.25,12.19-.4,4.08-3.27,8.39-7.37,8.47-2.31.05-4.48-1.29-5.98-3.06-1.5-1.76-2.44-3.93-3.34-6.06-2.94,2.18-6.27,3.83-9.78,4.86-1.29.38-2.8.64-3.9-.14-.95-.68-1.27-1.93-1.52-3.07-.87-4.04-1.52-8.75,1.2-11.86,1.81-2.07,4.65-2.83,7.32-3.48,10.37-2.55,20.74-5.11,31.11-7.66"/>
      <path class="cls-5" d="M178.64,301.21c2.32-.2,4.43.93,5.56,2.98,1.08,1.96.46,4.29-1.05,5.83-4.29,4.4-9.74-1.04-12.74-4.21-1.39-1.47-4.49-.43-4.27,1.77.52,5.15,3.29,12.27-.76,16.67-1.45,1.58-3.36,1.91-5.23.79-2.53-1.52-3.69-4.59-4.79-7.18-.49-1.16-2.43-1.62-3.42-.9-1.77,1.29-3.66,2.43-5.67,3.33-.87.39-1.77.72-2.68,1.02-.55.18-1.84.79-2.43.54-.9-.38-1.04-3.11-1.18-4.01-.25-1.58-.4-3.32-.04-4.89.87-3.77,4.7-4.49,7.97-5.3,4.71-1.16,9.41-2.32,14.12-3.48,5.42-1.34,10.85-2.67,16.27-4.01,3.12-.77,1.8-5.59-1.33-4.82-5.58,1.38-11.17,2.75-16.75,4.13-5.39,1.33-10.85,2.49-16.19,4.01-2.2.63-4.37,1.54-6.07,3.12-1.86,1.72-2.79,4.11-3.09,6.58-.27,2.25.02,4.53.43,6.75.42,2.28.94,4.89,3.12,6.16,2.56,1.48,5.62.44,8.16-.55,2.81-1.09,5.45-2.49,7.88-4.26l-3.42-.9c1.51,3.56,3.36,7.25,6.92,9.16,3.29,1.77,7.06,1.48,9.97-.87,2.59-2.08,4.04-5.33,4.42-8.57.5-4.23-.79-8.36-1.21-12.53-1.42.59-2.85,1.18-4.27,1.77,2.73,2.89,5.85,5.92,9.82,6.95s8.12-.32,10.69-3.53c2.58-3.22,3.16-7.61,1.06-11.25-1.95-3.38-5.87-5.64-9.79-5.31-1.35.11-2.5,1.07-2.5,2.5,0,1.26,1.15,2.62,2.5,2.5h0Z"/>
    </g>
    <g>
      <path class="cls-2" d="M68.11,33.58c-10.3-8.95-20.59-17.9-30.89-26.85.59,8.44-2.46,16.66-5.26,24.64-10.96,31.29-18.71,63.7-23.11,96.57-1.46,10.91-2.55,21.89-2.46,32.89.13,16.52,2.9,32.89,5.67,49.17,1.61,9.47,3.25,19.05,7.03,27.89,6.82,15.96,19.98,28.18,32.78,39.9,5.14,4.71,10.37,9.48,16.59,12.63,8.46,4.29,18.16,5.29,27.6,6.22,20.72,2.05,41.2,2.65,63.36.68,6.72-.6,7.98-3.74,13.51-4.31,3.18-.33,7.18-4.98,10.09-6.31,2.49-1.14,4.3-3.35,6.45-5.05,3.9-3.08,8.87-4.41,13.3-6.67,12.06-6.16,19.35-18.75,24.7-31.19,16.33-38.02,20.51-81.14,11.79-121.59-2.24-10.41-.37-15.49-1.3-26.1-.6-6.87-5.26-19.01-5.83-25.88-1.87-22.42-12.85-42.89-19.85-64.27-7.94,7.92-15.88,15.83-23.82,23.75-1.49,1.48-3.04,3.01-5.01,3.73-2.06.76-4.33.54-6.51.32-15.31-1.55-30.63-3.1-45.94-4.64,3.74-.83,7.48-1.66,11.22-2.48-24.96-1.7-50.24,1.6-73.92,9.66"/>
      <path class="cls-2" d="M69.88,31.81c-10.3-8.95-20.59-17.9-30.89-26.85-1.51-1.31-4.41-.55-4.27,1.77.41,6.58-1.37,12.9-3.46,19.07-2.09,6.17-4.28,12.3-6.25,18.52-3.95,12.46-7.41,25.08-10.35,37.81-2.98,12.89-5.43,25.9-7.35,38.99-1.96,13.39-3.58,26.9-3.41,40.45.17,13.56,2.09,27.03,4.29,40.38,2.1,12.73,3.76,25.86,8.99,37.77,4.63,10.55,12.11,19.6,20.15,27.73,4.03,4.07,8.24,7.96,12.46,11.83,4.48,4.11,9.01,8.26,14.19,11.49,10.69,6.66,23.55,7.63,35.78,8.73,12.89,1.16,25.83,1.73,38.77,1.47,6.64-.14,13.27-.48,19.89-1.05,2.79-.24,5.36-.72,7.92-1.86,1.76-.78,3.26-1.72,4.94-2.2,1.02-.29,2.08-.3,3.09-.6,1.21-.35,2.35-1,3.38-1.71,1.9-1.31,3.58-2.94,5.54-4.16.98-.61,2.03-1.05,2.97-1.74,1.23-.9,2.34-1.94,3.47-2.96,2.1-1.89,4.49-3.22,7.06-4.37,2.52-1.13,5.12-2.09,7.57-3.37,2.45-1.28,4.72-2.87,6.85-4.63,4.12-3.4,7.53-7.6,10.45-12.05,6.34-9.67,10.62-20.82,14.23-31.75,7.75-23.45,11.18-48.38,10.11-73.05-.27-6.19-.83-12.37-1.66-18.51-.42-3.11-.9-6.21-1.46-9.29s-1.25-5.9-1.74-8.87c-.82-5.06-.46-10.15-.42-15.25s-.47-10.26-1.75-15.32c-1.23-4.86-2.76-9.64-3.79-14.55-.52-2.45-.61-4.46-.94-7.05-.38-3.03-.89-6.04-1.53-9.03-2.64-12.18-7.33-23.79-11.83-35.37-2.18-5.61-4.32-11.24-6.2-16.96-.58-1.76-2.8-2.48-4.18-1.1-4.32,4.31-8.64,8.62-12.96,12.92-2.1,2.1-4.2,4.19-6.31,6.29-2.06,2.05-4.05,4.22-6.23,6.14-2.03,1.79-4.13,2.04-6.76,1.84-2.91-.23-5.82-.58-8.73-.87-6.01-.61-12.02-1.22-18.03-1.82-6.83-.69-13.67-1.38-20.5-2.07.22,1.64.44,3.27.66,4.91,3.74-.83,7.48-1.66,11.22-2.48,2.88-.64,2.03-4.73-.66-4.91-19.64-1.32-39.49.42-58.61,5.09-5.39,1.32-10.72,2.88-15.98,4.66-3.03,1.03-1.73,5.86,1.33,4.82,18.32-6.21,37.51-9.61,56.85-9.97,5.47-.1,10.94.04,16.4.4-.22-1.64-.44-3.27-.66-4.91-3.74.83-7.48,1.66-11.22,2.48-1.2.27-1.97,1.58-1.79,2.74.2,1.31,1.18,2.04,2.46,2.17,12.51,1.27,25.03,2.53,37.54,3.8,3.02.31,6.03.63,9.06.91s5.84.15,8.43-1.36c2.42-1.41,4.34-3.63,6.3-5.59,2.22-2.21,4.44-4.42,6.66-6.64,5.02-5.01,10.04-10.01,15.06-15.02l-4.18-1.1c3.83,11.66,8.76,22.92,12.83,34.5,2,5.7,3.79,11.49,5.1,17.4.64,2.91,1.18,5.84,1.53,8.8.29,2.48.47,4.95.97,7.39.99,4.84,2.5,9.56,3.73,14.35.51,1.98,1.12,4.52,1.34,6.23.35,2.67.38,5.41.37,8.1-.03,5.2-.31,10.32.4,15.49.41,2.97,1.13,5.88,1.68,8.82.56,2.93,1.04,5.88,1.47,8.84,3.41,23.93,2.31,48.57-3.05,72.12-2.66,11.7-6.33,23.21-11.09,34.23-4.09,9.45-9.17,18.95-17.17,25.67-4.21,3.54-9.14,5.39-14.08,7.63-2.58,1.17-4.96,2.59-7.1,4.45-.99.86-1.91,1.8-2.94,2.62-.95.75-2.06,1.19-3.08,1.83-1.96,1.22-3.63,2.85-5.54,4.16-.81.55-1.66,1.08-2.45,1.27-.91.22-2.09.29-3.12.61-1.96.6-3.71,1.66-5.57,2.49-2.13.95-4.7,1.22-7.15,1.42-12.85,1.04-25.75,1.24-38.63.7-6.35-.26-12.69-.7-19.02-1.28-5.96-.55-11.97-1.06-17.84-2.29s-11.28-3.23-16.24-6.54c-4.88-3.25-9.14-7.34-13.44-11.29-8.22-7.55-16.5-15.3-22.99-24.43-3.23-4.54-6.06-9.41-8.09-14.61-2.28-5.85-3.7-11.99-4.86-18.15-2.43-12.88-4.63-25.9-5.95-38.94-1.35-13.35-1.17-26.64.22-39.98,1.35-12.87,3.4-25.69,5.88-38.39,2.47-12.67,5.45-25.25,8.92-37.68,1.76-6.29,3.64-12.55,5.65-18.77,1.98-6.12,4.22-12.15,6.19-18.26,1.91-5.92,3.36-12.11,2.97-18.37-1.42.59-2.85,1.18-4.27,1.77,10.3,8.95,20.59,17.9,30.89,26.85,1.02.89,2.53,1,3.54,0,.9-.9,1.02-2.65,0-3.54h0Z"/>
    </g>
    <g>
      <path class="cls-5" d="M8.21,151.31c.63,11.53-1.12,23.21.85,34.58,1.15,6.61-.9,19.42.62,25.95,3.87,16.56,6.88,28.46,16,42.81,2.33,3.66,5.26,6.9,8.17,10.11,2.39,2.64,4.78,5.28,7.18,7.91.99-6.34,1.97-12.7,3.56-18.92,1.71-6.71,4.12-13.23,5.71-19.96,2.01-8.48,2.71-17.21,3.11-25.91.41-8.91.42-18.23-3.56-26.21-3.9-7.83-11.14-13.37-18.14-18.62-7.29-5.47-15.07-11.14-24.13-12.05"/>
      <path class="cls-5" d="M5.71,151.31c.52,9.94-.69,19.9.23,29.83.38,4.04,1.03,7.15.99,11.2-.03,3.78-.28,7.56-.33,11.34s.25,7.04,1.08,10.55c.98,4.15,1.97,8.3,3.12,12.41,2.18,7.82,5,15.46,8.84,22.63,2.45,4.58,5.22,8.92,8.58,12.89,3.55,4.2,7.35,8.21,11.05,12.28,1.17,1.3,3.89.75,4.18-1.1.81-5.23,1.63-10.47,2.78-15.64,1.12-5.03,2.68-9.94,4.18-14.86,1.55-5.1,2.88-10.23,3.71-15.49.83-5.24,1.31-10.53,1.62-15.83.55-9.53,1.07-19.7-2.65-28.71-3.57-8.67-10.68-14.74-17.97-20.29-8.26-6.29-16.88-12.84-27.53-14-1.34-.15-2.5,1.25-2.5,2.5,0,1.47,1.15,2.35,2.5,2.5,8.62.94,15.99,6.55,22.7,11.58s13.62,10.25,17.41,17.85c4.03,8.07,3.59,17.64,3.15,26.4-.5,10.06-1.68,19.93-4.51,29.63-1.58,5.41-3.38,10.75-4.67,16.24-1.3,5.55-2.17,11.19-3.05,16.81l4.18-1.1c-3.25-3.58-6.53-7.13-9.73-10.76-2.97-3.37-5.47-6.96-7.7-10.86-3.94-6.86-6.88-14.15-9.11-21.73-1.14-3.87-2.12-7.79-3.07-11.72-.47-1.94-1.02-3.89-1.33-5.86-.17-1.08-.25-2.97-.27-4.37-.05-3.72.19-7.43.29-11.15.1-3.54-.08-6.93-.61-10.42-1.64-10.82,0-21.85-.57-32.73-.17-3.2-5.17-3.22-5,0h0Z"/>
    </g>
    <g>
      <path class="cls-5" d="M241.42,150.36c-.63,11.53,1.12,23.21-.85,34.58-1.15,6.61.9,19.42-.62,25.95-3.87,16.56-6.88,28.46-16,42.81-2.33,3.66-5.26,6.9-8.17,10.11-2.39,2.64-4.78,5.28-7.18,7.91-.99-6.34-1.97-12.7-3.56-18.92-1.71-6.71-4.12-13.23-5.71-19.96-2.01-8.48-2.71-17.21-3.11-25.91-.41-8.91-.42-18.23,3.56-26.21,3.9-7.83,11.14-13.37,18.14-18.62,7.29-5.47,15.07-11.14,24.13-12.05"/>
      <path class="cls-5" d="M238.92,150.36c-.51,9.78.65,19.58-.19,29.35-.32,3.75-1.05,7.38-1.03,11.16s.25,7.43.32,11.14c.06,3.39-.06,6.4-.79,9.52-.96,4.1-1.95,8.21-3.06,12.27-2.08,7.55-4.71,14.9-8.4,21.82-2.3,4.32-4.86,8.49-8.04,12.23-3.52,4.14-7.26,8.09-10.9,12.11l4.18,1.1c-.78-5-1.55-9.99-2.62-14.94-1.06-4.88-2.52-9.64-3.98-14.41-1.49-4.86-2.86-9.73-3.74-14.74-.86-4.87-1.34-9.79-1.66-14.72-.58-9-1.33-18.58,1.67-27.25,2.79-8.07,9.45-13.85,16.04-18.88,7.45-5.69,15.66-12.52,25.33-13.57,1.34-.15,2.5-1.04,2.5-2.5,0-1.24-1.15-2.65-2.5-2.5-9.45,1.03-17.29,6.33-24.72,11.89-7.22,5.4-14.84,11.02-19.24,19.11-4.67,8.6-4.81,18.63-4.38,28.16.47,10.54,1.49,21.05,4.37,31.23,1.59,5.65,3.53,11.21,4.9,16.93s2.3,11.65,3.21,17.52c.29,1.86,3,2.4,4.18,1.1,6.44-7.1,13.17-13.91,18-22.26,4.11-7.1,7.25-14.7,9.6-22.55,1.19-3.98,2.21-8.01,3.19-12.05.89-3.7,1.76-7.29,1.86-11.12.1-3.76-.13-7.52-.25-11.28-.06-1.79-.09-3.58-.04-5.38s.23-2.96.48-4.68c1.65-11.23.13-22.54.72-33.82.17-3.22-4.83-3.21-5,0h0Z"/>
    </g>
    <g>
      <path class="cls-5" d="M108.52,137.13c.39-2.01,1.88-3.63,3.5-4.88,5.66-4.39,13.17-5.5,20.33-5.79,3.68-.15,8.01.21,9.99,3.32-6.41-16.06-7.94-33.98-16.15-49.2-.48,1.2-.96,2.4-1.45,3.6-1.09,2.72-2.18,5.44-3.28,8.16-3.56,8.86-7.13,17.77-9.27,27.08-1.19,5.17-1.93,10.43-2.66,15.69"/>
      <path class="cls-5" d="M110.94,137.8c.62-2.68,3.46-4.36,5.74-5.54,2.74-1.41,5.79-2.18,8.81-2.68,2.86-.47,5.84-.7,8.75-.64,2.02.05,4.72.29,5.95,2.1.69,1.03,1.94,1.54,3.12,1.02,1.04-.46,1.91-1.77,1.45-2.95-6.45-16.29-8.06-34.21-16.4-49.8-1.11-2.08-3.83-1.25-4.57.6-3.56,8.86-7.32,17.68-10.45,26.71-1.54,4.44-2.88,8.95-3.86,13.54-1.01,4.72-1.68,9.5-2.35,14.28-.19,1.34.33,2.68,1.75,3.08,1.17.32,2.89-.4,3.08-1.75.67-4.78,1.34-9.56,2.35-14.28s2.33-9.1,3.86-13.54c3.13-9.03,6.89-17.85,10.45-26.71l-4.57.6c8.11,15.17,9.61,32.74,15.9,48.6,1.52-.64,3.05-1.28,4.57-1.93-2.1-3.1-5.46-4.24-9.05-4.52s-7.34.15-10.89.7c-3.74.57-7.42,1.63-10.77,3.43-3.32,1.79-6.79,4.48-7.68,8.34-.72,3.13,4.1,4.47,4.82,1.33h0Z"/>
    </g>
    <g id="cijAac">
      <g>
        <g>
          <path class="cls-5" d="M148.24,153.24c4.67,1.55,9.04,3.91,13.89,5,6.79,1.54,13.57,1.63,20.46.8,12.56-1.5,22.94-7.19,31.71-16.05,8.08-8.16,13.03-18.13,14.59-29.37,2.81-20.22-3.83-37.22-19.32-50.56-7.02-6.04-15.31-10.04-24.38-11.45-16.47-2.56-31.71.65-44.84,11.65-3.99,3.34-9.78,8.77-12.56,13.14h0"/>
          <path class="cls-4" d="M174.29,163.06c-4.52,0-8.8-.47-12.94-1.41-3.24-.74-6.21-1.95-9.08-3.12-1.77-.72-3.44-1.41-5.14-1.97-1.83-.61-2.83-2.59-2.22-4.43.61-1.83,2.59-2.83,4.42-2.22,1.93.64,3.79,1.4,5.59,2.14,2.72,1.12,5.3,2.17,7.98,2.78,5.92,1.34,12.22,1.59,19.27.74,11.26-1.35,20.96-6.26,29.63-15.04,7.57-7.65,12.14-16.86,13.61-27.39,2.62-18.85-3.48-34.8-18.14-47.42-6.61-5.69-14.43-9.37-22.63-10.64-16.5-2.56-30.26,1-42.06,10.87-4.14,3.46-9.42,8.52-11.86,12.34-1.04,1.63-3.21,2.11-4.83,1.07-1.63-1.04-2.11-3.2-1.07-4.83,3.6-5.65,11.06-12.1,13.27-13.94,13.25-11.09,29.27-15.27,47.62-12.42,9.49,1.47,18.53,5.71,26.12,12.25,16.58,14.27,23.47,32.34,20.5,53.69-1.68,12.05-6.91,22.6-15.57,31.35-9.7,9.8-21.06,15.54-33.78,17.06-3.01.36-5.91.54-8.72.54Z"/>
        </g>
        <g>
          <path class="cls-5" d="M127.78,76.41c-3.43-2.91-5.69-6.84-8.86-10.02-7.88-7.9-17.38-12.75-28.14-14.75-6.87-1.27-13.93-1.2-20.96.32-15.18,3.28-26.82,11.31-35.17,24.41-3.5,5.49-5.83,11.35-7.24,17.61-.46,2.04-.9,4.13-.85,6.28.07,3.15-.47,6.22-.13,9.45.75,7.1,2.43,13.87,5.7,20.15,4.4,8.46,10.47,15.51,18.56,20.76,6.76,4.38,14.02,7.32,22.04,8.38,8.07,1.07,16.04.85,23.86-1.61,3.41-1.07,6.71-2.45,9.97-3.91"/>
          <path class="cls-4" d="M81.54,163.13c-2.98,0-6.06-.21-9.27-.64-8.21-1.09-15.89-4-23.48-8.92-8.29-5.37-14.94-12.8-19.76-22.08-3.22-6.19-5.2-13.19-6.07-21.4-.23-2.2-.12-4.22,0-6.18.07-1.24.14-2.41.11-3.56-.06-2.5.41-4.8.93-7.13,1.55-6.9,4.07-13.02,7.71-18.73,8.77-13.76,21.35-22.49,37.39-25.95,7.41-1.6,14.92-1.71,22.34-.34,11.64,2.16,21.73,7.45,29.98,15.71,1.51,1.51,2.79,3.13,4.03,4.7,1.51,1.9,2.93,3.7,4.61,5.12,1.48,1.25,1.66,3.46.41,4.93-1.25,1.48-3.46,1.66-4.93.41-2.22-1.88-3.93-4.04-5.58-6.12-1.17-1.47-2.27-2.87-3.5-4.1-7.23-7.25-16.08-11.88-26.3-13.78-6.5-1.21-13.09-1.11-19.59.3-14.34,3.1-25.12,10.58-32.96,22.88-3.19,5.01-5.41,10.4-6.78,16.5-.44,1.96-.8,3.73-.76,5.43.03,1.43-.05,2.8-.12,4.13-.1,1.75-.2,3.41-.03,5.04.78,7.33,2.52,13.51,5.32,18.91,4.26,8.19,10.1,14.73,17.36,19.43,6.7,4.34,13.43,6.9,20.59,7.85,8.36,1.11,15.67.62,22.35-1.47,3.57-1.12,7-2.6,9.58-3.77,1.76-.79,3.83,0,4.63,1.75.79,1.76,0,3.83-1.75,4.63-2.76,1.24-6.44,2.83-10.36,4.06-5.05,1.59-10.37,2.37-16.09,2.37Z"/>
        </g>
        <path class="cls-4" d="M114.87,306.88c-1.61,0-3.25-.08-4.9-.33-2.23-.34-4.55-.61-6.79-.88-4.32-.5-8.79-1.03-13.22-2.12-1.23-.3-2.48-.55-3.81-.82-2.65-.53-5.4-1.08-8.08-2.1-1.53-.58-3.1-1.08-4.75-1.6-2.21-.69-4.48-1.41-6.76-2.39-10.9-4.67-20.55-10.94-29.5-19.18-6.76-6.23-12.66-13.78-18.02-23.08-6.34-11-10.99-23.43-14.2-38-1.38-6.28-2.27-11.57-2.78-16.64l-.18-1.81c-.52-5.1-1.06-10.37-1.4-15.62-.66-10.22-.62-20.87.14-31.67.08-1.15.11-2.31.14-3.54.05-2.08.11-4.24.43-6.42.55-3.74.91-7.6,1.26-11.34l.1-1.09c.57-6.07,1.45-12.53,2.86-20.94,1.56-9.33,3.46-19.02,5.65-28.8,3-13.42,6.04-25.4,9.29-36.64,3.61-12.53,6.64-22.13,9.82-31.11.25-.69.46-1.4.67-2.12.7-2.35,1.5-5.02,3.39-7.35.78-.97,2.02-1.45,3.25-1.26,5.61.86,9.24,3.2,13.4,6.18,7.98,5.71,14.11,13.16,20.03,20.36l1.12,1.36c.96.59,1.62,1.63,1.71,2.79.11,1.59-.79,3.05-2.26,3.64-1.35.54-2.88.2-3.9-.84-.09-.09-.18-.19-.26-.29l-1.82-2.21c-5.9-7.17-11.47-13.94-18.7-19.11-2.92-2.09-5.23-3.62-8.16-4.47-.43.97-.76,2.07-1.1,3.21-.25.82-.49,1.64-.78,2.44-3.13,8.85-6.12,18.33-9.7,30.72-3.2,11.1-6.21,22.95-9.18,36.23-2.16,9.65-4.04,19.21-5.58,28.42-1.38,8.24-2.24,14.54-2.79,20.44l-.1,1.09c-.36,3.83-.73,7.78-1.3,11.7-.26,1.77-.31,3.62-.36,5.58-.03,1.25-.07,2.54-.16,3.85-.73,10.49-.78,20.83-.14,30.73.33,5.12.86,10.33,1.38,15.37l.19,1.82c.49,4.8,1.33,9.83,2.66,15.84,3.06,13.86,7.45,25.64,13.43,36.01,5,8.68,10.47,15.69,16.7,21.43,8.35,7.69,17.35,13.54,27.51,17.89,1.96.84,3.97,1.47,6.11,2.15,1.68.53,3.42,1.08,5.15,1.74,2.14.82,4.48,1.28,6.95,1.78,1.34.27,2.74.54,4.12.89,4,.99,8.06,1.46,12.36,1.96,2.3.27,4.68.55,7.04.91,2.24.35,4.64.26,7.18.17,1.8-.06,3.65-.13,5.54-.04,6.79.31,13.55-.37,19.84-1.16,9.04-1.14,18.01-3.14,26.66-5.97,12.05-3.94,22.81-9.95,31.99-17.86,3.97-3.42,8.11-7.2,11.47-11.62,3.25-4.27,6.61-8.69,9.3-13.36,3.18-5.53,6.03-11.61,8.48-18.08,3.78-9.98,6.03-20.36,7.57-28.29.55-2.83.87-5.72,1.21-8.78.17-1.54.34-3.08.54-4.6,1.49-11.44,1.49-23.22,1.49-34.62,0-1.69,0-3.38,0-5.06,0-.45,0-1.4-.15-1.57-1.3-1.43-1.19-3.65.24-4.94,1.43-1.3,3.64-1.19,4.94.24,1.98,2.18,1.97,4.75,1.97,6.29,0,1.68,0,3.36,0,5.05,0,11.62,0,23.64-1.54,35.53-.19,1.48-.36,2.97-.52,4.47-.34,3.07-.69,6.24-1.29,9.35-1.59,8.21-3.93,18.97-7.9,29.44-2.58,6.81-5.6,13.23-8.96,19.08-2.91,5.07-6.41,9.67-9.8,14.12-3.75,4.94-8.21,9.01-12.47,12.69-9.88,8.52-21.45,14.98-34.38,19.21-9.07,2.96-18.47,5.07-27.96,6.26-6.61.83-13.72,1.55-21.04,1.21-1.59-.07-3.23-.02-4.96.05-1.18.04-2.38.08-3.59.08Z"/>
        <path class="cls-4" d="M42.3,279.71c-.53,0-1.07-.12-1.58-.38-1.72-.87-2.42-2.98-1.54-4.7.48-.95.83-1.84,1.07-2.74,3.14-11.6,5.28-21.23,6.74-30.32.9-5.61,1.9-12.14,2.39-18.59l.11-1.5c.31-4.1.63-8.34,1.1-12.53.72-6.42.78-12.41.15-17.8-.95-8.22-4.8-15.25-11.77-21.47-5.42-4.84-11.96-9.12-20.59-13.48-.79-.4-1.59-.81-2.38-1.23-3.74-1.95-7.26-3.8-11.12-4.29-1.92-.25-3.27-2-3.02-3.92.25-1.92,2-3.27,3.92-3.02,5.1.66,9.35,2.88,13.47,5.03.76.4,1.53.8,2.29,1.18,9.19,4.64,16.21,9.25,22.1,14.51,8.19,7.31,12.92,16.02,14.06,25.89.69,5.92.64,12.44-.15,19.39-.46,4.06-.77,8.24-1.08,12.27l-.11,1.5c-.51,6.71-1.54,13.41-2.46,19.16-1.5,9.33-3.69,19.2-6.9,31.04-.37,1.36-.88,2.69-1.58,4.07-.62,1.22-1.85,1.92-3.13,1.92Z"/>
        <path class="cls-4" d="M206.71,277.87c-1.17,0-2.32-.59-2.98-1.66-.8-1.29-1.37-2.64-1.75-4.13-1.94-7.68-3.75-15.58-5.37-23.47-2.1-10.2-3.24-20.43-4-28.2-.64-6.57-.94-13.25-1.22-19.73v-.11c-.08-1.75.11-3.34.3-4.88.11-.89.21-1.72.25-2.53.38-7.46,2.89-14.52,7.46-20.98,5.37-7.59,12.58-13.73,23.4-19.91,7.31-4.18,13.16-6.97,18.95-9.05.01,0,.02,0,.04-.01.19-3.25-.14-6.51-.49-9.97-.07-.65-.13-1.3-.19-1.95-.47-4.92-1.1-9.94-1.71-14.8-.23-1.86-.47-3.72-.69-5.58-.86-7.08-1.94-14.31-3.3-22.08-1.75-10.01-3.83-19.99-6.19-29.67-4.38-17.99-8.53-32.81-13.06-46.66-.23-.7-.43-1.42-.63-2.13-.28-1.02-.56-2.01-.91-2.84-.27.09-.53.2-.79.34-3.24,1.72-5.73,3.3-7.84,4.96-6.72,5.29-13.59,11.83-21.61,20.6-1.3,1.43-3.52,1.53-4.94.22-1.43-1.3-1.53-3.52-.22-4.94,8.28-9.06,15.41-15.85,22.45-21.38,2.44-1.92,5.26-3.71,8.88-5.64,1.67-.89,3.44-1.36,5.58-1.48,1.05-.06,2.06.35,2.77,1.12,2,2.17,2.73,4.82,3.38,7.16.17.61.34,1.23.54,1.83,4.58,14.02,8.78,29.02,13.21,47.18,2.4,9.83,4.51,19.97,6.28,30.12,1.38,7.89,2.47,15.23,3.35,22.44.22,1.85.46,3.7.69,5.55.62,4.91,1.26,9.99,1.74,15.01.06.64.12,1.28.19,1.92.36,3.62.74,7.36.5,11.2-.19,3.11-1.62,4.98-4.65,6.07-5.4,1.94-10.9,4.57-17.84,8.54-9.88,5.65-16.41,11.16-21.16,17.88-3.85,5.43-5.87,11.09-6.18,17.29-.05,1.05-.17,2.05-.29,3.01-.16,1.32-.31,2.57-.26,3.74v.11c.28,6.38.57,12.97,1.2,19.35.74,7.6,1.86,17.58,3.89,27.46,1.6,7.79,3.39,15.58,5.31,23.17.2.78.5,1.49.91,2.16,1.02,1.64.51,3.8-1.13,4.82-.57.35-1.21.52-1.84.52Z"/>
        <path class="cls-4" d="M181.87,34.57c-.22,0-.45-.02-.68-.06-.07-.01-.14-.03-.22-.04-2.17-.47-4.33-.97-6.49-1.46-6.95-1.58-14.13-3.21-21.23-4.17-6.04-.82-12.38-1.41-18.85-1.77-5.64-.31-11.69-.57-17.73-.28-4.79.23-9.88.66-16.04,1.35-9.49,1.07-18.59,3.29-29.33,6.28-1.85.52-3.79-.57-4.31-2.43-.52-1.86.57-3.79,2.43-4.31,9.58-2.67,19.89-5.3,30.43-6.5,6.32-.71,11.56-1.16,16.5-1.39,6.36-.3,12.63-.04,18.46.28,6.65.37,13.17.99,19.39,1.83,7.4,1,14.74,2.67,21.84,4.28,1.88.43,3.77.86,5.65,1.27,1.16-.03,2.3.47,3.01,1.39.91,1.18.99,2.82.19,4.07-.67,1.05-1.8,1.65-3.03,1.65ZM185.29,31.22h0s0,0,0,0Z"/>
        <g>
          <path class="cls-3" d="M148.24,152.97c-.57-2.6.06-5.2-.39-7.89-1.24-7.37-7.9-12.77-15.08-13.81-7.75-1.12-14.7.83-20.75,6.17-4.94,4.36-6.11,9.95-4.99,15.74.7,3.63,3.52,6.78,6.05,9.77,3.79,4.48,8.43,7.9,13.16,11.23,1.47,1.03,2.94,1.11,4.46-.22,5.33-4.68,10.8-9.2,14.43-15.47.96-1.66,1.5-3.57,2.85-5"/>
          <path class="cls-1" d="M128.37,178.46c-1.4,0-2.83-.47-4.16-1.4-4.97-3.49-9.76-7.03-13.82-11.83l-.45-.53c-2.59-3.06-5.53-6.52-6.37-10.84-1.48-7.61.63-14.19,6.11-19.03,6.73-5.95,14.65-8.31,23.57-7.02,9.19,1.33,16.61,8.2,18.03,16.69.27,1.6.23,3.1.2,4.43-.03,1.25-.05,2.33.16,3.28.2.92.03,1.83-.42,2.57-.16.4-.4.78-.71,1.12-.5.53-.89,1.36-1.34,2.32-.31.65-.62,1.33-1.03,2.03-3.62,6.26-8.82,10.81-13.85,15.21l-1.3,1.14c-1.41,1.24-3.01,1.86-4.63,1.86ZM128.61,134.47c-5.34,0-10.04,1.85-14.29,5.6-3.61,3.19-4.88,7.27-3.87,12.46.49,2.52,2.7,5.12,4.83,7.64l.46.54c3.52,4.17,7.92,7.4,12.5,10.62.03.02.06.04.08.06.02-.01.03-.03.05-.05l1.31-1.15c4.81-4.21,9.36-8.18,12.4-13.45.25-.44.49-.95.75-1.49.46-.99.97-2.07,1.73-3.12-.12-1.19-.09-2.32-.07-3.36.03-1.11.05-2.17-.11-3.11-.92-5.44-6.02-10.04-12.14-10.92-1.25-.18-2.46-.27-3.64-.27Z"/>
        </g>
        <path class="cls-4" d="M69.59,321.34s-.09,0-.14,0c-6.07-.07-9.85-4.71-10.86-6.13-.67-.93-3.93-5.87-2.84-11.55.46-2.42,1.93-5.89,6.29-8.7,6.86-4.43,10.71-3.5,11.72-3.12,1.8.69,2.71,2.71,2.02,4.52-.65,1.69-2.47,2.6-4.19,2.12-.32-.02-2.14.01-5.76,2.35-1.86,1.2-2.9,2.55-3.21,4.13-.46,2.39.83,5.01,1.66,6.17.53.74,2.46,3.16,5.24,3.19.02,0,.04,0,.06,0,2.86,0,6.23-2.49,9.75-7.2,1.16-1.55,3.35-1.87,4.9-.71,1.55,1.16,1.87,3.35.71,4.9-4.96,6.64-10.13,10-15.36,10ZM71.28,298.38h0ZM71.27,298.38s0,0,0,0c0,0,0,0,0,0ZM71.27,298.38s0,0,0,0c0,0,0,0,0,0Z"/>
        <path class="cls-4" d="M88.46,333.99h0c-5.56,0-9.94-3.04-11.7-8.12-1.99-5.74-.42-11.95-.23-12.64h0c.45-1.84,2.04-4.75,2.57-5.7.95-1.68,3.08-2.29,4.76-1.34,1.69.95,2.29,3.08,1.34,4.76-.35.63-1.58,3.04-1.86,3.82-.02.09-.04.18-.06.27,0,.04-1.22,4.76.09,8.52.8,2.3,2.46,3.41,5.09,3.42h0c1.34,0,3.93-.75,5.47-2.4,1.08-1.16,1.54-2.62,1.4-4.47-.12-1.6.87-3.08,2.4-3.58,1.53-.5,3.2.1,4.05,1.46l2.62,4.15c.85,1,2.87,2.84,5.54,1.5.52-.33,1.45-2.23,1.5-3.76.06-1.93,1.7-3.44,3.61-3.39,1.93.06,3.45,1.68,3.39,3.61-.11,3.5-2.03,8.13-5.36,9.79-4.37,2.19-9.23,1.38-12.86-2.01-.35.51-.74.99-1.16,1.46-2.98,3.2-7.47,4.63-10.6,4.63ZM83.31,314.86h0,0ZM83.39,314.34h0s0,0,0,0Z"/>
        <path class="cls-4" d="M114.93,323.5c-1.8,0-3.33-1.38-3.48-3.21-.28-3.39-1.08-6.75-2.37-10-.13-.32-.27-.64-.41-.96-.65-1.5-1.46-3.36-1.43-5.63.03-1.91,1.59-3.44,3.5-3.44h.06c1.93.03,3.47,1.62,3.44,3.56-.01.75.38,1.67.84,2.72.17.39.34.77.49,1.16,1.56,3.9,2.51,7.95,2.85,12.03.16,1.93-1.28,3.62-3.2,3.77-.1,0-.19.01-.29.01Z"/>
        <path class="cls-4" d="M180.5,320.47c-5.23,0-10.39-3.37-15.36-10-1.16-1.55-.84-3.74.71-4.9,1.55-1.16,3.74-.84,4.9.71,3.54,4.74,6.96,7.26,9.81,7.2,2.77-.03,4.71-2.45,5.24-3.19.83-1.17,2.12-3.78,1.66-6.17-.3-1.58-1.35-2.94-3.21-4.13-3.62-2.33-5.45-2.36-5.76-2.35-1.72.47-3.54-.43-4.19-2.13-.69-1.8.21-3.83,2.02-4.52,1.01-.39,4.86-1.31,11.72,3.11,4.36,2.81,5.82,6.28,6.29,8.7,1.09,5.68-2.17,10.62-2.84,11.55-1.01,1.42-4.78,6.06-10.86,6.13-.05,0-.09,0-.14,0ZM178.81,297.52h0,0ZM178.82,297.52s0,0,0,0c0,0,0,0,0,0ZM178.82,297.51s0,0,0,0c0,0,0,0,0,0Z"/>
        <path class="cls-4" d="M161.63,333.12c-3.13,0-7.61-1.43-10.59-4.63-.43-.46-.82-.95-1.17-1.46-3.63,3.39-8.49,4.2-12.86,2.01-3.33-1.67-5.24-6.29-5.36-9.79-.06-1.93,1.45-3.55,3.38-3.61,1.97-.05,3.55,1.45,3.61,3.38.05,1.54.98,3.44,1.52,3.77,2.66,1.33,4.68-.51,5.52-1.51l2.62-4.15c.86-1.36,2.53-1.96,4.05-1.46,1.53.5,2.52,1.98,2.4,3.58-.13,1.85.33,3.31,1.4,4.47,1.54,1.66,4.12,2.4,5.47,2.4h0c2.63,0,4.29-1.12,5.09-3.42,1.31-3.77.1-8.49.08-8.53-.02-.08-.04-.17-.06-.26-.28-.78-1.51-3.21-1.86-3.82-.95-1.68-.35-3.82,1.33-4.77,1.69-.95,3.82-.35,4.77,1.33.53.94,2.12,3.86,2.57,5.71h0c.19.69,1.76,6.91-.23,12.64-1.76,5.08-6.14,8.11-11.7,8.12h0ZM166.7,313.48h0s0,0,0,0ZM166.7,313.47s0,0,0,0c0,0,0,0,0,0ZM166.7,313.47h0s0,0,0,0Z"/>
        <path class="cls-4" d="M135.16,322.63c-.1,0-.19,0-.29-.01-1.93-.16-3.36-1.85-3.2-3.77.33-4.08,1.29-8.13,2.85-12.03.16-.39.32-.78.49-1.16.46-1.06.86-1.97.84-2.73-.03-1.93,1.51-3.52,3.44-3.56h.06c1.91,0,3.47,1.53,3.5,3.44.04,2.27-.77,4.13-1.42,5.63-.14.32-.28.64-.41.96-1.3,3.25-2.1,6.62-2.37,10.01-.15,1.83-1.68,3.21-3.48,3.21Z"/>
      </g>
    </g>
    <g>
      <circle class="cls-1" cx="77.05" cy="105.19" r="26.29"/>
      <path class="cls-1" d="M77.05,134.98c-16.43,0-29.79-13.36-29.79-29.79s13.36-29.79,29.79-29.79,29.79,13.36,29.79,29.79-13.36,29.79-29.79,29.79ZM77.05,82.4c-12.57,0-22.79,10.22-22.79,22.79s10.22,22.79,22.79,22.79,22.79-10.22,22.79-22.79-10.22-22.79-22.79-22.79Z"/>
    </g>
    <g>
      <circle class="cls-1" cx="174.63" cy="105.18" r="26.29"/>
      <path class="cls-1" d="M174.62,134.97c-16.43,0-29.79-13.36-29.79-29.79s13.36-29.79,29.79-29.79,29.79,13.36,29.79,29.79-13.36,29.79-29.79,29.79ZM174.62,82.39c-12.57,0-22.79,10.22-22.79,22.79s10.22,22.79,22.79,22.79,22.79-10.22,22.79-22.79-10.22-22.79-22.79-22.79Z"/>
    </g>
    <g>
      <circle class="cls-1" cx="77.05" cy="105.18" r="17.55"/>
      <path class="cls-3" d="M77.05,126.22c-11.61,0-21.05-9.44-21.05-21.05s9.44-21.05,21.05-21.05,21.05,9.44,21.05,21.05-9.44,21.05-21.05,21.05ZM77.05,91.13c-7.75,0-14.05,6.3-14.05,14.05s6.3,14.05,14.05,14.05,14.05-6.3,14.05-14.05-6.3-14.05-14.05-14.05Z"/>
    </g>
    <g>
      <circle class="cls-1" cx="174.91" cy="105.18" r="17.55"/>
      <path class="cls-3" d="M174.91,126.22c-11.61,0-21.05-9.44-21.05-21.05s9.44-21.05,21.05-21.05,21.05,9.44,21.05,21.05-9.44,21.05-21.05,21.05ZM174.91,91.13c-7.75,0-14.05,6.3-14.05,14.05s6.3,14.05,14.05,14.05,14.05-6.3,14.05-14.05-6.3-14.05-14.05-14.05Z"/>
    </g>
  </g>
</svg>