<?xml version="1.0" encoding="UTF-8"?>
<svg id="Layer_2" data-name="Layer 2" xmlns="http://www.w3.org/2000/svg" viewBox="0 0 124.45 147.94">
  <defs>
    <style>
      .cls-1 {
        fill: #d1d3d4;
      }

      .cls-2 {
        fill: #bcbec0;
      }

      .cls-3 {
        fill: #939598;
      }
    </style>
  </defs>
  <g id="Animal_Posters" data-name="Animal Posters">
    <g id="Layer_1-2" data-name="Layer 1">
      <g>
        <g>
          <path class="cls-3" d="M10.6,9.71c2.12,19.17-2.41,38.39-3.37,57.65-.57,11.46.13,22.93.82,34.38.72,11.87,1.44,23.74,2.16,35.61.02.38.06.79.33,1.06s.7.31,1.09.32c32.23,1.34,64.51,1.42,96.75.25,1.96-.07,4.2-.29,5.35-1.88.92-1.29.79-3.02.65-4.6-2.5-27.96,5.74-55.95,4.11-83.97-.22-3.84-.64-7.7-1.83-11.36-2.93-9.01-10.19-15.83-17.17-22.23-2.78-2.55-5.66-5.16-9.19-6.49-2.71-1.02-5.64-1.22-8.53-1.39-24.36-1.36-48.85-.35-73.02,3.01"/>
          <path class="cls-3" d="M8.1,9.71c1.67,15.55-.92,31.05-2.49,46.49-.78,7.69-1.18,15.39-1.07,23.12s.62,15.94,1.1,23.91.94,15.5,1.41,23.24c.12,1.98.24,3.96.36,5.93s0,4.08.43,5.99,1.99,2.7,3.8,2.84c2.15.17,4.33.17,6.48.25,15.79.57,31.58.84,47.38.81,7.9-.01,15.8-.1,23.69-.27,3.91-.08,7.81-.18,11.72-.3,1.99-.06,3.99-.13,5.98-.2,1.65-.06,3.36-.06,4.97-.47,3.73-.96,5.31-4.1,5.08-7.77s-.52-7.51-.54-11.28c-.04-7.49.51-14.96,1.24-22.41,1.48-15.08,3.75-30.15,3.55-45.34-.1-7.39-.53-14.93-3.71-21.72-2.73-5.83-7.16-10.74-11.75-15.18s-9.88-10.17-16.51-11.87c-3.68-.94-7.61-.96-11.38-1.13s-7.85-.3-11.78-.35c-15.55-.22-31.12.52-46.58,2.22-3.8.42-7.6.9-11.39,1.42-1.34.19-2.07,1.9-1.75,3.08.4,1.44,1.73,1.93,3.08,1.75,21.43-2.96,43.13-4.03,64.75-3.26,2.69.1,5.38.22,8.06.37,2.44.14,4.88.35,7.19,1.19,4.13,1.51,7.4,5.06,10.55,8,6.51,6.07,12.97,12.76,15.01,21.72,1.13,4.94,1.2,10.15,1.22,15.19s-.25,10.51-.67,15.76c-.83,10.52-2.26,20.98-3.2,31.49-.47,5.23-.82,10.48-.91,15.74-.04,2.62-.02,5.24.08,7.87s.46,5.05.48,7.56c0,.62.02,1.31-.48,1.74-.59.51-1.66.55-2.41.6-2.55.16-5.12.19-7.68.27-5.57.17-11.14.31-16.71.4-21.95.38-43.9.18-65.84-.6-1.33-.05-2.66-.1-3.99-.15-.66-.03-1.33-.05-1.99-.08-.32-.01-.69-.1-1-.04-.53.1-.17-.06-.08,0l.9.9c.07.11-.08.48,0-.05.03-.22-.03-.52-.05-.74l-.09-1.48-.2-3.21c-.13-2.14-.26-4.29-.39-6.43-.26-4.2-.51-8.41-.77-12.61-.51-8.44-1.1-16.88-1.44-25.33s-.36-16.7.29-25.03,1.78-16.48,2.61-24.73c.92-9.24,1.43-18.56.44-27.82-.14-1.34-1.05-2.5-2.5-2.5-1.24,0-2.65,1.15-2.5,2.5h0Z"/>
        </g>
        <g>
          <path class="cls-1" d="M29.36,137.7c-.42-16.85-.57-33.71-.43-50.57,0-.39.01-.8.2-1.14.48-.87,1.72-.79,2.7-.66,6.7.86,13.31-1.61,19.93-2.98,9.98-2.06,20.28-1.62,30.46-1.18,3.45.15,6.94.31,10.26,1.28.87.25,1.77.6,2.32,1.32.52.68.63,1.58.72,2.44,1.68,16.37,2.16,32.86,1.45,49.3-.07,1.62-.31,3.51-1.72,4.31-.61.34-1.33.41-2.03.46-5.35.43-10.7.85-16.05,1.28-16.58,1.32-33.91,2.53-49.22-3.95"/>
          <path class="cls-2" d="M31.86,137.7c-.41-16.36-.56-32.72-.44-49.08,0-.2.14-1.36.01-1.49-.32-.31-.52.86-.83.63.28.21,1.81.14,2.17.17,1.86.16,3.73.06,5.58-.17,3.99-.49,7.86-1.56,11.76-2.48,7.56-1.78,15.27-2.1,23.02-1.93,3.97.09,7.95.22,11.91.47,1.66.1,3.31.25,4.94.59.71.15,1.99.25,2.57.7.38.3.38.62.46,1.1.62,4.04.77,8.22,1.04,12.3s.45,7.89.57,11.83c.25,8.06.21,16.13-.11,24.18-.03.75.09,2.71-.53,3.15-.33.24-1.32.15-1.74.18-1.13.09-2.27.18-3.4.27-3.89.31-7.78.62-11.67.93-16.21,1.29-33.19,2.57-48.55-3.87-1.25-.52-2.75.56-3.08,1.75-.4,1.44.5,2.55,1.75,3.08,14.75,6.17,31.15,5.49,46.77,4.29,4.12-.32,8.24-.65,12.36-.98,2.19-.17,4.38-.34,6.57-.52,2.07-.17,4.01-.61,5.24-2.44.96-1.43,1.17-3.16,1.26-4.85.11-2.14.16-4.28.22-6.41.11-4.36.13-8.72.07-13.08-.12-8.72-.58-17.43-1.38-26.12-.18-1.93-.13-4.14-.75-5.98-.72-2.13-2.4-3.24-4.48-3.87-4.05-1.21-8.4-1.26-12.59-1.44-8.42-.36-16.86-.57-25.23.61-4.17.59-8.21,1.7-12.31,2.64-2,.46-4.01.88-6.05,1.05s-3.8-.03-5.74-.14-3.99.73-4.57,2.74-.24,4.33-.25,6.33c-.02,4.38-.02,8.76,0,13.14.03,8.76.14,17.52.32,26.28.04,2.15.09,4.3.15,6.44.08,3.21,5.08,3.22,5,0h0Z"/>
        </g>
        <g>
          <path class="cls-1" d="M22.15,8.86c-.42,4.31-.84,8.67-.19,12.95.64,4.28,2.47,8.54,5.82,11.28,4.07,3.32,9.66,3.92,14.9,4.11,12.9.48,25.87-.67,38.48-3.42.75-.16,1.56-.37,2.06-.96.48-.57.56-1.37.62-2.11.48-6.38.79-12.77.92-19.17.01-.61.01-1.26-.3-1.78-.67-1.1-2.25-1.04-3.53-.89-3.5.42-7.04.5-10.56.34-8.35-.37-16.61-2.07-24.96-2.32-7.5-.22-15.03.74-22.24,2.83"/>
          <path class="cls-2" d="M19.65,8.86c-.56,5.79-1.08,11.84.81,17.46,1.76,5.23,5.26,9.3,10.41,11.39s10.8,2.04,16.16,2.09c6.05.05,12.11-.25,18.12-.91,3.11-.34,6.21-.77,9.3-1.28,2.74-.46,5.71-.78,8.34-1.68,3.33-1.13,3.48-4.16,3.69-7.18s.39-6.22.53-9.34c.13-2.93.52-6.06.19-8.97-.35-3.11-3.1-4.36-5.95-4.1-6.08.56-12.02.45-18.1-.21-6.7-.73-13.39-1.79-20.15-1.76s-13.86,1.04-20.51,2.95c-3.09.89-1.77,5.71,1.33,4.82,5.17-1.48,10.46-2.41,15.83-2.68s11.05.2,16.55.85,10.85,1.39,16.32,1.47c2.73.04,5.45-.08,8.16-.38.47-.05,1.14.01,1.58-.11.2-.06.62.18.04-.27-.11-.09.03-.73-.04.15-.02.28,0,.59-.01.86-.01.74-.03,1.48-.05,2.21-.16,5.62-.45,11.24-.89,16.84-.02.24.03.12.16.02-.3.24-1.08.28-1.45.36-1.42.31-2.85.59-4.27.85-2.64.49-5.29.91-7.95,1.25-5.44.69-10.92,1.09-16.41,1.2-4.92.1-10.09.27-14.95-.66s-8.76-3.34-10.74-8.01c-2.3-5.41-1.6-11.56-1.05-17.24.13-1.35-1.24-2.5-2.5-2.5-1.46,0-2.37,1.15-2.5,2.5h0Z"/>
        </g>
        <g id="Oijv7Q.tif">
          <g>
            <path d="M92.03,0c1.95,1.22,3.71,1.68,5.63,3.15,3.85,2.94,14.23,14.48,17.91,18.67,3.55,4.04,7.12,7.64,7.89,13.23-1.53,31.7,2.66,66.41.21,97.77-.62,7.95-4.15,13.07-12.32,14.42H12.29c-6.74-.9-10.94-5.46-12.29-11.98V12.68C1.25,6.12,4.03,2.97,9.83,0h82.19ZM17.56,9.86c-2.98.16-6.49-1.07-7.9,2.3-.89,41.03-.89,82.57,0,123.63.22.52,1.66,2.29,1.93,2.29h10.89v-49.67c0-.64,3.04-5.87,3.87-6.69,1.88-1.85,5.19-3.14,7.8-3.45,17.34.85,36.17-1.4,53.34-.11,3.44.26,6.76.88,9.41,3.25,1.06.95,4.26,6.09,4.26,7v49.67h10.89c.9,0,3-3.99,2.49-5.25l-.07-97.21-1.36-2.86-20.37-20.78v17.96c0,3.51-6.18,10.82-9.65,11.46-14.37-.35-28.95.85-43.27.61-3.43-.06-13.02-.18-15.42-1.82-.29-.2-4.26-4.88-4.6-5.43-.55-.88-2.22-4.82-2.22-5.52V9.86ZM35.83,9.86h-9.13v19.37c0,2.15,7.14,4.08,9.13,3.17V9.86ZM83.6,9.86h-38.64v22.54h34.77c.66,0,3.86-2.08,3.86-3.17V9.86ZM92.73,133.85v-41.92c0-2.85-2.97-3.7-5.24-3.91-16.5-1.52-35.28,1.21-52.03.02-2.03-.32-4.55,2.07-4.55,3.89v41.92h61.82Z"/>
            <path d="M43.35,96.67c3.99-.88,31.94-.83,36.34-.11,5.67.93,5.79,9.09-.65,9.84s-29.09.93-35.1-.06c-5.51-.9-5.42-8.61-.59-9.67Z"/>
            <path d="M43.35,114.98c3.99-.88,31.94-.83,36.34-.11,5.67.93,5.79,9.09-.65,9.84s-29.09.93-35.1-.06c-5.51-.9-5.42-8.61-.59-9.67Z"/>
            <path d="M68.63,14.23c10.55-3.25,7.5,18.76-.47,12.87-3.14-2.32-3.16-11.76.47-12.87Z"/>
          </g>
        </g>
      </g>
    </g>
  </g>
</svg>