<?xml version="1.0" encoding="UTF-8"?>
<svg id="Layer_2" data-name="Layer 2" xmlns="http://www.w3.org/2000/svg" viewBox="0 0 150.04 139.53">
  <defs>
    <style>
      .cls-1 {
        fill: #d1d3d4;
      }

      .cls-2 {
        fill: #231f20;
      }

      .cls-3 {
        fill: #939598;
      }
    </style>
  </defs>
  <g id="Layer_2-2" data-name="Layer 2">
    <g>
      <g>
        <rect class="cls-3" x="61.56" y="35.47" width="68.26" height="92.05" rx="11.39" ry="11.39" transform="translate(-28.76 63.87) rotate(-32.36)"/>
        <path class="cls-2" d="M80.98,131.82l-37.07-58.52c-4.9-7.74-2.6-18.02,5.14-22.92l38.42-24.35c7.74-4.9,18.02-2.6,22.92,5.14l37.07,58.52c4.9,7.74,2.6,18.02-5.14,22.92l-38.42,24.35c-7.74,4.9-18.02,2.6-22.92-5.14ZM54.64,59.21c-2.87,1.82-3.73,5.63-1.91,8.5l37.07,58.52c1.82,2.87,5.63,3.73,8.5,1.91l38.42-24.35c2.87-1.82,3.73-5.63,1.91-8.5l-37.07-58.52c-1.82-2.87-5.63-3.73-8.5-1.91l-38.42,24.35Z"/>
      </g>
      <rect class="cls-1" x="68.37" y="48.89" width="29.88" height="81.35" rx="5.56" ry="5.56" transform="translate(-35 58.5) rotate(-32.36)"/>
      <g>
        <path class="cls-3" d="M48.43,55.1l44.13-27.96c.85-.54.76-1.78-.16-2.12l-23.24-8.72c-.36-.14-.77-.09-1.1.12l-18.59,11.78c-.33.21-.55.56-.58.94l-2.31,24.9c-.09.98.99,1.61,1.85,1.06Z"/>
        <path class="cls-2" d="M44.4,59.58c-2.09-1.28-3.24-3.59-3.02-6.03l2.31-24.9c.18-1.98,1.3-3.8,2.99-4.87l18.59-11.78c1.71-1.08,3.85-1.31,5.74-.6l23.24,8.72c2.28.86,3.85,2.89,4.1,5.31.25,2.45-.89,4.79-2.98,6.11l-44.13,27.96c-2.1,1.33-4.72,1.36-6.83.07ZM69.19,21.89l-15.28,9.68-1.36,14.74,30.39-19.26-13.75-5.16Z"/>
      </g>
      <path class="cls-2" d="M57.3,3.96c1.91,3.04,3.81,6.09,5.72,9.13,2.42,3.86,1.4,9.67-2.7,12.02-4.08,2.34-9.43,1.44-12.02-2.7-1.91-3.04-3.81-6.09-5.72-9.13-2.42-3.86-1.4-9.67,2.7-12.02,4.08-2.34,9.43-1.44,12.02,2.7h0Z"/>
      <path class="cls-2" d="M25.49,27.3c-6.12,2.56-12.23,5.12-18.35,7.69-6.88,2.88-10.23-8.24-3.39-11.11,6.12-2.56,12.23-5.12,18.35-7.69,6.88-2.88,10.23,8.24,3.39,11.11h0Z"/>
      <path class="cls-2" d="M34.87,38.45c-5.01,4.35-10.01,8.7-15.02,13.05-2.39,2.07-5.66,2.65-8.2.4-2.13-1.89-2.76-6.15-.4-8.2,5.01-4.35,10.01-8.7,15.02-13.05,2.39-2.07,5.66-2.65,8.2-.4,2.13,1.89,2.76,6.15.4,8.2h0Z"/>
    </g>
  </g>
</svg>