<?xml version="1.0" encoding="UTF-8"?>
<svg id="Layer_2" data-name="Layer 2" xmlns="http://www.w3.org/2000/svg" viewBox="0 0 139.89 146.91">
  <defs>
    <style>
      .cls-1 {
        fill: #c49a6c;
      }

      .cls-2 {
        fill: #231f20;
      }

      .cls-3 {
        fill: #f595aa;
      }
    </style>
  </defs>
  <g id="Layer_2-2" data-name="Layer 2">
    <g>
      <g>
        <path class="cls-1" d="M72.65,7.58c19.06,1.53,33.98,18.47,32.09,36.26-1.09,10.28-7.95,19.59-17.24,24.9.31,5.44-.56,11.52-.05,16.89.17,1.76,1.48,3.66,3.46,3.95,12.18,1.76,38.77-5.97,40.18,11.67.25,3.14.28,9.31-.64,12.24-1.13,3.58-4.37,6.67-8.11,7.93-.18,2.04.13,4.13-.12,6.17-.73,6.03-6.18,10.87-12.67,11.23-27.29-.28-54.69.5-81.91-.39-5.69-1.41-9.72-6.03-10.16-11.53-.14-1.78.17-3.69-.03-5.48-4.8-1.6-8.28-5.93-8.73-10.68-.99-10.36.22-20.36,13.56-21.15,8.57-.51,17.72.4,26.35.02,2.01-.23,3.34-1.97,3.7-3.72v-17.12c-17.64-9.56-22.76-31.08-11.2-46.91,5.84-7.99,15.88-13.53,26.29-14.27,1.46-.1,3.76-.12,5.21,0Z"/>
        <path class="cls-1" d="M60.01,139.53c-10.77,0-21.64-.09-32.37-.45l-.14-.02c-5.91-1.47-10.2-6.34-10.66-12.12-.07-.87-.04-1.77,0-2.64.03-.8.06-1.62,0-2.4-4.8-1.78-8.3-6.19-8.77-11.11-.54-5.65-.66-12.71,3.24-17.26,2.38-2.78,6.06-4.33,10.96-4.62,4.51-.27,9.26-.14,13.84-.02,4.14.11,8.43.22,12.52.04,1.67-.19,2.74-1.69,3.07-3.12v-16.66c-8.53-4.74-14.57-12.64-16.62-21.73-2.04-9.05-.07-18.27,5.55-25.96,6.01-8.23,16.27-13.8,26.78-14.54,1.38-.1,3.75-.12,5.31,0,9.67.78,18.81,5.56,25.08,13.11,5.8,7,8.51,15.48,7.62,23.88-1.06,9.96-7.64,19.58-17.21,25.21.11,2.42,0,4.98-.09,7.46-.12,3.02-.25,6.15.02,8.99.14,1.46,1.26,3.11,2.89,3.35,3.19.46,7.44.25,11.95.04,12.35-.6,27.71-1.34,28.81,12.24.28,3.43.25,9.57-.67,12.49-1.13,3.6-4.29,6.78-8.11,8.21-.05.78-.03,1.57,0,2.4.03,1.1.05,2.23-.08,3.36-.76,6.36-6.48,11.44-13.29,11.82-10.6-.11-21.35-.06-31.74,0-5.89.03-11.86.06-17.85.06ZM27.75,137.75c16.65.54,33.66.46,50.1.39,10.4-.05,21.16-.1,31.72,0,6.13-.35,11.31-4.92,12-10.64.12-1.03.1-2.07.07-3.17-.02-.97-.05-1.98.04-2.98l.04-.43.41-.14c3.62-1.22,6.63-4.16,7.68-7.5.86-2.75.88-8.67.61-11.98-.99-12.29-15.03-11.61-27.41-11.01-4.57.22-8.89.43-12.21-.05-2.37-.34-3.84-2.6-4.03-4.54-.28-2.93-.15-6.1-.02-9.17.11-2.59.22-5.26.07-7.74l-.02-.41.36-.21c9.4-5.39,15.88-14.73,16.9-24.39.85-8.04-1.75-16.17-7.32-22.89-6.04-7.28-14.85-11.89-24.16-12.63h0c-1.34-.11-3.59-.11-5.11,0-10.13.72-20.01,6.08-25.79,14-5.39,7.38-7.28,16.21-5.32,24.88,1.99,8.84,7.93,16.51,16.3,21.04l.35.19v17.66c-.42,1.92-1.9,3.97-4.3,4.24-4.18.18-8.49.07-12.66-.04-4.55-.12-9.26-.24-13.73.02-4.58.27-7.86,1.63-10.02,4.16-3.56,4.16-3.43,10.88-2.92,16.26.43,4.54,3.76,8.6,8.28,10.11l.4.14.05.42c.11,1,.07,2.02.04,3.02-.03.87-.06,1.69,0,2.48.42,5.19,4.26,9.56,9.59,10.91Z"/>
      </g>
      <g id="mQyROY.tif">
        <path class="cls-2" d="M59.68,146.91c-11.26,0-22.63-.1-33.87-.46l-.63-.02-.61-.15c-8.39-2.05-14.47-8.96-15.14-17.19-.07-.82-.07-1.6-.05-2.33-5.03-3.11-8.51-8.39-9.07-14.18-.66-6.82-.74-15.44,4.57-21.64,3.45-4.03,8.56-6.28,15.19-6.66,4.93-.29,9.98-.16,14.86-.03,3.74.1,7.3.19,10.77.11v-12.03c-8.79-5.73-14.98-14.4-17.2-24.27-2.43-10.8-.04-21.77,6.72-30.9C42.38,7.51,54.56.97,67.01.1c1.65-.11,4.36-.15,6.32,0,11.59.92,22.51,6.59,29.96,15.57,6.85,8.26,10.04,18.31,8.96,28.3-1.19,11.1-7.78,21.43-17.85,28.23-.01,1.67-.08,3.33-.15,4.96-.11,2.59-.21,5.07-.09,7.32,2.72.19,6.27.02,9.99-.16,12.71-.6,34-1.62,35.55,17.46,0,.09.76,9.58-.93,14.88-1.32,4.13-4.3,7.76-8.18,10.13.01,1,0,2.09-.14,3.25-1.11,9.05-9.2,16.28-18.83,16.81h-.2s-.2,0-.2,0c-10.95-.11-22.13-.06-32.94,0-6.14.03-12.36.06-18.62.06ZM26.9,134.45c17.04.54,34.47.45,51.33.37,10.78-.05,21.93-.1,32.9,0,3.76-.28,6.99-3,7.39-6.25.08-.67.06-1.55.04-2.48-.03-1.1-.05-2.34.07-3.67l.36-3.92,3.74-1.24c2.11-.7,4.04-2.49,4.61-4.26.51-1.59.7-6.57.4-10.25-.42-5.18-3.84-7.34-22.99-6.42-5.02.24-9.76.47-13.71-.1-4.6-.65-8.28-4.62-8.74-9.43-.32-3.37-.18-6.81-.04-10.14.11-2.64.21-5.14.08-7.42l-.22-3.74,3.26-1.84c8.32-4.7,14.04-12.74,14.93-20.98.72-6.73-1.5-13.59-6.26-19.33-5.39-6.49-13.28-10.6-21.65-11.26h0c-1.14-.09-3.21-.09-4.53,0-9.04.63-17.84,5.32-22.96,12.23-4.65,6.28-6.3,13.77-4.65,21.1,1.74,7.72,6.82,14.17,14.32,18.18l3.18,1.7v21.82s-.13.62-.13.62c-.99,4.61-4.63,8.05-9.08,8.54l-.4.03c-4.5.2-9.07.08-13.51-.04-4.85-.13-9.43-.24-13.85.02-3.24.19-5.51,1.02-6.76,2.48-1.79,2.09-2.36,6.23-1.73,12.66.25,2.55,2.3,4.95,4.98,5.83l3.66,1.2.44,3.83c.16,1.43.11,2.75.07,3.91-.03.73-.05,1.42-.01,1.91.24,2.94,2.37,5.37,5.48,6.33Z"/>
      </g>
      <path class="cls-3" d="M122.35,117.45H17.57c0,1.56-.14,3.15-.03,4.65.44,6.46,4.47,11.88,10.16,13.54,27.22,1.05,54.63.14,81.92.46,6.49-.43,11.94-6.11,12.67-13.19.19-1.81.06-3.64.06-5.46Z"/>
      <rect class="cls-2" x="12.53" y="115.63" width="114.94" height="12.03"/>
    </g>
  </g>
</svg>