<?xml version="1.0" encoding="UTF-8"?>
<svg id="Layer_2" data-name="Layer 2" xmlns="http://www.w3.org/2000/svg" viewBox="0 0 112.15 112.1">
  <defs>
    <style>
      .cls-1 {
        fill: none;
        stroke: #231f20;
        stroke-miterlimit: 10;
        stroke-width: 9px;
      }
    </style>
  </defs>
  <g id="Layer_2-2" data-name="Layer 2">
    <path class="cls-1" d="M57.12,5.2l12.83,31.03c.8,1.94,2.6,3.28,4.69,3.49l31.99,3.25c.97.1,1.37,1.29.66,1.95l-24.3,22.63c-1.46,1.36-2.1,3.39-1.69,5.34l7.02,33.34c.2.97-.86,1.72-1.7,1.19l-27.53-17.06c-1.84-1.14-4.16-1.14-6,0l-27.53,17.06c-.84.52-1.91-.22-1.7-1.19l7.02-33.34c.41-1.96-.23-3.98-1.69-5.34L4.86,44.92c-.71-.66-.31-1.85.66-1.95l31.99-3.25c2.09-.21,3.89-1.55,4.69-3.49l12.83-31.03c.38-.93,1.7-.93,2.09,0Z"/>
  </g>
</svg>